G04 #@! TF.GenerationSoftware,KiCad,Pcbnew,5.1.2-f72e74a~84~ubuntu18.04.1*
G04 #@! TF.CreationDate,2022-02-01T20:37:36+01:00*
G04 #@! TF.ProjectId,T41Expander,54343145-7870-4616-9e64-65722e6b6963,rev?*
G04 #@! TF.SameCoordinates,Original*
G04 #@! TF.FileFunction,Paste,Bot*
G04 #@! TF.FilePolarity,Positive*
%FSLAX46Y46*%
G04 Gerber Fmt 4.6, Leading zero omitted, Abs format (unit mm)*
G04 Created by KiCad (PCBNEW 5.1.2-f72e74a~84~ubuntu18.04.1) date 2022-02-01 20:37:36*
%MOMM*%
%LPD*%
G04 APERTURE LIST*
%ADD10C,0.100000*%
%ADD11C,1.250000*%
G04 APERTURE END LIST*
D10*
G36*
X33791424Y-28522244D02*
G01*
X33815693Y-28525844D01*
X33839491Y-28531805D01*
X33862591Y-28540070D01*
X33884769Y-28550560D01*
X33905813Y-28563173D01*
X33925518Y-28577787D01*
X33943697Y-28594263D01*
X33960173Y-28612442D01*
X33974787Y-28632147D01*
X33987400Y-28653191D01*
X33997890Y-28675369D01*
X34006155Y-28698469D01*
X34012116Y-28722267D01*
X34015716Y-28746536D01*
X34016920Y-28771040D01*
X34016920Y-29521040D01*
X34015716Y-29545544D01*
X34012116Y-29569813D01*
X34006155Y-29593611D01*
X33997890Y-29616711D01*
X33987400Y-29638889D01*
X33974787Y-29659933D01*
X33960173Y-29679638D01*
X33943697Y-29697817D01*
X33925518Y-29714293D01*
X33905813Y-29728907D01*
X33884769Y-29741520D01*
X33862591Y-29752010D01*
X33839491Y-29760275D01*
X33815693Y-29766236D01*
X33791424Y-29769836D01*
X33766920Y-29771040D01*
X32516920Y-29771040D01*
X32492416Y-29769836D01*
X32468147Y-29766236D01*
X32444349Y-29760275D01*
X32421249Y-29752010D01*
X32399071Y-29741520D01*
X32378027Y-29728907D01*
X32358322Y-29714293D01*
X32340143Y-29697817D01*
X32323667Y-29679638D01*
X32309053Y-29659933D01*
X32296440Y-29638889D01*
X32285950Y-29616711D01*
X32277685Y-29593611D01*
X32271724Y-29569813D01*
X32268124Y-29545544D01*
X32266920Y-29521040D01*
X32266920Y-28771040D01*
X32268124Y-28746536D01*
X32271724Y-28722267D01*
X32277685Y-28698469D01*
X32285950Y-28675369D01*
X32296440Y-28653191D01*
X32309053Y-28632147D01*
X32323667Y-28612442D01*
X32340143Y-28594263D01*
X32358322Y-28577787D01*
X32378027Y-28563173D01*
X32399071Y-28550560D01*
X32421249Y-28540070D01*
X32444349Y-28531805D01*
X32468147Y-28525844D01*
X32492416Y-28522244D01*
X32516920Y-28521040D01*
X33766920Y-28521040D01*
X33791424Y-28522244D01*
X33791424Y-28522244D01*
G37*
D11*
X33141920Y-29146040D03*
D10*
G36*
X33791424Y-31322244D02*
G01*
X33815693Y-31325844D01*
X33839491Y-31331805D01*
X33862591Y-31340070D01*
X33884769Y-31350560D01*
X33905813Y-31363173D01*
X33925518Y-31377787D01*
X33943697Y-31394263D01*
X33960173Y-31412442D01*
X33974787Y-31432147D01*
X33987400Y-31453191D01*
X33997890Y-31475369D01*
X34006155Y-31498469D01*
X34012116Y-31522267D01*
X34015716Y-31546536D01*
X34016920Y-31571040D01*
X34016920Y-32321040D01*
X34015716Y-32345544D01*
X34012116Y-32369813D01*
X34006155Y-32393611D01*
X33997890Y-32416711D01*
X33987400Y-32438889D01*
X33974787Y-32459933D01*
X33960173Y-32479638D01*
X33943697Y-32497817D01*
X33925518Y-32514293D01*
X33905813Y-32528907D01*
X33884769Y-32541520D01*
X33862591Y-32552010D01*
X33839491Y-32560275D01*
X33815693Y-32566236D01*
X33791424Y-32569836D01*
X33766920Y-32571040D01*
X32516920Y-32571040D01*
X32492416Y-32569836D01*
X32468147Y-32566236D01*
X32444349Y-32560275D01*
X32421249Y-32552010D01*
X32399071Y-32541520D01*
X32378027Y-32528907D01*
X32358322Y-32514293D01*
X32340143Y-32497817D01*
X32323667Y-32479638D01*
X32309053Y-32459933D01*
X32296440Y-32438889D01*
X32285950Y-32416711D01*
X32277685Y-32393611D01*
X32271724Y-32369813D01*
X32268124Y-32345544D01*
X32266920Y-32321040D01*
X32266920Y-31571040D01*
X32268124Y-31546536D01*
X32271724Y-31522267D01*
X32277685Y-31498469D01*
X32285950Y-31475369D01*
X32296440Y-31453191D01*
X32309053Y-31432147D01*
X32323667Y-31412442D01*
X32340143Y-31394263D01*
X32358322Y-31377787D01*
X32378027Y-31363173D01*
X32399071Y-31350560D01*
X32421249Y-31340070D01*
X32444349Y-31331805D01*
X32468147Y-31325844D01*
X32492416Y-31322244D01*
X32516920Y-31321040D01*
X33766920Y-31321040D01*
X33791424Y-31322244D01*
X33791424Y-31322244D01*
G37*
D11*
X33141920Y-31946040D03*
D10*
G36*
X82962664Y-54427084D02*
G01*
X82986933Y-54430684D01*
X83010731Y-54436645D01*
X83033831Y-54444910D01*
X83056009Y-54455400D01*
X83077053Y-54468013D01*
X83096758Y-54482627D01*
X83114937Y-54499103D01*
X83131413Y-54517282D01*
X83146027Y-54536987D01*
X83158640Y-54558031D01*
X83169130Y-54580209D01*
X83177395Y-54603309D01*
X83183356Y-54627107D01*
X83186956Y-54651376D01*
X83188160Y-54675880D01*
X83188160Y-55925880D01*
X83186956Y-55950384D01*
X83183356Y-55974653D01*
X83177395Y-55998451D01*
X83169130Y-56021551D01*
X83158640Y-56043729D01*
X83146027Y-56064773D01*
X83131413Y-56084478D01*
X83114937Y-56102657D01*
X83096758Y-56119133D01*
X83077053Y-56133747D01*
X83056009Y-56146360D01*
X83033831Y-56156850D01*
X83010731Y-56165115D01*
X82986933Y-56171076D01*
X82962664Y-56174676D01*
X82938160Y-56175880D01*
X82188160Y-56175880D01*
X82163656Y-56174676D01*
X82139387Y-56171076D01*
X82115589Y-56165115D01*
X82092489Y-56156850D01*
X82070311Y-56146360D01*
X82049267Y-56133747D01*
X82029562Y-56119133D01*
X82011383Y-56102657D01*
X81994907Y-56084478D01*
X81980293Y-56064773D01*
X81967680Y-56043729D01*
X81957190Y-56021551D01*
X81948925Y-55998451D01*
X81942964Y-55974653D01*
X81939364Y-55950384D01*
X81938160Y-55925880D01*
X81938160Y-54675880D01*
X81939364Y-54651376D01*
X81942964Y-54627107D01*
X81948925Y-54603309D01*
X81957190Y-54580209D01*
X81967680Y-54558031D01*
X81980293Y-54536987D01*
X81994907Y-54517282D01*
X82011383Y-54499103D01*
X82029562Y-54482627D01*
X82049267Y-54468013D01*
X82070311Y-54455400D01*
X82092489Y-54444910D01*
X82115589Y-54436645D01*
X82139387Y-54430684D01*
X82163656Y-54427084D01*
X82188160Y-54425880D01*
X82938160Y-54425880D01*
X82962664Y-54427084D01*
X82962664Y-54427084D01*
G37*
D11*
X82563160Y-55300880D03*
D10*
G36*
X80162664Y-54427084D02*
G01*
X80186933Y-54430684D01*
X80210731Y-54436645D01*
X80233831Y-54444910D01*
X80256009Y-54455400D01*
X80277053Y-54468013D01*
X80296758Y-54482627D01*
X80314937Y-54499103D01*
X80331413Y-54517282D01*
X80346027Y-54536987D01*
X80358640Y-54558031D01*
X80369130Y-54580209D01*
X80377395Y-54603309D01*
X80383356Y-54627107D01*
X80386956Y-54651376D01*
X80388160Y-54675880D01*
X80388160Y-55925880D01*
X80386956Y-55950384D01*
X80383356Y-55974653D01*
X80377395Y-55998451D01*
X80369130Y-56021551D01*
X80358640Y-56043729D01*
X80346027Y-56064773D01*
X80331413Y-56084478D01*
X80314937Y-56102657D01*
X80296758Y-56119133D01*
X80277053Y-56133747D01*
X80256009Y-56146360D01*
X80233831Y-56156850D01*
X80210731Y-56165115D01*
X80186933Y-56171076D01*
X80162664Y-56174676D01*
X80138160Y-56175880D01*
X79388160Y-56175880D01*
X79363656Y-56174676D01*
X79339387Y-56171076D01*
X79315589Y-56165115D01*
X79292489Y-56156850D01*
X79270311Y-56146360D01*
X79249267Y-56133747D01*
X79229562Y-56119133D01*
X79211383Y-56102657D01*
X79194907Y-56084478D01*
X79180293Y-56064773D01*
X79167680Y-56043729D01*
X79157190Y-56021551D01*
X79148925Y-55998451D01*
X79142964Y-55974653D01*
X79139364Y-55950384D01*
X79138160Y-55925880D01*
X79138160Y-54675880D01*
X79139364Y-54651376D01*
X79142964Y-54627107D01*
X79148925Y-54603309D01*
X79157190Y-54580209D01*
X79167680Y-54558031D01*
X79180293Y-54536987D01*
X79194907Y-54517282D01*
X79211383Y-54499103D01*
X79229562Y-54482627D01*
X79249267Y-54468013D01*
X79270311Y-54455400D01*
X79292489Y-54444910D01*
X79315589Y-54436645D01*
X79339387Y-54430684D01*
X79363656Y-54427084D01*
X79388160Y-54425880D01*
X80138160Y-54425880D01*
X80162664Y-54427084D01*
X80162664Y-54427084D01*
G37*
D11*
X79763160Y-55300880D03*
D10*
G36*
X63556144Y-13985204D02*
G01*
X63580413Y-13988804D01*
X63604211Y-13994765D01*
X63627311Y-14003030D01*
X63649489Y-14013520D01*
X63670533Y-14026133D01*
X63690238Y-14040747D01*
X63708417Y-14057223D01*
X63724893Y-14075402D01*
X63739507Y-14095107D01*
X63752120Y-14116151D01*
X63762610Y-14138329D01*
X63770875Y-14161429D01*
X63776836Y-14185227D01*
X63780436Y-14209496D01*
X63781640Y-14234000D01*
X63781640Y-15484000D01*
X63780436Y-15508504D01*
X63776836Y-15532773D01*
X63770875Y-15556571D01*
X63762610Y-15579671D01*
X63752120Y-15601849D01*
X63739507Y-15622893D01*
X63724893Y-15642598D01*
X63708417Y-15660777D01*
X63690238Y-15677253D01*
X63670533Y-15691867D01*
X63649489Y-15704480D01*
X63627311Y-15714970D01*
X63604211Y-15723235D01*
X63580413Y-15729196D01*
X63556144Y-15732796D01*
X63531640Y-15734000D01*
X62781640Y-15734000D01*
X62757136Y-15732796D01*
X62732867Y-15729196D01*
X62709069Y-15723235D01*
X62685969Y-15714970D01*
X62663791Y-15704480D01*
X62642747Y-15691867D01*
X62623042Y-15677253D01*
X62604863Y-15660777D01*
X62588387Y-15642598D01*
X62573773Y-15622893D01*
X62561160Y-15601849D01*
X62550670Y-15579671D01*
X62542405Y-15556571D01*
X62536444Y-15532773D01*
X62532844Y-15508504D01*
X62531640Y-15484000D01*
X62531640Y-14234000D01*
X62532844Y-14209496D01*
X62536444Y-14185227D01*
X62542405Y-14161429D01*
X62550670Y-14138329D01*
X62561160Y-14116151D01*
X62573773Y-14095107D01*
X62588387Y-14075402D01*
X62604863Y-14057223D01*
X62623042Y-14040747D01*
X62642747Y-14026133D01*
X62663791Y-14013520D01*
X62685969Y-14003030D01*
X62709069Y-13994765D01*
X62732867Y-13988804D01*
X62757136Y-13985204D01*
X62781640Y-13984000D01*
X63531640Y-13984000D01*
X63556144Y-13985204D01*
X63556144Y-13985204D01*
G37*
D11*
X63156640Y-14859000D03*
D10*
G36*
X66356144Y-13985204D02*
G01*
X66380413Y-13988804D01*
X66404211Y-13994765D01*
X66427311Y-14003030D01*
X66449489Y-14013520D01*
X66470533Y-14026133D01*
X66490238Y-14040747D01*
X66508417Y-14057223D01*
X66524893Y-14075402D01*
X66539507Y-14095107D01*
X66552120Y-14116151D01*
X66562610Y-14138329D01*
X66570875Y-14161429D01*
X66576836Y-14185227D01*
X66580436Y-14209496D01*
X66581640Y-14234000D01*
X66581640Y-15484000D01*
X66580436Y-15508504D01*
X66576836Y-15532773D01*
X66570875Y-15556571D01*
X66562610Y-15579671D01*
X66552120Y-15601849D01*
X66539507Y-15622893D01*
X66524893Y-15642598D01*
X66508417Y-15660777D01*
X66490238Y-15677253D01*
X66470533Y-15691867D01*
X66449489Y-15704480D01*
X66427311Y-15714970D01*
X66404211Y-15723235D01*
X66380413Y-15729196D01*
X66356144Y-15732796D01*
X66331640Y-15734000D01*
X65581640Y-15734000D01*
X65557136Y-15732796D01*
X65532867Y-15729196D01*
X65509069Y-15723235D01*
X65485969Y-15714970D01*
X65463791Y-15704480D01*
X65442747Y-15691867D01*
X65423042Y-15677253D01*
X65404863Y-15660777D01*
X65388387Y-15642598D01*
X65373773Y-15622893D01*
X65361160Y-15601849D01*
X65350670Y-15579671D01*
X65342405Y-15556571D01*
X65336444Y-15532773D01*
X65332844Y-15508504D01*
X65331640Y-15484000D01*
X65331640Y-14234000D01*
X65332844Y-14209496D01*
X65336444Y-14185227D01*
X65342405Y-14161429D01*
X65350670Y-14138329D01*
X65361160Y-14116151D01*
X65373773Y-14095107D01*
X65388387Y-14075402D01*
X65404863Y-14057223D01*
X65423042Y-14040747D01*
X65442747Y-14026133D01*
X65463791Y-14013520D01*
X65485969Y-14003030D01*
X65509069Y-13994765D01*
X65532867Y-13988804D01*
X65557136Y-13985204D01*
X65581640Y-13984000D01*
X66331640Y-13984000D01*
X66356144Y-13985204D01*
X66356144Y-13985204D01*
G37*
D11*
X65956640Y-14859000D03*
D10*
G36*
X63535824Y-18729924D02*
G01*
X63560093Y-18733524D01*
X63583891Y-18739485D01*
X63606991Y-18747750D01*
X63629169Y-18758240D01*
X63650213Y-18770853D01*
X63669918Y-18785467D01*
X63688097Y-18801943D01*
X63704573Y-18820122D01*
X63719187Y-18839827D01*
X63731800Y-18860871D01*
X63742290Y-18883049D01*
X63750555Y-18906149D01*
X63756516Y-18929947D01*
X63760116Y-18954216D01*
X63761320Y-18978720D01*
X63761320Y-20228720D01*
X63760116Y-20253224D01*
X63756516Y-20277493D01*
X63750555Y-20301291D01*
X63742290Y-20324391D01*
X63731800Y-20346569D01*
X63719187Y-20367613D01*
X63704573Y-20387318D01*
X63688097Y-20405497D01*
X63669918Y-20421973D01*
X63650213Y-20436587D01*
X63629169Y-20449200D01*
X63606991Y-20459690D01*
X63583891Y-20467955D01*
X63560093Y-20473916D01*
X63535824Y-20477516D01*
X63511320Y-20478720D01*
X62761320Y-20478720D01*
X62736816Y-20477516D01*
X62712547Y-20473916D01*
X62688749Y-20467955D01*
X62665649Y-20459690D01*
X62643471Y-20449200D01*
X62622427Y-20436587D01*
X62602722Y-20421973D01*
X62584543Y-20405497D01*
X62568067Y-20387318D01*
X62553453Y-20367613D01*
X62540840Y-20346569D01*
X62530350Y-20324391D01*
X62522085Y-20301291D01*
X62516124Y-20277493D01*
X62512524Y-20253224D01*
X62511320Y-20228720D01*
X62511320Y-18978720D01*
X62512524Y-18954216D01*
X62516124Y-18929947D01*
X62522085Y-18906149D01*
X62530350Y-18883049D01*
X62540840Y-18860871D01*
X62553453Y-18839827D01*
X62568067Y-18820122D01*
X62584543Y-18801943D01*
X62602722Y-18785467D01*
X62622427Y-18770853D01*
X62643471Y-18758240D01*
X62665649Y-18747750D01*
X62688749Y-18739485D01*
X62712547Y-18733524D01*
X62736816Y-18729924D01*
X62761320Y-18728720D01*
X63511320Y-18728720D01*
X63535824Y-18729924D01*
X63535824Y-18729924D01*
G37*
D11*
X63136320Y-19603720D03*
D10*
G36*
X66335824Y-18729924D02*
G01*
X66360093Y-18733524D01*
X66383891Y-18739485D01*
X66406991Y-18747750D01*
X66429169Y-18758240D01*
X66450213Y-18770853D01*
X66469918Y-18785467D01*
X66488097Y-18801943D01*
X66504573Y-18820122D01*
X66519187Y-18839827D01*
X66531800Y-18860871D01*
X66542290Y-18883049D01*
X66550555Y-18906149D01*
X66556516Y-18929947D01*
X66560116Y-18954216D01*
X66561320Y-18978720D01*
X66561320Y-20228720D01*
X66560116Y-20253224D01*
X66556516Y-20277493D01*
X66550555Y-20301291D01*
X66542290Y-20324391D01*
X66531800Y-20346569D01*
X66519187Y-20367613D01*
X66504573Y-20387318D01*
X66488097Y-20405497D01*
X66469918Y-20421973D01*
X66450213Y-20436587D01*
X66429169Y-20449200D01*
X66406991Y-20459690D01*
X66383891Y-20467955D01*
X66360093Y-20473916D01*
X66335824Y-20477516D01*
X66311320Y-20478720D01*
X65561320Y-20478720D01*
X65536816Y-20477516D01*
X65512547Y-20473916D01*
X65488749Y-20467955D01*
X65465649Y-20459690D01*
X65443471Y-20449200D01*
X65422427Y-20436587D01*
X65402722Y-20421973D01*
X65384543Y-20405497D01*
X65368067Y-20387318D01*
X65353453Y-20367613D01*
X65340840Y-20346569D01*
X65330350Y-20324391D01*
X65322085Y-20301291D01*
X65316124Y-20277493D01*
X65312524Y-20253224D01*
X65311320Y-20228720D01*
X65311320Y-18978720D01*
X65312524Y-18954216D01*
X65316124Y-18929947D01*
X65322085Y-18906149D01*
X65330350Y-18883049D01*
X65340840Y-18860871D01*
X65353453Y-18839827D01*
X65368067Y-18820122D01*
X65384543Y-18801943D01*
X65402722Y-18785467D01*
X65422427Y-18770853D01*
X65443471Y-18758240D01*
X65465649Y-18747750D01*
X65488749Y-18739485D01*
X65512547Y-18733524D01*
X65536816Y-18729924D01*
X65561320Y-18728720D01*
X66311320Y-18728720D01*
X66335824Y-18729924D01*
X66335824Y-18729924D01*
G37*
D11*
X65936320Y-19603720D03*
D10*
G36*
X56885104Y-52494764D02*
G01*
X56909373Y-52498364D01*
X56933171Y-52504325D01*
X56956271Y-52512590D01*
X56978449Y-52523080D01*
X56999493Y-52535693D01*
X57019198Y-52550307D01*
X57037377Y-52566783D01*
X57053853Y-52584962D01*
X57068467Y-52604667D01*
X57081080Y-52625711D01*
X57091570Y-52647889D01*
X57099835Y-52670989D01*
X57105796Y-52694787D01*
X57109396Y-52719056D01*
X57110600Y-52743560D01*
X57110600Y-53493560D01*
X57109396Y-53518064D01*
X57105796Y-53542333D01*
X57099835Y-53566131D01*
X57091570Y-53589231D01*
X57081080Y-53611409D01*
X57068467Y-53632453D01*
X57053853Y-53652158D01*
X57037377Y-53670337D01*
X57019198Y-53686813D01*
X56999493Y-53701427D01*
X56978449Y-53714040D01*
X56956271Y-53724530D01*
X56933171Y-53732795D01*
X56909373Y-53738756D01*
X56885104Y-53742356D01*
X56860600Y-53743560D01*
X55610600Y-53743560D01*
X55586096Y-53742356D01*
X55561827Y-53738756D01*
X55538029Y-53732795D01*
X55514929Y-53724530D01*
X55492751Y-53714040D01*
X55471707Y-53701427D01*
X55452002Y-53686813D01*
X55433823Y-53670337D01*
X55417347Y-53652158D01*
X55402733Y-53632453D01*
X55390120Y-53611409D01*
X55379630Y-53589231D01*
X55371365Y-53566131D01*
X55365404Y-53542333D01*
X55361804Y-53518064D01*
X55360600Y-53493560D01*
X55360600Y-52743560D01*
X55361804Y-52719056D01*
X55365404Y-52694787D01*
X55371365Y-52670989D01*
X55379630Y-52647889D01*
X55390120Y-52625711D01*
X55402733Y-52604667D01*
X55417347Y-52584962D01*
X55433823Y-52566783D01*
X55452002Y-52550307D01*
X55471707Y-52535693D01*
X55492751Y-52523080D01*
X55514929Y-52512590D01*
X55538029Y-52504325D01*
X55561827Y-52498364D01*
X55586096Y-52494764D01*
X55610600Y-52493560D01*
X56860600Y-52493560D01*
X56885104Y-52494764D01*
X56885104Y-52494764D01*
G37*
D11*
X56235600Y-53118560D03*
D10*
G36*
X56885104Y-55294764D02*
G01*
X56909373Y-55298364D01*
X56933171Y-55304325D01*
X56956271Y-55312590D01*
X56978449Y-55323080D01*
X56999493Y-55335693D01*
X57019198Y-55350307D01*
X57037377Y-55366783D01*
X57053853Y-55384962D01*
X57068467Y-55404667D01*
X57081080Y-55425711D01*
X57091570Y-55447889D01*
X57099835Y-55470989D01*
X57105796Y-55494787D01*
X57109396Y-55519056D01*
X57110600Y-55543560D01*
X57110600Y-56293560D01*
X57109396Y-56318064D01*
X57105796Y-56342333D01*
X57099835Y-56366131D01*
X57091570Y-56389231D01*
X57081080Y-56411409D01*
X57068467Y-56432453D01*
X57053853Y-56452158D01*
X57037377Y-56470337D01*
X57019198Y-56486813D01*
X56999493Y-56501427D01*
X56978449Y-56514040D01*
X56956271Y-56524530D01*
X56933171Y-56532795D01*
X56909373Y-56538756D01*
X56885104Y-56542356D01*
X56860600Y-56543560D01*
X55610600Y-56543560D01*
X55586096Y-56542356D01*
X55561827Y-56538756D01*
X55538029Y-56532795D01*
X55514929Y-56524530D01*
X55492751Y-56514040D01*
X55471707Y-56501427D01*
X55452002Y-56486813D01*
X55433823Y-56470337D01*
X55417347Y-56452158D01*
X55402733Y-56432453D01*
X55390120Y-56411409D01*
X55379630Y-56389231D01*
X55371365Y-56366131D01*
X55365404Y-56342333D01*
X55361804Y-56318064D01*
X55360600Y-56293560D01*
X55360600Y-55543560D01*
X55361804Y-55519056D01*
X55365404Y-55494787D01*
X55371365Y-55470989D01*
X55379630Y-55447889D01*
X55390120Y-55425711D01*
X55402733Y-55404667D01*
X55417347Y-55384962D01*
X55433823Y-55366783D01*
X55452002Y-55350307D01*
X55471707Y-55335693D01*
X55492751Y-55323080D01*
X55514929Y-55312590D01*
X55538029Y-55304325D01*
X55561827Y-55298364D01*
X55586096Y-55294764D01*
X55610600Y-55293560D01*
X56860600Y-55293560D01*
X56885104Y-55294764D01*
X56885104Y-55294764D01*
G37*
D11*
X56235600Y-55918560D03*
D10*
G36*
X63535824Y-21656004D02*
G01*
X63560093Y-21659604D01*
X63583891Y-21665565D01*
X63606991Y-21673830D01*
X63629169Y-21684320D01*
X63650213Y-21696933D01*
X63669918Y-21711547D01*
X63688097Y-21728023D01*
X63704573Y-21746202D01*
X63719187Y-21765907D01*
X63731800Y-21786951D01*
X63742290Y-21809129D01*
X63750555Y-21832229D01*
X63756516Y-21856027D01*
X63760116Y-21880296D01*
X63761320Y-21904800D01*
X63761320Y-23154800D01*
X63760116Y-23179304D01*
X63756516Y-23203573D01*
X63750555Y-23227371D01*
X63742290Y-23250471D01*
X63731800Y-23272649D01*
X63719187Y-23293693D01*
X63704573Y-23313398D01*
X63688097Y-23331577D01*
X63669918Y-23348053D01*
X63650213Y-23362667D01*
X63629169Y-23375280D01*
X63606991Y-23385770D01*
X63583891Y-23394035D01*
X63560093Y-23399996D01*
X63535824Y-23403596D01*
X63511320Y-23404800D01*
X62761320Y-23404800D01*
X62736816Y-23403596D01*
X62712547Y-23399996D01*
X62688749Y-23394035D01*
X62665649Y-23385770D01*
X62643471Y-23375280D01*
X62622427Y-23362667D01*
X62602722Y-23348053D01*
X62584543Y-23331577D01*
X62568067Y-23313398D01*
X62553453Y-23293693D01*
X62540840Y-23272649D01*
X62530350Y-23250471D01*
X62522085Y-23227371D01*
X62516124Y-23203573D01*
X62512524Y-23179304D01*
X62511320Y-23154800D01*
X62511320Y-21904800D01*
X62512524Y-21880296D01*
X62516124Y-21856027D01*
X62522085Y-21832229D01*
X62530350Y-21809129D01*
X62540840Y-21786951D01*
X62553453Y-21765907D01*
X62568067Y-21746202D01*
X62584543Y-21728023D01*
X62602722Y-21711547D01*
X62622427Y-21696933D01*
X62643471Y-21684320D01*
X62665649Y-21673830D01*
X62688749Y-21665565D01*
X62712547Y-21659604D01*
X62736816Y-21656004D01*
X62761320Y-21654800D01*
X63511320Y-21654800D01*
X63535824Y-21656004D01*
X63535824Y-21656004D01*
G37*
D11*
X63136320Y-22529800D03*
D10*
G36*
X66335824Y-21656004D02*
G01*
X66360093Y-21659604D01*
X66383891Y-21665565D01*
X66406991Y-21673830D01*
X66429169Y-21684320D01*
X66450213Y-21696933D01*
X66469918Y-21711547D01*
X66488097Y-21728023D01*
X66504573Y-21746202D01*
X66519187Y-21765907D01*
X66531800Y-21786951D01*
X66542290Y-21809129D01*
X66550555Y-21832229D01*
X66556516Y-21856027D01*
X66560116Y-21880296D01*
X66561320Y-21904800D01*
X66561320Y-23154800D01*
X66560116Y-23179304D01*
X66556516Y-23203573D01*
X66550555Y-23227371D01*
X66542290Y-23250471D01*
X66531800Y-23272649D01*
X66519187Y-23293693D01*
X66504573Y-23313398D01*
X66488097Y-23331577D01*
X66469918Y-23348053D01*
X66450213Y-23362667D01*
X66429169Y-23375280D01*
X66406991Y-23385770D01*
X66383891Y-23394035D01*
X66360093Y-23399996D01*
X66335824Y-23403596D01*
X66311320Y-23404800D01*
X65561320Y-23404800D01*
X65536816Y-23403596D01*
X65512547Y-23399996D01*
X65488749Y-23394035D01*
X65465649Y-23385770D01*
X65443471Y-23375280D01*
X65422427Y-23362667D01*
X65402722Y-23348053D01*
X65384543Y-23331577D01*
X65368067Y-23313398D01*
X65353453Y-23293693D01*
X65340840Y-23272649D01*
X65330350Y-23250471D01*
X65322085Y-23227371D01*
X65316124Y-23203573D01*
X65312524Y-23179304D01*
X65311320Y-23154800D01*
X65311320Y-21904800D01*
X65312524Y-21880296D01*
X65316124Y-21856027D01*
X65322085Y-21832229D01*
X65330350Y-21809129D01*
X65340840Y-21786951D01*
X65353453Y-21765907D01*
X65368067Y-21746202D01*
X65384543Y-21728023D01*
X65402722Y-21711547D01*
X65422427Y-21696933D01*
X65443471Y-21684320D01*
X65465649Y-21673830D01*
X65488749Y-21665565D01*
X65512547Y-21659604D01*
X65536816Y-21656004D01*
X65561320Y-21654800D01*
X66311320Y-21654800D01*
X66335824Y-21656004D01*
X66335824Y-21656004D01*
G37*
D11*
X65936320Y-22529800D03*
D10*
G36*
X66335824Y-24353484D02*
G01*
X66360093Y-24357084D01*
X66383891Y-24363045D01*
X66406991Y-24371310D01*
X66429169Y-24381800D01*
X66450213Y-24394413D01*
X66469918Y-24409027D01*
X66488097Y-24425503D01*
X66504573Y-24443682D01*
X66519187Y-24463387D01*
X66531800Y-24484431D01*
X66542290Y-24506609D01*
X66550555Y-24529709D01*
X66556516Y-24553507D01*
X66560116Y-24577776D01*
X66561320Y-24602280D01*
X66561320Y-25852280D01*
X66560116Y-25876784D01*
X66556516Y-25901053D01*
X66550555Y-25924851D01*
X66542290Y-25947951D01*
X66531800Y-25970129D01*
X66519187Y-25991173D01*
X66504573Y-26010878D01*
X66488097Y-26029057D01*
X66469918Y-26045533D01*
X66450213Y-26060147D01*
X66429169Y-26072760D01*
X66406991Y-26083250D01*
X66383891Y-26091515D01*
X66360093Y-26097476D01*
X66335824Y-26101076D01*
X66311320Y-26102280D01*
X65561320Y-26102280D01*
X65536816Y-26101076D01*
X65512547Y-26097476D01*
X65488749Y-26091515D01*
X65465649Y-26083250D01*
X65443471Y-26072760D01*
X65422427Y-26060147D01*
X65402722Y-26045533D01*
X65384543Y-26029057D01*
X65368067Y-26010878D01*
X65353453Y-25991173D01*
X65340840Y-25970129D01*
X65330350Y-25947951D01*
X65322085Y-25924851D01*
X65316124Y-25901053D01*
X65312524Y-25876784D01*
X65311320Y-25852280D01*
X65311320Y-24602280D01*
X65312524Y-24577776D01*
X65316124Y-24553507D01*
X65322085Y-24529709D01*
X65330350Y-24506609D01*
X65340840Y-24484431D01*
X65353453Y-24463387D01*
X65368067Y-24443682D01*
X65384543Y-24425503D01*
X65402722Y-24409027D01*
X65422427Y-24394413D01*
X65443471Y-24381800D01*
X65465649Y-24371310D01*
X65488749Y-24363045D01*
X65512547Y-24357084D01*
X65536816Y-24353484D01*
X65561320Y-24352280D01*
X66311320Y-24352280D01*
X66335824Y-24353484D01*
X66335824Y-24353484D01*
G37*
D11*
X65936320Y-25227280D03*
D10*
G36*
X63535824Y-24353484D02*
G01*
X63560093Y-24357084D01*
X63583891Y-24363045D01*
X63606991Y-24371310D01*
X63629169Y-24381800D01*
X63650213Y-24394413D01*
X63669918Y-24409027D01*
X63688097Y-24425503D01*
X63704573Y-24443682D01*
X63719187Y-24463387D01*
X63731800Y-24484431D01*
X63742290Y-24506609D01*
X63750555Y-24529709D01*
X63756516Y-24553507D01*
X63760116Y-24577776D01*
X63761320Y-24602280D01*
X63761320Y-25852280D01*
X63760116Y-25876784D01*
X63756516Y-25901053D01*
X63750555Y-25924851D01*
X63742290Y-25947951D01*
X63731800Y-25970129D01*
X63719187Y-25991173D01*
X63704573Y-26010878D01*
X63688097Y-26029057D01*
X63669918Y-26045533D01*
X63650213Y-26060147D01*
X63629169Y-26072760D01*
X63606991Y-26083250D01*
X63583891Y-26091515D01*
X63560093Y-26097476D01*
X63535824Y-26101076D01*
X63511320Y-26102280D01*
X62761320Y-26102280D01*
X62736816Y-26101076D01*
X62712547Y-26097476D01*
X62688749Y-26091515D01*
X62665649Y-26083250D01*
X62643471Y-26072760D01*
X62622427Y-26060147D01*
X62602722Y-26045533D01*
X62584543Y-26029057D01*
X62568067Y-26010878D01*
X62553453Y-25991173D01*
X62540840Y-25970129D01*
X62530350Y-25947951D01*
X62522085Y-25924851D01*
X62516124Y-25901053D01*
X62512524Y-25876784D01*
X62511320Y-25852280D01*
X62511320Y-24602280D01*
X62512524Y-24577776D01*
X62516124Y-24553507D01*
X62522085Y-24529709D01*
X62530350Y-24506609D01*
X62540840Y-24484431D01*
X62553453Y-24463387D01*
X62568067Y-24443682D01*
X62584543Y-24425503D01*
X62602722Y-24409027D01*
X62622427Y-24394413D01*
X62643471Y-24381800D01*
X62665649Y-24371310D01*
X62688749Y-24363045D01*
X62712547Y-24357084D01*
X62736816Y-24353484D01*
X62761320Y-24352280D01*
X63511320Y-24352280D01*
X63535824Y-24353484D01*
X63535824Y-24353484D01*
G37*
D11*
X63136320Y-25227280D03*
D10*
G36*
X63535824Y-27096684D02*
G01*
X63560093Y-27100284D01*
X63583891Y-27106245D01*
X63606991Y-27114510D01*
X63629169Y-27125000D01*
X63650213Y-27137613D01*
X63669918Y-27152227D01*
X63688097Y-27168703D01*
X63704573Y-27186882D01*
X63719187Y-27206587D01*
X63731800Y-27227631D01*
X63742290Y-27249809D01*
X63750555Y-27272909D01*
X63756516Y-27296707D01*
X63760116Y-27320976D01*
X63761320Y-27345480D01*
X63761320Y-28595480D01*
X63760116Y-28619984D01*
X63756516Y-28644253D01*
X63750555Y-28668051D01*
X63742290Y-28691151D01*
X63731800Y-28713329D01*
X63719187Y-28734373D01*
X63704573Y-28754078D01*
X63688097Y-28772257D01*
X63669918Y-28788733D01*
X63650213Y-28803347D01*
X63629169Y-28815960D01*
X63606991Y-28826450D01*
X63583891Y-28834715D01*
X63560093Y-28840676D01*
X63535824Y-28844276D01*
X63511320Y-28845480D01*
X62761320Y-28845480D01*
X62736816Y-28844276D01*
X62712547Y-28840676D01*
X62688749Y-28834715D01*
X62665649Y-28826450D01*
X62643471Y-28815960D01*
X62622427Y-28803347D01*
X62602722Y-28788733D01*
X62584543Y-28772257D01*
X62568067Y-28754078D01*
X62553453Y-28734373D01*
X62540840Y-28713329D01*
X62530350Y-28691151D01*
X62522085Y-28668051D01*
X62516124Y-28644253D01*
X62512524Y-28619984D01*
X62511320Y-28595480D01*
X62511320Y-27345480D01*
X62512524Y-27320976D01*
X62516124Y-27296707D01*
X62522085Y-27272909D01*
X62530350Y-27249809D01*
X62540840Y-27227631D01*
X62553453Y-27206587D01*
X62568067Y-27186882D01*
X62584543Y-27168703D01*
X62602722Y-27152227D01*
X62622427Y-27137613D01*
X62643471Y-27125000D01*
X62665649Y-27114510D01*
X62688749Y-27106245D01*
X62712547Y-27100284D01*
X62736816Y-27096684D01*
X62761320Y-27095480D01*
X63511320Y-27095480D01*
X63535824Y-27096684D01*
X63535824Y-27096684D01*
G37*
D11*
X63136320Y-27970480D03*
D10*
G36*
X66335824Y-27096684D02*
G01*
X66360093Y-27100284D01*
X66383891Y-27106245D01*
X66406991Y-27114510D01*
X66429169Y-27125000D01*
X66450213Y-27137613D01*
X66469918Y-27152227D01*
X66488097Y-27168703D01*
X66504573Y-27186882D01*
X66519187Y-27206587D01*
X66531800Y-27227631D01*
X66542290Y-27249809D01*
X66550555Y-27272909D01*
X66556516Y-27296707D01*
X66560116Y-27320976D01*
X66561320Y-27345480D01*
X66561320Y-28595480D01*
X66560116Y-28619984D01*
X66556516Y-28644253D01*
X66550555Y-28668051D01*
X66542290Y-28691151D01*
X66531800Y-28713329D01*
X66519187Y-28734373D01*
X66504573Y-28754078D01*
X66488097Y-28772257D01*
X66469918Y-28788733D01*
X66450213Y-28803347D01*
X66429169Y-28815960D01*
X66406991Y-28826450D01*
X66383891Y-28834715D01*
X66360093Y-28840676D01*
X66335824Y-28844276D01*
X66311320Y-28845480D01*
X65561320Y-28845480D01*
X65536816Y-28844276D01*
X65512547Y-28840676D01*
X65488749Y-28834715D01*
X65465649Y-28826450D01*
X65443471Y-28815960D01*
X65422427Y-28803347D01*
X65402722Y-28788733D01*
X65384543Y-28772257D01*
X65368067Y-28754078D01*
X65353453Y-28734373D01*
X65340840Y-28713329D01*
X65330350Y-28691151D01*
X65322085Y-28668051D01*
X65316124Y-28644253D01*
X65312524Y-28619984D01*
X65311320Y-28595480D01*
X65311320Y-27345480D01*
X65312524Y-27320976D01*
X65316124Y-27296707D01*
X65322085Y-27272909D01*
X65330350Y-27249809D01*
X65340840Y-27227631D01*
X65353453Y-27206587D01*
X65368067Y-27186882D01*
X65384543Y-27168703D01*
X65402722Y-27152227D01*
X65422427Y-27137613D01*
X65443471Y-27125000D01*
X65465649Y-27114510D01*
X65488749Y-27106245D01*
X65512547Y-27100284D01*
X65536816Y-27096684D01*
X65561320Y-27095480D01*
X66311320Y-27095480D01*
X66335824Y-27096684D01*
X66335824Y-27096684D01*
G37*
D11*
X65936320Y-27970480D03*
D10*
G36*
X66335824Y-29753524D02*
G01*
X66360093Y-29757124D01*
X66383891Y-29763085D01*
X66406991Y-29771350D01*
X66429169Y-29781840D01*
X66450213Y-29794453D01*
X66469918Y-29809067D01*
X66488097Y-29825543D01*
X66504573Y-29843722D01*
X66519187Y-29863427D01*
X66531800Y-29884471D01*
X66542290Y-29906649D01*
X66550555Y-29929749D01*
X66556516Y-29953547D01*
X66560116Y-29977816D01*
X66561320Y-30002320D01*
X66561320Y-31252320D01*
X66560116Y-31276824D01*
X66556516Y-31301093D01*
X66550555Y-31324891D01*
X66542290Y-31347991D01*
X66531800Y-31370169D01*
X66519187Y-31391213D01*
X66504573Y-31410918D01*
X66488097Y-31429097D01*
X66469918Y-31445573D01*
X66450213Y-31460187D01*
X66429169Y-31472800D01*
X66406991Y-31483290D01*
X66383891Y-31491555D01*
X66360093Y-31497516D01*
X66335824Y-31501116D01*
X66311320Y-31502320D01*
X65561320Y-31502320D01*
X65536816Y-31501116D01*
X65512547Y-31497516D01*
X65488749Y-31491555D01*
X65465649Y-31483290D01*
X65443471Y-31472800D01*
X65422427Y-31460187D01*
X65402722Y-31445573D01*
X65384543Y-31429097D01*
X65368067Y-31410918D01*
X65353453Y-31391213D01*
X65340840Y-31370169D01*
X65330350Y-31347991D01*
X65322085Y-31324891D01*
X65316124Y-31301093D01*
X65312524Y-31276824D01*
X65311320Y-31252320D01*
X65311320Y-30002320D01*
X65312524Y-29977816D01*
X65316124Y-29953547D01*
X65322085Y-29929749D01*
X65330350Y-29906649D01*
X65340840Y-29884471D01*
X65353453Y-29863427D01*
X65368067Y-29843722D01*
X65384543Y-29825543D01*
X65402722Y-29809067D01*
X65422427Y-29794453D01*
X65443471Y-29781840D01*
X65465649Y-29771350D01*
X65488749Y-29763085D01*
X65512547Y-29757124D01*
X65536816Y-29753524D01*
X65561320Y-29752320D01*
X66311320Y-29752320D01*
X66335824Y-29753524D01*
X66335824Y-29753524D01*
G37*
D11*
X65936320Y-30627320D03*
D10*
G36*
X63535824Y-29753524D02*
G01*
X63560093Y-29757124D01*
X63583891Y-29763085D01*
X63606991Y-29771350D01*
X63629169Y-29781840D01*
X63650213Y-29794453D01*
X63669918Y-29809067D01*
X63688097Y-29825543D01*
X63704573Y-29843722D01*
X63719187Y-29863427D01*
X63731800Y-29884471D01*
X63742290Y-29906649D01*
X63750555Y-29929749D01*
X63756516Y-29953547D01*
X63760116Y-29977816D01*
X63761320Y-30002320D01*
X63761320Y-31252320D01*
X63760116Y-31276824D01*
X63756516Y-31301093D01*
X63750555Y-31324891D01*
X63742290Y-31347991D01*
X63731800Y-31370169D01*
X63719187Y-31391213D01*
X63704573Y-31410918D01*
X63688097Y-31429097D01*
X63669918Y-31445573D01*
X63650213Y-31460187D01*
X63629169Y-31472800D01*
X63606991Y-31483290D01*
X63583891Y-31491555D01*
X63560093Y-31497516D01*
X63535824Y-31501116D01*
X63511320Y-31502320D01*
X62761320Y-31502320D01*
X62736816Y-31501116D01*
X62712547Y-31497516D01*
X62688749Y-31491555D01*
X62665649Y-31483290D01*
X62643471Y-31472800D01*
X62622427Y-31460187D01*
X62602722Y-31445573D01*
X62584543Y-31429097D01*
X62568067Y-31410918D01*
X62553453Y-31391213D01*
X62540840Y-31370169D01*
X62530350Y-31347991D01*
X62522085Y-31324891D01*
X62516124Y-31301093D01*
X62512524Y-31276824D01*
X62511320Y-31252320D01*
X62511320Y-30002320D01*
X62512524Y-29977816D01*
X62516124Y-29953547D01*
X62522085Y-29929749D01*
X62530350Y-29906649D01*
X62540840Y-29884471D01*
X62553453Y-29863427D01*
X62568067Y-29843722D01*
X62584543Y-29825543D01*
X62602722Y-29809067D01*
X62622427Y-29794453D01*
X62643471Y-29781840D01*
X62665649Y-29771350D01*
X62688749Y-29763085D01*
X62712547Y-29757124D01*
X62736816Y-29753524D01*
X62761320Y-29752320D01*
X63511320Y-29752320D01*
X63535824Y-29753524D01*
X63535824Y-29753524D01*
G37*
D11*
X63136320Y-30627320D03*
D10*
G36*
X38748424Y-19888164D02*
G01*
X38772693Y-19891764D01*
X38796491Y-19897725D01*
X38819591Y-19905990D01*
X38841769Y-19916480D01*
X38862813Y-19929093D01*
X38882518Y-19943707D01*
X38900697Y-19960183D01*
X38917173Y-19978362D01*
X38931787Y-19998067D01*
X38944400Y-20019111D01*
X38954890Y-20041289D01*
X38963155Y-20064389D01*
X38969116Y-20088187D01*
X38972716Y-20112456D01*
X38973920Y-20136960D01*
X38973920Y-21386960D01*
X38972716Y-21411464D01*
X38969116Y-21435733D01*
X38963155Y-21459531D01*
X38954890Y-21482631D01*
X38944400Y-21504809D01*
X38931787Y-21525853D01*
X38917173Y-21545558D01*
X38900697Y-21563737D01*
X38882518Y-21580213D01*
X38862813Y-21594827D01*
X38841769Y-21607440D01*
X38819591Y-21617930D01*
X38796491Y-21626195D01*
X38772693Y-21632156D01*
X38748424Y-21635756D01*
X38723920Y-21636960D01*
X37973920Y-21636960D01*
X37949416Y-21635756D01*
X37925147Y-21632156D01*
X37901349Y-21626195D01*
X37878249Y-21617930D01*
X37856071Y-21607440D01*
X37835027Y-21594827D01*
X37815322Y-21580213D01*
X37797143Y-21563737D01*
X37780667Y-21545558D01*
X37766053Y-21525853D01*
X37753440Y-21504809D01*
X37742950Y-21482631D01*
X37734685Y-21459531D01*
X37728724Y-21435733D01*
X37725124Y-21411464D01*
X37723920Y-21386960D01*
X37723920Y-20136960D01*
X37725124Y-20112456D01*
X37728724Y-20088187D01*
X37734685Y-20064389D01*
X37742950Y-20041289D01*
X37753440Y-20019111D01*
X37766053Y-19998067D01*
X37780667Y-19978362D01*
X37797143Y-19960183D01*
X37815322Y-19943707D01*
X37835027Y-19929093D01*
X37856071Y-19916480D01*
X37878249Y-19905990D01*
X37901349Y-19897725D01*
X37925147Y-19891764D01*
X37949416Y-19888164D01*
X37973920Y-19886960D01*
X38723920Y-19886960D01*
X38748424Y-19888164D01*
X38748424Y-19888164D01*
G37*
D11*
X38348920Y-20761960D03*
D10*
G36*
X41548424Y-19888164D02*
G01*
X41572693Y-19891764D01*
X41596491Y-19897725D01*
X41619591Y-19905990D01*
X41641769Y-19916480D01*
X41662813Y-19929093D01*
X41682518Y-19943707D01*
X41700697Y-19960183D01*
X41717173Y-19978362D01*
X41731787Y-19998067D01*
X41744400Y-20019111D01*
X41754890Y-20041289D01*
X41763155Y-20064389D01*
X41769116Y-20088187D01*
X41772716Y-20112456D01*
X41773920Y-20136960D01*
X41773920Y-21386960D01*
X41772716Y-21411464D01*
X41769116Y-21435733D01*
X41763155Y-21459531D01*
X41754890Y-21482631D01*
X41744400Y-21504809D01*
X41731787Y-21525853D01*
X41717173Y-21545558D01*
X41700697Y-21563737D01*
X41682518Y-21580213D01*
X41662813Y-21594827D01*
X41641769Y-21607440D01*
X41619591Y-21617930D01*
X41596491Y-21626195D01*
X41572693Y-21632156D01*
X41548424Y-21635756D01*
X41523920Y-21636960D01*
X40773920Y-21636960D01*
X40749416Y-21635756D01*
X40725147Y-21632156D01*
X40701349Y-21626195D01*
X40678249Y-21617930D01*
X40656071Y-21607440D01*
X40635027Y-21594827D01*
X40615322Y-21580213D01*
X40597143Y-21563737D01*
X40580667Y-21545558D01*
X40566053Y-21525853D01*
X40553440Y-21504809D01*
X40542950Y-21482631D01*
X40534685Y-21459531D01*
X40528724Y-21435733D01*
X40525124Y-21411464D01*
X40523920Y-21386960D01*
X40523920Y-20136960D01*
X40525124Y-20112456D01*
X40528724Y-20088187D01*
X40534685Y-20064389D01*
X40542950Y-20041289D01*
X40553440Y-20019111D01*
X40566053Y-19998067D01*
X40580667Y-19978362D01*
X40597143Y-19960183D01*
X40615322Y-19943707D01*
X40635027Y-19929093D01*
X40656071Y-19916480D01*
X40678249Y-19905990D01*
X40701349Y-19897725D01*
X40725147Y-19891764D01*
X40749416Y-19888164D01*
X40773920Y-19886960D01*
X41523920Y-19886960D01*
X41548424Y-19888164D01*
X41548424Y-19888164D01*
G37*
D11*
X41148920Y-20761960D03*
D10*
G36*
X95066384Y-34606924D02*
G01*
X95090653Y-34610524D01*
X95114451Y-34616485D01*
X95137551Y-34624750D01*
X95159729Y-34635240D01*
X95180773Y-34647853D01*
X95200478Y-34662467D01*
X95218657Y-34678943D01*
X95235133Y-34697122D01*
X95249747Y-34716827D01*
X95262360Y-34737871D01*
X95272850Y-34760049D01*
X95281115Y-34783149D01*
X95287076Y-34806947D01*
X95290676Y-34831216D01*
X95291880Y-34855720D01*
X95291880Y-35605720D01*
X95290676Y-35630224D01*
X95287076Y-35654493D01*
X95281115Y-35678291D01*
X95272850Y-35701391D01*
X95262360Y-35723569D01*
X95249747Y-35744613D01*
X95235133Y-35764318D01*
X95218657Y-35782497D01*
X95200478Y-35798973D01*
X95180773Y-35813587D01*
X95159729Y-35826200D01*
X95137551Y-35836690D01*
X95114451Y-35844955D01*
X95090653Y-35850916D01*
X95066384Y-35854516D01*
X95041880Y-35855720D01*
X93791880Y-35855720D01*
X93767376Y-35854516D01*
X93743107Y-35850916D01*
X93719309Y-35844955D01*
X93696209Y-35836690D01*
X93674031Y-35826200D01*
X93652987Y-35813587D01*
X93633282Y-35798973D01*
X93615103Y-35782497D01*
X93598627Y-35764318D01*
X93584013Y-35744613D01*
X93571400Y-35723569D01*
X93560910Y-35701391D01*
X93552645Y-35678291D01*
X93546684Y-35654493D01*
X93543084Y-35630224D01*
X93541880Y-35605720D01*
X93541880Y-34855720D01*
X93543084Y-34831216D01*
X93546684Y-34806947D01*
X93552645Y-34783149D01*
X93560910Y-34760049D01*
X93571400Y-34737871D01*
X93584013Y-34716827D01*
X93598627Y-34697122D01*
X93615103Y-34678943D01*
X93633282Y-34662467D01*
X93652987Y-34647853D01*
X93674031Y-34635240D01*
X93696209Y-34624750D01*
X93719309Y-34616485D01*
X93743107Y-34610524D01*
X93767376Y-34606924D01*
X93791880Y-34605720D01*
X95041880Y-34605720D01*
X95066384Y-34606924D01*
X95066384Y-34606924D01*
G37*
D11*
X94416880Y-35230720D03*
D10*
G36*
X95066384Y-31806924D02*
G01*
X95090653Y-31810524D01*
X95114451Y-31816485D01*
X95137551Y-31824750D01*
X95159729Y-31835240D01*
X95180773Y-31847853D01*
X95200478Y-31862467D01*
X95218657Y-31878943D01*
X95235133Y-31897122D01*
X95249747Y-31916827D01*
X95262360Y-31937871D01*
X95272850Y-31960049D01*
X95281115Y-31983149D01*
X95287076Y-32006947D01*
X95290676Y-32031216D01*
X95291880Y-32055720D01*
X95291880Y-32805720D01*
X95290676Y-32830224D01*
X95287076Y-32854493D01*
X95281115Y-32878291D01*
X95272850Y-32901391D01*
X95262360Y-32923569D01*
X95249747Y-32944613D01*
X95235133Y-32964318D01*
X95218657Y-32982497D01*
X95200478Y-32998973D01*
X95180773Y-33013587D01*
X95159729Y-33026200D01*
X95137551Y-33036690D01*
X95114451Y-33044955D01*
X95090653Y-33050916D01*
X95066384Y-33054516D01*
X95041880Y-33055720D01*
X93791880Y-33055720D01*
X93767376Y-33054516D01*
X93743107Y-33050916D01*
X93719309Y-33044955D01*
X93696209Y-33036690D01*
X93674031Y-33026200D01*
X93652987Y-33013587D01*
X93633282Y-32998973D01*
X93615103Y-32982497D01*
X93598627Y-32964318D01*
X93584013Y-32944613D01*
X93571400Y-32923569D01*
X93560910Y-32901391D01*
X93552645Y-32878291D01*
X93546684Y-32854493D01*
X93543084Y-32830224D01*
X93541880Y-32805720D01*
X93541880Y-32055720D01*
X93543084Y-32031216D01*
X93546684Y-32006947D01*
X93552645Y-31983149D01*
X93560910Y-31960049D01*
X93571400Y-31937871D01*
X93584013Y-31916827D01*
X93598627Y-31897122D01*
X93615103Y-31878943D01*
X93633282Y-31862467D01*
X93652987Y-31847853D01*
X93674031Y-31835240D01*
X93696209Y-31824750D01*
X93719309Y-31816485D01*
X93743107Y-31810524D01*
X93767376Y-31806924D01*
X93791880Y-31805720D01*
X95041880Y-31805720D01*
X95066384Y-31806924D01*
X95066384Y-31806924D01*
G37*
D11*
X94416880Y-32430720D03*
D10*
G36*
X42911944Y-67294724D02*
G01*
X42936213Y-67298324D01*
X42960011Y-67304285D01*
X42983111Y-67312550D01*
X43005289Y-67323040D01*
X43026333Y-67335653D01*
X43046038Y-67350267D01*
X43064217Y-67366743D01*
X43080693Y-67384922D01*
X43095307Y-67404627D01*
X43107920Y-67425671D01*
X43118410Y-67447849D01*
X43126675Y-67470949D01*
X43132636Y-67494747D01*
X43136236Y-67519016D01*
X43137440Y-67543520D01*
X43137440Y-68793520D01*
X43136236Y-68818024D01*
X43132636Y-68842293D01*
X43126675Y-68866091D01*
X43118410Y-68889191D01*
X43107920Y-68911369D01*
X43095307Y-68932413D01*
X43080693Y-68952118D01*
X43064217Y-68970297D01*
X43046038Y-68986773D01*
X43026333Y-69001387D01*
X43005289Y-69014000D01*
X42983111Y-69024490D01*
X42960011Y-69032755D01*
X42936213Y-69038716D01*
X42911944Y-69042316D01*
X42887440Y-69043520D01*
X42137440Y-69043520D01*
X42112936Y-69042316D01*
X42088667Y-69038716D01*
X42064869Y-69032755D01*
X42041769Y-69024490D01*
X42019591Y-69014000D01*
X41998547Y-69001387D01*
X41978842Y-68986773D01*
X41960663Y-68970297D01*
X41944187Y-68952118D01*
X41929573Y-68932413D01*
X41916960Y-68911369D01*
X41906470Y-68889191D01*
X41898205Y-68866091D01*
X41892244Y-68842293D01*
X41888644Y-68818024D01*
X41887440Y-68793520D01*
X41887440Y-67543520D01*
X41888644Y-67519016D01*
X41892244Y-67494747D01*
X41898205Y-67470949D01*
X41906470Y-67447849D01*
X41916960Y-67425671D01*
X41929573Y-67404627D01*
X41944187Y-67384922D01*
X41960663Y-67366743D01*
X41978842Y-67350267D01*
X41998547Y-67335653D01*
X42019591Y-67323040D01*
X42041769Y-67312550D01*
X42064869Y-67304285D01*
X42088667Y-67298324D01*
X42112936Y-67294724D01*
X42137440Y-67293520D01*
X42887440Y-67293520D01*
X42911944Y-67294724D01*
X42911944Y-67294724D01*
G37*
D11*
X42512440Y-68168520D03*
D10*
G36*
X40111944Y-67294724D02*
G01*
X40136213Y-67298324D01*
X40160011Y-67304285D01*
X40183111Y-67312550D01*
X40205289Y-67323040D01*
X40226333Y-67335653D01*
X40246038Y-67350267D01*
X40264217Y-67366743D01*
X40280693Y-67384922D01*
X40295307Y-67404627D01*
X40307920Y-67425671D01*
X40318410Y-67447849D01*
X40326675Y-67470949D01*
X40332636Y-67494747D01*
X40336236Y-67519016D01*
X40337440Y-67543520D01*
X40337440Y-68793520D01*
X40336236Y-68818024D01*
X40332636Y-68842293D01*
X40326675Y-68866091D01*
X40318410Y-68889191D01*
X40307920Y-68911369D01*
X40295307Y-68932413D01*
X40280693Y-68952118D01*
X40264217Y-68970297D01*
X40246038Y-68986773D01*
X40226333Y-69001387D01*
X40205289Y-69014000D01*
X40183111Y-69024490D01*
X40160011Y-69032755D01*
X40136213Y-69038716D01*
X40111944Y-69042316D01*
X40087440Y-69043520D01*
X39337440Y-69043520D01*
X39312936Y-69042316D01*
X39288667Y-69038716D01*
X39264869Y-69032755D01*
X39241769Y-69024490D01*
X39219591Y-69014000D01*
X39198547Y-69001387D01*
X39178842Y-68986773D01*
X39160663Y-68970297D01*
X39144187Y-68952118D01*
X39129573Y-68932413D01*
X39116960Y-68911369D01*
X39106470Y-68889191D01*
X39098205Y-68866091D01*
X39092244Y-68842293D01*
X39088644Y-68818024D01*
X39087440Y-68793520D01*
X39087440Y-67543520D01*
X39088644Y-67519016D01*
X39092244Y-67494747D01*
X39098205Y-67470949D01*
X39106470Y-67447849D01*
X39116960Y-67425671D01*
X39129573Y-67404627D01*
X39144187Y-67384922D01*
X39160663Y-67366743D01*
X39178842Y-67350267D01*
X39198547Y-67335653D01*
X39219591Y-67323040D01*
X39241769Y-67312550D01*
X39264869Y-67304285D01*
X39288667Y-67298324D01*
X39312936Y-67294724D01*
X39337440Y-67293520D01*
X40087440Y-67293520D01*
X40111944Y-67294724D01*
X40111944Y-67294724D01*
G37*
D11*
X39712440Y-68168520D03*
D10*
G36*
X45570864Y-67294724D02*
G01*
X45595133Y-67298324D01*
X45618931Y-67304285D01*
X45642031Y-67312550D01*
X45664209Y-67323040D01*
X45685253Y-67335653D01*
X45704958Y-67350267D01*
X45723137Y-67366743D01*
X45739613Y-67384922D01*
X45754227Y-67404627D01*
X45766840Y-67425671D01*
X45777330Y-67447849D01*
X45785595Y-67470949D01*
X45791556Y-67494747D01*
X45795156Y-67519016D01*
X45796360Y-67543520D01*
X45796360Y-68793520D01*
X45795156Y-68818024D01*
X45791556Y-68842293D01*
X45785595Y-68866091D01*
X45777330Y-68889191D01*
X45766840Y-68911369D01*
X45754227Y-68932413D01*
X45739613Y-68952118D01*
X45723137Y-68970297D01*
X45704958Y-68986773D01*
X45685253Y-69001387D01*
X45664209Y-69014000D01*
X45642031Y-69024490D01*
X45618931Y-69032755D01*
X45595133Y-69038716D01*
X45570864Y-69042316D01*
X45546360Y-69043520D01*
X44796360Y-69043520D01*
X44771856Y-69042316D01*
X44747587Y-69038716D01*
X44723789Y-69032755D01*
X44700689Y-69024490D01*
X44678511Y-69014000D01*
X44657467Y-69001387D01*
X44637762Y-68986773D01*
X44619583Y-68970297D01*
X44603107Y-68952118D01*
X44588493Y-68932413D01*
X44575880Y-68911369D01*
X44565390Y-68889191D01*
X44557125Y-68866091D01*
X44551164Y-68842293D01*
X44547564Y-68818024D01*
X44546360Y-68793520D01*
X44546360Y-67543520D01*
X44547564Y-67519016D01*
X44551164Y-67494747D01*
X44557125Y-67470949D01*
X44565390Y-67447849D01*
X44575880Y-67425671D01*
X44588493Y-67404627D01*
X44603107Y-67384922D01*
X44619583Y-67366743D01*
X44637762Y-67350267D01*
X44657467Y-67335653D01*
X44678511Y-67323040D01*
X44700689Y-67312550D01*
X44723789Y-67304285D01*
X44747587Y-67298324D01*
X44771856Y-67294724D01*
X44796360Y-67293520D01*
X45546360Y-67293520D01*
X45570864Y-67294724D01*
X45570864Y-67294724D01*
G37*
D11*
X45171360Y-68168520D03*
D10*
G36*
X48370864Y-67294724D02*
G01*
X48395133Y-67298324D01*
X48418931Y-67304285D01*
X48442031Y-67312550D01*
X48464209Y-67323040D01*
X48485253Y-67335653D01*
X48504958Y-67350267D01*
X48523137Y-67366743D01*
X48539613Y-67384922D01*
X48554227Y-67404627D01*
X48566840Y-67425671D01*
X48577330Y-67447849D01*
X48585595Y-67470949D01*
X48591556Y-67494747D01*
X48595156Y-67519016D01*
X48596360Y-67543520D01*
X48596360Y-68793520D01*
X48595156Y-68818024D01*
X48591556Y-68842293D01*
X48585595Y-68866091D01*
X48577330Y-68889191D01*
X48566840Y-68911369D01*
X48554227Y-68932413D01*
X48539613Y-68952118D01*
X48523137Y-68970297D01*
X48504958Y-68986773D01*
X48485253Y-69001387D01*
X48464209Y-69014000D01*
X48442031Y-69024490D01*
X48418931Y-69032755D01*
X48395133Y-69038716D01*
X48370864Y-69042316D01*
X48346360Y-69043520D01*
X47596360Y-69043520D01*
X47571856Y-69042316D01*
X47547587Y-69038716D01*
X47523789Y-69032755D01*
X47500689Y-69024490D01*
X47478511Y-69014000D01*
X47457467Y-69001387D01*
X47437762Y-68986773D01*
X47419583Y-68970297D01*
X47403107Y-68952118D01*
X47388493Y-68932413D01*
X47375880Y-68911369D01*
X47365390Y-68889191D01*
X47357125Y-68866091D01*
X47351164Y-68842293D01*
X47347564Y-68818024D01*
X47346360Y-68793520D01*
X47346360Y-67543520D01*
X47347564Y-67519016D01*
X47351164Y-67494747D01*
X47357125Y-67470949D01*
X47365390Y-67447849D01*
X47375880Y-67425671D01*
X47388493Y-67404627D01*
X47403107Y-67384922D01*
X47419583Y-67366743D01*
X47437762Y-67350267D01*
X47457467Y-67335653D01*
X47478511Y-67323040D01*
X47500689Y-67312550D01*
X47523789Y-67304285D01*
X47547587Y-67298324D01*
X47571856Y-67294724D01*
X47596360Y-67293520D01*
X48346360Y-67293520D01*
X48370864Y-67294724D01*
X48370864Y-67294724D01*
G37*
D11*
X47971360Y-68168520D03*
D10*
G36*
X25897104Y-49112404D02*
G01*
X25921373Y-49116004D01*
X25945171Y-49121965D01*
X25968271Y-49130230D01*
X25990449Y-49140720D01*
X26011493Y-49153333D01*
X26031198Y-49167947D01*
X26049377Y-49184423D01*
X26065853Y-49202602D01*
X26080467Y-49222307D01*
X26093080Y-49243351D01*
X26103570Y-49265529D01*
X26111835Y-49288629D01*
X26117796Y-49312427D01*
X26121396Y-49336696D01*
X26122600Y-49361200D01*
X26122600Y-50111200D01*
X26121396Y-50135704D01*
X26117796Y-50159973D01*
X26111835Y-50183771D01*
X26103570Y-50206871D01*
X26093080Y-50229049D01*
X26080467Y-50250093D01*
X26065853Y-50269798D01*
X26049377Y-50287977D01*
X26031198Y-50304453D01*
X26011493Y-50319067D01*
X25990449Y-50331680D01*
X25968271Y-50342170D01*
X25945171Y-50350435D01*
X25921373Y-50356396D01*
X25897104Y-50359996D01*
X25872600Y-50361200D01*
X24622600Y-50361200D01*
X24598096Y-50359996D01*
X24573827Y-50356396D01*
X24550029Y-50350435D01*
X24526929Y-50342170D01*
X24504751Y-50331680D01*
X24483707Y-50319067D01*
X24464002Y-50304453D01*
X24445823Y-50287977D01*
X24429347Y-50269798D01*
X24414733Y-50250093D01*
X24402120Y-50229049D01*
X24391630Y-50206871D01*
X24383365Y-50183771D01*
X24377404Y-50159973D01*
X24373804Y-50135704D01*
X24372600Y-50111200D01*
X24372600Y-49361200D01*
X24373804Y-49336696D01*
X24377404Y-49312427D01*
X24383365Y-49288629D01*
X24391630Y-49265529D01*
X24402120Y-49243351D01*
X24414733Y-49222307D01*
X24429347Y-49202602D01*
X24445823Y-49184423D01*
X24464002Y-49167947D01*
X24483707Y-49153333D01*
X24504751Y-49140720D01*
X24526929Y-49130230D01*
X24550029Y-49121965D01*
X24573827Y-49116004D01*
X24598096Y-49112404D01*
X24622600Y-49111200D01*
X25872600Y-49111200D01*
X25897104Y-49112404D01*
X25897104Y-49112404D01*
G37*
D11*
X25247600Y-49736200D03*
D10*
G36*
X25897104Y-46312404D02*
G01*
X25921373Y-46316004D01*
X25945171Y-46321965D01*
X25968271Y-46330230D01*
X25990449Y-46340720D01*
X26011493Y-46353333D01*
X26031198Y-46367947D01*
X26049377Y-46384423D01*
X26065853Y-46402602D01*
X26080467Y-46422307D01*
X26093080Y-46443351D01*
X26103570Y-46465529D01*
X26111835Y-46488629D01*
X26117796Y-46512427D01*
X26121396Y-46536696D01*
X26122600Y-46561200D01*
X26122600Y-47311200D01*
X26121396Y-47335704D01*
X26117796Y-47359973D01*
X26111835Y-47383771D01*
X26103570Y-47406871D01*
X26093080Y-47429049D01*
X26080467Y-47450093D01*
X26065853Y-47469798D01*
X26049377Y-47487977D01*
X26031198Y-47504453D01*
X26011493Y-47519067D01*
X25990449Y-47531680D01*
X25968271Y-47542170D01*
X25945171Y-47550435D01*
X25921373Y-47556396D01*
X25897104Y-47559996D01*
X25872600Y-47561200D01*
X24622600Y-47561200D01*
X24598096Y-47559996D01*
X24573827Y-47556396D01*
X24550029Y-47550435D01*
X24526929Y-47542170D01*
X24504751Y-47531680D01*
X24483707Y-47519067D01*
X24464002Y-47504453D01*
X24445823Y-47487977D01*
X24429347Y-47469798D01*
X24414733Y-47450093D01*
X24402120Y-47429049D01*
X24391630Y-47406871D01*
X24383365Y-47383771D01*
X24377404Y-47359973D01*
X24373804Y-47335704D01*
X24372600Y-47311200D01*
X24372600Y-46561200D01*
X24373804Y-46536696D01*
X24377404Y-46512427D01*
X24383365Y-46488629D01*
X24391630Y-46465529D01*
X24402120Y-46443351D01*
X24414733Y-46422307D01*
X24429347Y-46402602D01*
X24445823Y-46384423D01*
X24464002Y-46367947D01*
X24483707Y-46353333D01*
X24504751Y-46340720D01*
X24526929Y-46330230D01*
X24550029Y-46321965D01*
X24573827Y-46316004D01*
X24598096Y-46312404D01*
X24622600Y-46311200D01*
X25872600Y-46311200D01*
X25897104Y-46312404D01*
X25897104Y-46312404D01*
G37*
D11*
X25247600Y-46936200D03*
D10*
G36*
X31948384Y-46085724D02*
G01*
X31972653Y-46089324D01*
X31996451Y-46095285D01*
X32019551Y-46103550D01*
X32041729Y-46114040D01*
X32062773Y-46126653D01*
X32082478Y-46141267D01*
X32100657Y-46157743D01*
X32117133Y-46175922D01*
X32131747Y-46195627D01*
X32144360Y-46216671D01*
X32154850Y-46238849D01*
X32163115Y-46261949D01*
X32169076Y-46285747D01*
X32172676Y-46310016D01*
X32173880Y-46334520D01*
X32173880Y-47584520D01*
X32172676Y-47609024D01*
X32169076Y-47633293D01*
X32163115Y-47657091D01*
X32154850Y-47680191D01*
X32144360Y-47702369D01*
X32131747Y-47723413D01*
X32117133Y-47743118D01*
X32100657Y-47761297D01*
X32082478Y-47777773D01*
X32062773Y-47792387D01*
X32041729Y-47805000D01*
X32019551Y-47815490D01*
X31996451Y-47823755D01*
X31972653Y-47829716D01*
X31948384Y-47833316D01*
X31923880Y-47834520D01*
X31173880Y-47834520D01*
X31149376Y-47833316D01*
X31125107Y-47829716D01*
X31101309Y-47823755D01*
X31078209Y-47815490D01*
X31056031Y-47805000D01*
X31034987Y-47792387D01*
X31015282Y-47777773D01*
X30997103Y-47761297D01*
X30980627Y-47743118D01*
X30966013Y-47723413D01*
X30953400Y-47702369D01*
X30942910Y-47680191D01*
X30934645Y-47657091D01*
X30928684Y-47633293D01*
X30925084Y-47609024D01*
X30923880Y-47584520D01*
X30923880Y-46334520D01*
X30925084Y-46310016D01*
X30928684Y-46285747D01*
X30934645Y-46261949D01*
X30942910Y-46238849D01*
X30953400Y-46216671D01*
X30966013Y-46195627D01*
X30980627Y-46175922D01*
X30997103Y-46157743D01*
X31015282Y-46141267D01*
X31034987Y-46126653D01*
X31056031Y-46114040D01*
X31078209Y-46103550D01*
X31101309Y-46095285D01*
X31125107Y-46089324D01*
X31149376Y-46085724D01*
X31173880Y-46084520D01*
X31923880Y-46084520D01*
X31948384Y-46085724D01*
X31948384Y-46085724D01*
G37*
D11*
X31548880Y-46959520D03*
D10*
G36*
X34748384Y-46085724D02*
G01*
X34772653Y-46089324D01*
X34796451Y-46095285D01*
X34819551Y-46103550D01*
X34841729Y-46114040D01*
X34862773Y-46126653D01*
X34882478Y-46141267D01*
X34900657Y-46157743D01*
X34917133Y-46175922D01*
X34931747Y-46195627D01*
X34944360Y-46216671D01*
X34954850Y-46238849D01*
X34963115Y-46261949D01*
X34969076Y-46285747D01*
X34972676Y-46310016D01*
X34973880Y-46334520D01*
X34973880Y-47584520D01*
X34972676Y-47609024D01*
X34969076Y-47633293D01*
X34963115Y-47657091D01*
X34954850Y-47680191D01*
X34944360Y-47702369D01*
X34931747Y-47723413D01*
X34917133Y-47743118D01*
X34900657Y-47761297D01*
X34882478Y-47777773D01*
X34862773Y-47792387D01*
X34841729Y-47805000D01*
X34819551Y-47815490D01*
X34796451Y-47823755D01*
X34772653Y-47829716D01*
X34748384Y-47833316D01*
X34723880Y-47834520D01*
X33973880Y-47834520D01*
X33949376Y-47833316D01*
X33925107Y-47829716D01*
X33901309Y-47823755D01*
X33878209Y-47815490D01*
X33856031Y-47805000D01*
X33834987Y-47792387D01*
X33815282Y-47777773D01*
X33797103Y-47761297D01*
X33780627Y-47743118D01*
X33766013Y-47723413D01*
X33753400Y-47702369D01*
X33742910Y-47680191D01*
X33734645Y-47657091D01*
X33728684Y-47633293D01*
X33725084Y-47609024D01*
X33723880Y-47584520D01*
X33723880Y-46334520D01*
X33725084Y-46310016D01*
X33728684Y-46285747D01*
X33734645Y-46261949D01*
X33742910Y-46238849D01*
X33753400Y-46216671D01*
X33766013Y-46195627D01*
X33780627Y-46175922D01*
X33797103Y-46157743D01*
X33815282Y-46141267D01*
X33834987Y-46126653D01*
X33856031Y-46114040D01*
X33878209Y-46103550D01*
X33901309Y-46095285D01*
X33925107Y-46089324D01*
X33949376Y-46085724D01*
X33973880Y-46084520D01*
X34723880Y-46084520D01*
X34748384Y-46085724D01*
X34748384Y-46085724D01*
G37*
D11*
X34348880Y-46959520D03*
D10*
G36*
X66203744Y-32699924D02*
G01*
X66228013Y-32703524D01*
X66251811Y-32709485D01*
X66274911Y-32717750D01*
X66297089Y-32728240D01*
X66318133Y-32740853D01*
X66337838Y-32755467D01*
X66356017Y-32771943D01*
X66372493Y-32790122D01*
X66387107Y-32809827D01*
X66399720Y-32830871D01*
X66410210Y-32853049D01*
X66418475Y-32876149D01*
X66424436Y-32899947D01*
X66428036Y-32924216D01*
X66429240Y-32948720D01*
X66429240Y-34198720D01*
X66428036Y-34223224D01*
X66424436Y-34247493D01*
X66418475Y-34271291D01*
X66410210Y-34294391D01*
X66399720Y-34316569D01*
X66387107Y-34337613D01*
X66372493Y-34357318D01*
X66356017Y-34375497D01*
X66337838Y-34391973D01*
X66318133Y-34406587D01*
X66297089Y-34419200D01*
X66274911Y-34429690D01*
X66251811Y-34437955D01*
X66228013Y-34443916D01*
X66203744Y-34447516D01*
X66179240Y-34448720D01*
X65429240Y-34448720D01*
X65404736Y-34447516D01*
X65380467Y-34443916D01*
X65356669Y-34437955D01*
X65333569Y-34429690D01*
X65311391Y-34419200D01*
X65290347Y-34406587D01*
X65270642Y-34391973D01*
X65252463Y-34375497D01*
X65235987Y-34357318D01*
X65221373Y-34337613D01*
X65208760Y-34316569D01*
X65198270Y-34294391D01*
X65190005Y-34271291D01*
X65184044Y-34247493D01*
X65180444Y-34223224D01*
X65179240Y-34198720D01*
X65179240Y-32948720D01*
X65180444Y-32924216D01*
X65184044Y-32899947D01*
X65190005Y-32876149D01*
X65198270Y-32853049D01*
X65208760Y-32830871D01*
X65221373Y-32809827D01*
X65235987Y-32790122D01*
X65252463Y-32771943D01*
X65270642Y-32755467D01*
X65290347Y-32740853D01*
X65311391Y-32728240D01*
X65333569Y-32717750D01*
X65356669Y-32709485D01*
X65380467Y-32703524D01*
X65404736Y-32699924D01*
X65429240Y-32698720D01*
X66179240Y-32698720D01*
X66203744Y-32699924D01*
X66203744Y-32699924D01*
G37*
D11*
X65804240Y-33573720D03*
D10*
G36*
X63403744Y-32699924D02*
G01*
X63428013Y-32703524D01*
X63451811Y-32709485D01*
X63474911Y-32717750D01*
X63497089Y-32728240D01*
X63518133Y-32740853D01*
X63537838Y-32755467D01*
X63556017Y-32771943D01*
X63572493Y-32790122D01*
X63587107Y-32809827D01*
X63599720Y-32830871D01*
X63610210Y-32853049D01*
X63618475Y-32876149D01*
X63624436Y-32899947D01*
X63628036Y-32924216D01*
X63629240Y-32948720D01*
X63629240Y-34198720D01*
X63628036Y-34223224D01*
X63624436Y-34247493D01*
X63618475Y-34271291D01*
X63610210Y-34294391D01*
X63599720Y-34316569D01*
X63587107Y-34337613D01*
X63572493Y-34357318D01*
X63556017Y-34375497D01*
X63537838Y-34391973D01*
X63518133Y-34406587D01*
X63497089Y-34419200D01*
X63474911Y-34429690D01*
X63451811Y-34437955D01*
X63428013Y-34443916D01*
X63403744Y-34447516D01*
X63379240Y-34448720D01*
X62629240Y-34448720D01*
X62604736Y-34447516D01*
X62580467Y-34443916D01*
X62556669Y-34437955D01*
X62533569Y-34429690D01*
X62511391Y-34419200D01*
X62490347Y-34406587D01*
X62470642Y-34391973D01*
X62452463Y-34375497D01*
X62435987Y-34357318D01*
X62421373Y-34337613D01*
X62408760Y-34316569D01*
X62398270Y-34294391D01*
X62390005Y-34271291D01*
X62384044Y-34247493D01*
X62380444Y-34223224D01*
X62379240Y-34198720D01*
X62379240Y-32948720D01*
X62380444Y-32924216D01*
X62384044Y-32899947D01*
X62390005Y-32876149D01*
X62398270Y-32853049D01*
X62408760Y-32830871D01*
X62421373Y-32809827D01*
X62435987Y-32790122D01*
X62452463Y-32771943D01*
X62470642Y-32755467D01*
X62490347Y-32740853D01*
X62511391Y-32728240D01*
X62533569Y-32717750D01*
X62556669Y-32709485D01*
X62580467Y-32703524D01*
X62604736Y-32699924D01*
X62629240Y-32698720D01*
X63379240Y-32698720D01*
X63403744Y-32699924D01*
X63403744Y-32699924D01*
G37*
D11*
X63004240Y-33573720D03*
D10*
G36*
X66203744Y-35915564D02*
G01*
X66228013Y-35919164D01*
X66251811Y-35925125D01*
X66274911Y-35933390D01*
X66297089Y-35943880D01*
X66318133Y-35956493D01*
X66337838Y-35971107D01*
X66356017Y-35987583D01*
X66372493Y-36005762D01*
X66387107Y-36025467D01*
X66399720Y-36046511D01*
X66410210Y-36068689D01*
X66418475Y-36091789D01*
X66424436Y-36115587D01*
X66428036Y-36139856D01*
X66429240Y-36164360D01*
X66429240Y-37414360D01*
X66428036Y-37438864D01*
X66424436Y-37463133D01*
X66418475Y-37486931D01*
X66410210Y-37510031D01*
X66399720Y-37532209D01*
X66387107Y-37553253D01*
X66372493Y-37572958D01*
X66356017Y-37591137D01*
X66337838Y-37607613D01*
X66318133Y-37622227D01*
X66297089Y-37634840D01*
X66274911Y-37645330D01*
X66251811Y-37653595D01*
X66228013Y-37659556D01*
X66203744Y-37663156D01*
X66179240Y-37664360D01*
X65429240Y-37664360D01*
X65404736Y-37663156D01*
X65380467Y-37659556D01*
X65356669Y-37653595D01*
X65333569Y-37645330D01*
X65311391Y-37634840D01*
X65290347Y-37622227D01*
X65270642Y-37607613D01*
X65252463Y-37591137D01*
X65235987Y-37572958D01*
X65221373Y-37553253D01*
X65208760Y-37532209D01*
X65198270Y-37510031D01*
X65190005Y-37486931D01*
X65184044Y-37463133D01*
X65180444Y-37438864D01*
X65179240Y-37414360D01*
X65179240Y-36164360D01*
X65180444Y-36139856D01*
X65184044Y-36115587D01*
X65190005Y-36091789D01*
X65198270Y-36068689D01*
X65208760Y-36046511D01*
X65221373Y-36025467D01*
X65235987Y-36005762D01*
X65252463Y-35987583D01*
X65270642Y-35971107D01*
X65290347Y-35956493D01*
X65311391Y-35943880D01*
X65333569Y-35933390D01*
X65356669Y-35925125D01*
X65380467Y-35919164D01*
X65404736Y-35915564D01*
X65429240Y-35914360D01*
X66179240Y-35914360D01*
X66203744Y-35915564D01*
X66203744Y-35915564D01*
G37*
D11*
X65804240Y-36789360D03*
D10*
G36*
X63403744Y-35915564D02*
G01*
X63428013Y-35919164D01*
X63451811Y-35925125D01*
X63474911Y-35933390D01*
X63497089Y-35943880D01*
X63518133Y-35956493D01*
X63537838Y-35971107D01*
X63556017Y-35987583D01*
X63572493Y-36005762D01*
X63587107Y-36025467D01*
X63599720Y-36046511D01*
X63610210Y-36068689D01*
X63618475Y-36091789D01*
X63624436Y-36115587D01*
X63628036Y-36139856D01*
X63629240Y-36164360D01*
X63629240Y-37414360D01*
X63628036Y-37438864D01*
X63624436Y-37463133D01*
X63618475Y-37486931D01*
X63610210Y-37510031D01*
X63599720Y-37532209D01*
X63587107Y-37553253D01*
X63572493Y-37572958D01*
X63556017Y-37591137D01*
X63537838Y-37607613D01*
X63518133Y-37622227D01*
X63497089Y-37634840D01*
X63474911Y-37645330D01*
X63451811Y-37653595D01*
X63428013Y-37659556D01*
X63403744Y-37663156D01*
X63379240Y-37664360D01*
X62629240Y-37664360D01*
X62604736Y-37663156D01*
X62580467Y-37659556D01*
X62556669Y-37653595D01*
X62533569Y-37645330D01*
X62511391Y-37634840D01*
X62490347Y-37622227D01*
X62470642Y-37607613D01*
X62452463Y-37591137D01*
X62435987Y-37572958D01*
X62421373Y-37553253D01*
X62408760Y-37532209D01*
X62398270Y-37510031D01*
X62390005Y-37486931D01*
X62384044Y-37463133D01*
X62380444Y-37438864D01*
X62379240Y-37414360D01*
X62379240Y-36164360D01*
X62380444Y-36139856D01*
X62384044Y-36115587D01*
X62390005Y-36091789D01*
X62398270Y-36068689D01*
X62408760Y-36046511D01*
X62421373Y-36025467D01*
X62435987Y-36005762D01*
X62452463Y-35987583D01*
X62470642Y-35971107D01*
X62490347Y-35956493D01*
X62511391Y-35943880D01*
X62533569Y-35933390D01*
X62556669Y-35925125D01*
X62580467Y-35919164D01*
X62604736Y-35915564D01*
X62629240Y-35914360D01*
X63379240Y-35914360D01*
X63403744Y-35915564D01*
X63403744Y-35915564D01*
G37*
D11*
X63004240Y-36789360D03*
D10*
G36*
X16128264Y-59660564D02*
G01*
X16152533Y-59664164D01*
X16176331Y-59670125D01*
X16199431Y-59678390D01*
X16221609Y-59688880D01*
X16242653Y-59701493D01*
X16262358Y-59716107D01*
X16280537Y-59732583D01*
X16297013Y-59750762D01*
X16311627Y-59770467D01*
X16324240Y-59791511D01*
X16334730Y-59813689D01*
X16342995Y-59836789D01*
X16348956Y-59860587D01*
X16352556Y-59884856D01*
X16353760Y-59909360D01*
X16353760Y-60659360D01*
X16352556Y-60683864D01*
X16348956Y-60708133D01*
X16342995Y-60731931D01*
X16334730Y-60755031D01*
X16324240Y-60777209D01*
X16311627Y-60798253D01*
X16297013Y-60817958D01*
X16280537Y-60836137D01*
X16262358Y-60852613D01*
X16242653Y-60867227D01*
X16221609Y-60879840D01*
X16199431Y-60890330D01*
X16176331Y-60898595D01*
X16152533Y-60904556D01*
X16128264Y-60908156D01*
X16103760Y-60909360D01*
X14853760Y-60909360D01*
X14829256Y-60908156D01*
X14804987Y-60904556D01*
X14781189Y-60898595D01*
X14758089Y-60890330D01*
X14735911Y-60879840D01*
X14714867Y-60867227D01*
X14695162Y-60852613D01*
X14676983Y-60836137D01*
X14660507Y-60817958D01*
X14645893Y-60798253D01*
X14633280Y-60777209D01*
X14622790Y-60755031D01*
X14614525Y-60731931D01*
X14608564Y-60708133D01*
X14604964Y-60683864D01*
X14603760Y-60659360D01*
X14603760Y-59909360D01*
X14604964Y-59884856D01*
X14608564Y-59860587D01*
X14614525Y-59836789D01*
X14622790Y-59813689D01*
X14633280Y-59791511D01*
X14645893Y-59770467D01*
X14660507Y-59750762D01*
X14676983Y-59732583D01*
X14695162Y-59716107D01*
X14714867Y-59701493D01*
X14735911Y-59688880D01*
X14758089Y-59678390D01*
X14781189Y-59670125D01*
X14804987Y-59664164D01*
X14829256Y-59660564D01*
X14853760Y-59659360D01*
X16103760Y-59659360D01*
X16128264Y-59660564D01*
X16128264Y-59660564D01*
G37*
D11*
X15478760Y-60284360D03*
D10*
G36*
X16128264Y-62460564D02*
G01*
X16152533Y-62464164D01*
X16176331Y-62470125D01*
X16199431Y-62478390D01*
X16221609Y-62488880D01*
X16242653Y-62501493D01*
X16262358Y-62516107D01*
X16280537Y-62532583D01*
X16297013Y-62550762D01*
X16311627Y-62570467D01*
X16324240Y-62591511D01*
X16334730Y-62613689D01*
X16342995Y-62636789D01*
X16348956Y-62660587D01*
X16352556Y-62684856D01*
X16353760Y-62709360D01*
X16353760Y-63459360D01*
X16352556Y-63483864D01*
X16348956Y-63508133D01*
X16342995Y-63531931D01*
X16334730Y-63555031D01*
X16324240Y-63577209D01*
X16311627Y-63598253D01*
X16297013Y-63617958D01*
X16280537Y-63636137D01*
X16262358Y-63652613D01*
X16242653Y-63667227D01*
X16221609Y-63679840D01*
X16199431Y-63690330D01*
X16176331Y-63698595D01*
X16152533Y-63704556D01*
X16128264Y-63708156D01*
X16103760Y-63709360D01*
X14853760Y-63709360D01*
X14829256Y-63708156D01*
X14804987Y-63704556D01*
X14781189Y-63698595D01*
X14758089Y-63690330D01*
X14735911Y-63679840D01*
X14714867Y-63667227D01*
X14695162Y-63652613D01*
X14676983Y-63636137D01*
X14660507Y-63617958D01*
X14645893Y-63598253D01*
X14633280Y-63577209D01*
X14622790Y-63555031D01*
X14614525Y-63531931D01*
X14608564Y-63508133D01*
X14604964Y-63483864D01*
X14603760Y-63459360D01*
X14603760Y-62709360D01*
X14604964Y-62684856D01*
X14608564Y-62660587D01*
X14614525Y-62636789D01*
X14622790Y-62613689D01*
X14633280Y-62591511D01*
X14645893Y-62570467D01*
X14660507Y-62550762D01*
X14676983Y-62532583D01*
X14695162Y-62516107D01*
X14714867Y-62501493D01*
X14735911Y-62488880D01*
X14758089Y-62478390D01*
X14781189Y-62470125D01*
X14804987Y-62464164D01*
X14829256Y-62460564D01*
X14853760Y-62459360D01*
X16103760Y-62459360D01*
X16128264Y-62460564D01*
X16128264Y-62460564D01*
G37*
D11*
X15478760Y-63084360D03*
D10*
G36*
X85349344Y-42651644D02*
G01*
X85373613Y-42655244D01*
X85397411Y-42661205D01*
X85420511Y-42669470D01*
X85442689Y-42679960D01*
X85463733Y-42692573D01*
X85483438Y-42707187D01*
X85501617Y-42723663D01*
X85518093Y-42741842D01*
X85532707Y-42761547D01*
X85545320Y-42782591D01*
X85555810Y-42804769D01*
X85564075Y-42827869D01*
X85570036Y-42851667D01*
X85573636Y-42875936D01*
X85574840Y-42900440D01*
X85574840Y-44150440D01*
X85573636Y-44174944D01*
X85570036Y-44199213D01*
X85564075Y-44223011D01*
X85555810Y-44246111D01*
X85545320Y-44268289D01*
X85532707Y-44289333D01*
X85518093Y-44309038D01*
X85501617Y-44327217D01*
X85483438Y-44343693D01*
X85463733Y-44358307D01*
X85442689Y-44370920D01*
X85420511Y-44381410D01*
X85397411Y-44389675D01*
X85373613Y-44395636D01*
X85349344Y-44399236D01*
X85324840Y-44400440D01*
X84574840Y-44400440D01*
X84550336Y-44399236D01*
X84526067Y-44395636D01*
X84502269Y-44389675D01*
X84479169Y-44381410D01*
X84456991Y-44370920D01*
X84435947Y-44358307D01*
X84416242Y-44343693D01*
X84398063Y-44327217D01*
X84381587Y-44309038D01*
X84366973Y-44289333D01*
X84354360Y-44268289D01*
X84343870Y-44246111D01*
X84335605Y-44223011D01*
X84329644Y-44199213D01*
X84326044Y-44174944D01*
X84324840Y-44150440D01*
X84324840Y-42900440D01*
X84326044Y-42875936D01*
X84329644Y-42851667D01*
X84335605Y-42827869D01*
X84343870Y-42804769D01*
X84354360Y-42782591D01*
X84366973Y-42761547D01*
X84381587Y-42741842D01*
X84398063Y-42723663D01*
X84416242Y-42707187D01*
X84435947Y-42692573D01*
X84456991Y-42679960D01*
X84479169Y-42669470D01*
X84502269Y-42661205D01*
X84526067Y-42655244D01*
X84550336Y-42651644D01*
X84574840Y-42650440D01*
X85324840Y-42650440D01*
X85349344Y-42651644D01*
X85349344Y-42651644D01*
G37*
D11*
X84949840Y-43525440D03*
D10*
G36*
X88149344Y-42651644D02*
G01*
X88173613Y-42655244D01*
X88197411Y-42661205D01*
X88220511Y-42669470D01*
X88242689Y-42679960D01*
X88263733Y-42692573D01*
X88283438Y-42707187D01*
X88301617Y-42723663D01*
X88318093Y-42741842D01*
X88332707Y-42761547D01*
X88345320Y-42782591D01*
X88355810Y-42804769D01*
X88364075Y-42827869D01*
X88370036Y-42851667D01*
X88373636Y-42875936D01*
X88374840Y-42900440D01*
X88374840Y-44150440D01*
X88373636Y-44174944D01*
X88370036Y-44199213D01*
X88364075Y-44223011D01*
X88355810Y-44246111D01*
X88345320Y-44268289D01*
X88332707Y-44289333D01*
X88318093Y-44309038D01*
X88301617Y-44327217D01*
X88283438Y-44343693D01*
X88263733Y-44358307D01*
X88242689Y-44370920D01*
X88220511Y-44381410D01*
X88197411Y-44389675D01*
X88173613Y-44395636D01*
X88149344Y-44399236D01*
X88124840Y-44400440D01*
X87374840Y-44400440D01*
X87350336Y-44399236D01*
X87326067Y-44395636D01*
X87302269Y-44389675D01*
X87279169Y-44381410D01*
X87256991Y-44370920D01*
X87235947Y-44358307D01*
X87216242Y-44343693D01*
X87198063Y-44327217D01*
X87181587Y-44309038D01*
X87166973Y-44289333D01*
X87154360Y-44268289D01*
X87143870Y-44246111D01*
X87135605Y-44223011D01*
X87129644Y-44199213D01*
X87126044Y-44174944D01*
X87124840Y-44150440D01*
X87124840Y-42900440D01*
X87126044Y-42875936D01*
X87129644Y-42851667D01*
X87135605Y-42827869D01*
X87143870Y-42804769D01*
X87154360Y-42782591D01*
X87166973Y-42761547D01*
X87181587Y-42741842D01*
X87198063Y-42723663D01*
X87216242Y-42707187D01*
X87235947Y-42692573D01*
X87256991Y-42679960D01*
X87279169Y-42669470D01*
X87302269Y-42661205D01*
X87326067Y-42655244D01*
X87350336Y-42651644D01*
X87374840Y-42650440D01*
X88124840Y-42650440D01*
X88149344Y-42651644D01*
X88149344Y-42651644D01*
G37*
D11*
X87749840Y-43525440D03*
D10*
G36*
X95122264Y-42883404D02*
G01*
X95146533Y-42887004D01*
X95170331Y-42892965D01*
X95193431Y-42901230D01*
X95215609Y-42911720D01*
X95236653Y-42924333D01*
X95256358Y-42938947D01*
X95274537Y-42955423D01*
X95291013Y-42973602D01*
X95305627Y-42993307D01*
X95318240Y-43014351D01*
X95328730Y-43036529D01*
X95336995Y-43059629D01*
X95342956Y-43083427D01*
X95346556Y-43107696D01*
X95347760Y-43132200D01*
X95347760Y-43882200D01*
X95346556Y-43906704D01*
X95342956Y-43930973D01*
X95336995Y-43954771D01*
X95328730Y-43977871D01*
X95318240Y-44000049D01*
X95305627Y-44021093D01*
X95291013Y-44040798D01*
X95274537Y-44058977D01*
X95256358Y-44075453D01*
X95236653Y-44090067D01*
X95215609Y-44102680D01*
X95193431Y-44113170D01*
X95170331Y-44121435D01*
X95146533Y-44127396D01*
X95122264Y-44130996D01*
X95097760Y-44132200D01*
X93847760Y-44132200D01*
X93823256Y-44130996D01*
X93798987Y-44127396D01*
X93775189Y-44121435D01*
X93752089Y-44113170D01*
X93729911Y-44102680D01*
X93708867Y-44090067D01*
X93689162Y-44075453D01*
X93670983Y-44058977D01*
X93654507Y-44040798D01*
X93639893Y-44021093D01*
X93627280Y-44000049D01*
X93616790Y-43977871D01*
X93608525Y-43954771D01*
X93602564Y-43930973D01*
X93598964Y-43906704D01*
X93597760Y-43882200D01*
X93597760Y-43132200D01*
X93598964Y-43107696D01*
X93602564Y-43083427D01*
X93608525Y-43059629D01*
X93616790Y-43036529D01*
X93627280Y-43014351D01*
X93639893Y-42993307D01*
X93654507Y-42973602D01*
X93670983Y-42955423D01*
X93689162Y-42938947D01*
X93708867Y-42924333D01*
X93729911Y-42911720D01*
X93752089Y-42901230D01*
X93775189Y-42892965D01*
X93798987Y-42887004D01*
X93823256Y-42883404D01*
X93847760Y-42882200D01*
X95097760Y-42882200D01*
X95122264Y-42883404D01*
X95122264Y-42883404D01*
G37*
D11*
X94472760Y-43507200D03*
D10*
G36*
X95122264Y-45683404D02*
G01*
X95146533Y-45687004D01*
X95170331Y-45692965D01*
X95193431Y-45701230D01*
X95215609Y-45711720D01*
X95236653Y-45724333D01*
X95256358Y-45738947D01*
X95274537Y-45755423D01*
X95291013Y-45773602D01*
X95305627Y-45793307D01*
X95318240Y-45814351D01*
X95328730Y-45836529D01*
X95336995Y-45859629D01*
X95342956Y-45883427D01*
X95346556Y-45907696D01*
X95347760Y-45932200D01*
X95347760Y-46682200D01*
X95346556Y-46706704D01*
X95342956Y-46730973D01*
X95336995Y-46754771D01*
X95328730Y-46777871D01*
X95318240Y-46800049D01*
X95305627Y-46821093D01*
X95291013Y-46840798D01*
X95274537Y-46858977D01*
X95256358Y-46875453D01*
X95236653Y-46890067D01*
X95215609Y-46902680D01*
X95193431Y-46913170D01*
X95170331Y-46921435D01*
X95146533Y-46927396D01*
X95122264Y-46930996D01*
X95097760Y-46932200D01*
X93847760Y-46932200D01*
X93823256Y-46930996D01*
X93798987Y-46927396D01*
X93775189Y-46921435D01*
X93752089Y-46913170D01*
X93729911Y-46902680D01*
X93708867Y-46890067D01*
X93689162Y-46875453D01*
X93670983Y-46858977D01*
X93654507Y-46840798D01*
X93639893Y-46821093D01*
X93627280Y-46800049D01*
X93616790Y-46777871D01*
X93608525Y-46754771D01*
X93602564Y-46730973D01*
X93598964Y-46706704D01*
X93597760Y-46682200D01*
X93597760Y-45932200D01*
X93598964Y-45907696D01*
X93602564Y-45883427D01*
X93608525Y-45859629D01*
X93616790Y-45836529D01*
X93627280Y-45814351D01*
X93639893Y-45793307D01*
X93654507Y-45773602D01*
X93670983Y-45755423D01*
X93689162Y-45738947D01*
X93708867Y-45724333D01*
X93729911Y-45711720D01*
X93752089Y-45701230D01*
X93775189Y-45692965D01*
X93798987Y-45687004D01*
X93823256Y-45683404D01*
X93847760Y-45682200D01*
X95097760Y-45682200D01*
X95122264Y-45683404D01*
X95122264Y-45683404D01*
G37*
D11*
X94472760Y-46307200D03*
D10*
G36*
X16128264Y-75261244D02*
G01*
X16152533Y-75264844D01*
X16176331Y-75270805D01*
X16199431Y-75279070D01*
X16221609Y-75289560D01*
X16242653Y-75302173D01*
X16262358Y-75316787D01*
X16280537Y-75333263D01*
X16297013Y-75351442D01*
X16311627Y-75371147D01*
X16324240Y-75392191D01*
X16334730Y-75414369D01*
X16342995Y-75437469D01*
X16348956Y-75461267D01*
X16352556Y-75485536D01*
X16353760Y-75510040D01*
X16353760Y-76260040D01*
X16352556Y-76284544D01*
X16348956Y-76308813D01*
X16342995Y-76332611D01*
X16334730Y-76355711D01*
X16324240Y-76377889D01*
X16311627Y-76398933D01*
X16297013Y-76418638D01*
X16280537Y-76436817D01*
X16262358Y-76453293D01*
X16242653Y-76467907D01*
X16221609Y-76480520D01*
X16199431Y-76491010D01*
X16176331Y-76499275D01*
X16152533Y-76505236D01*
X16128264Y-76508836D01*
X16103760Y-76510040D01*
X14853760Y-76510040D01*
X14829256Y-76508836D01*
X14804987Y-76505236D01*
X14781189Y-76499275D01*
X14758089Y-76491010D01*
X14735911Y-76480520D01*
X14714867Y-76467907D01*
X14695162Y-76453293D01*
X14676983Y-76436817D01*
X14660507Y-76418638D01*
X14645893Y-76398933D01*
X14633280Y-76377889D01*
X14622790Y-76355711D01*
X14614525Y-76332611D01*
X14608564Y-76308813D01*
X14604964Y-76284544D01*
X14603760Y-76260040D01*
X14603760Y-75510040D01*
X14604964Y-75485536D01*
X14608564Y-75461267D01*
X14614525Y-75437469D01*
X14622790Y-75414369D01*
X14633280Y-75392191D01*
X14645893Y-75371147D01*
X14660507Y-75351442D01*
X14676983Y-75333263D01*
X14695162Y-75316787D01*
X14714867Y-75302173D01*
X14735911Y-75289560D01*
X14758089Y-75279070D01*
X14781189Y-75270805D01*
X14804987Y-75264844D01*
X14829256Y-75261244D01*
X14853760Y-75260040D01*
X16103760Y-75260040D01*
X16128264Y-75261244D01*
X16128264Y-75261244D01*
G37*
D11*
X15478760Y-75885040D03*
D10*
G36*
X16128264Y-72461244D02*
G01*
X16152533Y-72464844D01*
X16176331Y-72470805D01*
X16199431Y-72479070D01*
X16221609Y-72489560D01*
X16242653Y-72502173D01*
X16262358Y-72516787D01*
X16280537Y-72533263D01*
X16297013Y-72551442D01*
X16311627Y-72571147D01*
X16324240Y-72592191D01*
X16334730Y-72614369D01*
X16342995Y-72637469D01*
X16348956Y-72661267D01*
X16352556Y-72685536D01*
X16353760Y-72710040D01*
X16353760Y-73460040D01*
X16352556Y-73484544D01*
X16348956Y-73508813D01*
X16342995Y-73532611D01*
X16334730Y-73555711D01*
X16324240Y-73577889D01*
X16311627Y-73598933D01*
X16297013Y-73618638D01*
X16280537Y-73636817D01*
X16262358Y-73653293D01*
X16242653Y-73667907D01*
X16221609Y-73680520D01*
X16199431Y-73691010D01*
X16176331Y-73699275D01*
X16152533Y-73705236D01*
X16128264Y-73708836D01*
X16103760Y-73710040D01*
X14853760Y-73710040D01*
X14829256Y-73708836D01*
X14804987Y-73705236D01*
X14781189Y-73699275D01*
X14758089Y-73691010D01*
X14735911Y-73680520D01*
X14714867Y-73667907D01*
X14695162Y-73653293D01*
X14676983Y-73636817D01*
X14660507Y-73618638D01*
X14645893Y-73598933D01*
X14633280Y-73577889D01*
X14622790Y-73555711D01*
X14614525Y-73532611D01*
X14608564Y-73508813D01*
X14604964Y-73484544D01*
X14603760Y-73460040D01*
X14603760Y-72710040D01*
X14604964Y-72685536D01*
X14608564Y-72661267D01*
X14614525Y-72637469D01*
X14622790Y-72614369D01*
X14633280Y-72592191D01*
X14645893Y-72571147D01*
X14660507Y-72551442D01*
X14676983Y-72533263D01*
X14695162Y-72516787D01*
X14714867Y-72502173D01*
X14735911Y-72489560D01*
X14758089Y-72479070D01*
X14781189Y-72470805D01*
X14804987Y-72464844D01*
X14829256Y-72461244D01*
X14853760Y-72460040D01*
X16103760Y-72460040D01*
X16128264Y-72461244D01*
X16128264Y-72461244D01*
G37*
D11*
X15478760Y-73085040D03*
D10*
G36*
X65912264Y-50754404D02*
G01*
X65936533Y-50758004D01*
X65960331Y-50763965D01*
X65983431Y-50772230D01*
X66005609Y-50782720D01*
X66026653Y-50795333D01*
X66046358Y-50809947D01*
X66064537Y-50826423D01*
X66081013Y-50844602D01*
X66095627Y-50864307D01*
X66108240Y-50885351D01*
X66118730Y-50907529D01*
X66126995Y-50930629D01*
X66132956Y-50954427D01*
X66136556Y-50978696D01*
X66137760Y-51003200D01*
X66137760Y-51753200D01*
X66136556Y-51777704D01*
X66132956Y-51801973D01*
X66126995Y-51825771D01*
X66118730Y-51848871D01*
X66108240Y-51871049D01*
X66095627Y-51892093D01*
X66081013Y-51911798D01*
X66064537Y-51929977D01*
X66046358Y-51946453D01*
X66026653Y-51961067D01*
X66005609Y-51973680D01*
X65983431Y-51984170D01*
X65960331Y-51992435D01*
X65936533Y-51998396D01*
X65912264Y-52001996D01*
X65887760Y-52003200D01*
X64637760Y-52003200D01*
X64613256Y-52001996D01*
X64588987Y-51998396D01*
X64565189Y-51992435D01*
X64542089Y-51984170D01*
X64519911Y-51973680D01*
X64498867Y-51961067D01*
X64479162Y-51946453D01*
X64460983Y-51929977D01*
X64444507Y-51911798D01*
X64429893Y-51892093D01*
X64417280Y-51871049D01*
X64406790Y-51848871D01*
X64398525Y-51825771D01*
X64392564Y-51801973D01*
X64388964Y-51777704D01*
X64387760Y-51753200D01*
X64387760Y-51003200D01*
X64388964Y-50978696D01*
X64392564Y-50954427D01*
X64398525Y-50930629D01*
X64406790Y-50907529D01*
X64417280Y-50885351D01*
X64429893Y-50864307D01*
X64444507Y-50844602D01*
X64460983Y-50826423D01*
X64479162Y-50809947D01*
X64498867Y-50795333D01*
X64519911Y-50782720D01*
X64542089Y-50772230D01*
X64565189Y-50763965D01*
X64588987Y-50758004D01*
X64613256Y-50754404D01*
X64637760Y-50753200D01*
X65887760Y-50753200D01*
X65912264Y-50754404D01*
X65912264Y-50754404D01*
G37*
D11*
X65262760Y-51378200D03*
D10*
G36*
X65912264Y-53554404D02*
G01*
X65936533Y-53558004D01*
X65960331Y-53563965D01*
X65983431Y-53572230D01*
X66005609Y-53582720D01*
X66026653Y-53595333D01*
X66046358Y-53609947D01*
X66064537Y-53626423D01*
X66081013Y-53644602D01*
X66095627Y-53664307D01*
X66108240Y-53685351D01*
X66118730Y-53707529D01*
X66126995Y-53730629D01*
X66132956Y-53754427D01*
X66136556Y-53778696D01*
X66137760Y-53803200D01*
X66137760Y-54553200D01*
X66136556Y-54577704D01*
X66132956Y-54601973D01*
X66126995Y-54625771D01*
X66118730Y-54648871D01*
X66108240Y-54671049D01*
X66095627Y-54692093D01*
X66081013Y-54711798D01*
X66064537Y-54729977D01*
X66046358Y-54746453D01*
X66026653Y-54761067D01*
X66005609Y-54773680D01*
X65983431Y-54784170D01*
X65960331Y-54792435D01*
X65936533Y-54798396D01*
X65912264Y-54801996D01*
X65887760Y-54803200D01*
X64637760Y-54803200D01*
X64613256Y-54801996D01*
X64588987Y-54798396D01*
X64565189Y-54792435D01*
X64542089Y-54784170D01*
X64519911Y-54773680D01*
X64498867Y-54761067D01*
X64479162Y-54746453D01*
X64460983Y-54729977D01*
X64444507Y-54711798D01*
X64429893Y-54692093D01*
X64417280Y-54671049D01*
X64406790Y-54648871D01*
X64398525Y-54625771D01*
X64392564Y-54601973D01*
X64388964Y-54577704D01*
X64387760Y-54553200D01*
X64387760Y-53803200D01*
X64388964Y-53778696D01*
X64392564Y-53754427D01*
X64398525Y-53730629D01*
X64406790Y-53707529D01*
X64417280Y-53685351D01*
X64429893Y-53664307D01*
X64444507Y-53644602D01*
X64460983Y-53626423D01*
X64479162Y-53609947D01*
X64498867Y-53595333D01*
X64519911Y-53582720D01*
X64542089Y-53572230D01*
X64565189Y-53563965D01*
X64588987Y-53558004D01*
X64613256Y-53554404D01*
X64637760Y-53553200D01*
X65887760Y-53553200D01*
X65912264Y-53554404D01*
X65912264Y-53554404D01*
G37*
D11*
X65262760Y-54178200D03*
D10*
G36*
X65907184Y-55793764D02*
G01*
X65931453Y-55797364D01*
X65955251Y-55803325D01*
X65978351Y-55811590D01*
X66000529Y-55822080D01*
X66021573Y-55834693D01*
X66041278Y-55849307D01*
X66059457Y-55865783D01*
X66075933Y-55883962D01*
X66090547Y-55903667D01*
X66103160Y-55924711D01*
X66113650Y-55946889D01*
X66121915Y-55969989D01*
X66127876Y-55993787D01*
X66131476Y-56018056D01*
X66132680Y-56042560D01*
X66132680Y-56792560D01*
X66131476Y-56817064D01*
X66127876Y-56841333D01*
X66121915Y-56865131D01*
X66113650Y-56888231D01*
X66103160Y-56910409D01*
X66090547Y-56931453D01*
X66075933Y-56951158D01*
X66059457Y-56969337D01*
X66041278Y-56985813D01*
X66021573Y-57000427D01*
X66000529Y-57013040D01*
X65978351Y-57023530D01*
X65955251Y-57031795D01*
X65931453Y-57037756D01*
X65907184Y-57041356D01*
X65882680Y-57042560D01*
X64632680Y-57042560D01*
X64608176Y-57041356D01*
X64583907Y-57037756D01*
X64560109Y-57031795D01*
X64537009Y-57023530D01*
X64514831Y-57013040D01*
X64493787Y-57000427D01*
X64474082Y-56985813D01*
X64455903Y-56969337D01*
X64439427Y-56951158D01*
X64424813Y-56931453D01*
X64412200Y-56910409D01*
X64401710Y-56888231D01*
X64393445Y-56865131D01*
X64387484Y-56841333D01*
X64383884Y-56817064D01*
X64382680Y-56792560D01*
X64382680Y-56042560D01*
X64383884Y-56018056D01*
X64387484Y-55993787D01*
X64393445Y-55969989D01*
X64401710Y-55946889D01*
X64412200Y-55924711D01*
X64424813Y-55903667D01*
X64439427Y-55883962D01*
X64455903Y-55865783D01*
X64474082Y-55849307D01*
X64493787Y-55834693D01*
X64514831Y-55822080D01*
X64537009Y-55811590D01*
X64560109Y-55803325D01*
X64583907Y-55797364D01*
X64608176Y-55793764D01*
X64632680Y-55792560D01*
X65882680Y-55792560D01*
X65907184Y-55793764D01*
X65907184Y-55793764D01*
G37*
D11*
X65257680Y-56417560D03*
D10*
G36*
X65907184Y-58593764D02*
G01*
X65931453Y-58597364D01*
X65955251Y-58603325D01*
X65978351Y-58611590D01*
X66000529Y-58622080D01*
X66021573Y-58634693D01*
X66041278Y-58649307D01*
X66059457Y-58665783D01*
X66075933Y-58683962D01*
X66090547Y-58703667D01*
X66103160Y-58724711D01*
X66113650Y-58746889D01*
X66121915Y-58769989D01*
X66127876Y-58793787D01*
X66131476Y-58818056D01*
X66132680Y-58842560D01*
X66132680Y-59592560D01*
X66131476Y-59617064D01*
X66127876Y-59641333D01*
X66121915Y-59665131D01*
X66113650Y-59688231D01*
X66103160Y-59710409D01*
X66090547Y-59731453D01*
X66075933Y-59751158D01*
X66059457Y-59769337D01*
X66041278Y-59785813D01*
X66021573Y-59800427D01*
X66000529Y-59813040D01*
X65978351Y-59823530D01*
X65955251Y-59831795D01*
X65931453Y-59837756D01*
X65907184Y-59841356D01*
X65882680Y-59842560D01*
X64632680Y-59842560D01*
X64608176Y-59841356D01*
X64583907Y-59837756D01*
X64560109Y-59831795D01*
X64537009Y-59823530D01*
X64514831Y-59813040D01*
X64493787Y-59800427D01*
X64474082Y-59785813D01*
X64455903Y-59769337D01*
X64439427Y-59751158D01*
X64424813Y-59731453D01*
X64412200Y-59710409D01*
X64401710Y-59688231D01*
X64393445Y-59665131D01*
X64387484Y-59641333D01*
X64383884Y-59617064D01*
X64382680Y-59592560D01*
X64382680Y-58842560D01*
X64383884Y-58818056D01*
X64387484Y-58793787D01*
X64393445Y-58769989D01*
X64401710Y-58746889D01*
X64412200Y-58724711D01*
X64424813Y-58703667D01*
X64439427Y-58683962D01*
X64455903Y-58665783D01*
X64474082Y-58649307D01*
X64493787Y-58634693D01*
X64514831Y-58622080D01*
X64537009Y-58611590D01*
X64560109Y-58603325D01*
X64583907Y-58597364D01*
X64608176Y-58593764D01*
X64632680Y-58592560D01*
X65882680Y-58592560D01*
X65907184Y-58593764D01*
X65907184Y-58593764D01*
G37*
D11*
X65257680Y-59217560D03*
D10*
G36*
X50413184Y-14737204D02*
G01*
X50437453Y-14740804D01*
X50461251Y-14746765D01*
X50484351Y-14755030D01*
X50506529Y-14765520D01*
X50527573Y-14778133D01*
X50547278Y-14792747D01*
X50565457Y-14809223D01*
X50581933Y-14827402D01*
X50596547Y-14847107D01*
X50609160Y-14868151D01*
X50619650Y-14890329D01*
X50627915Y-14913429D01*
X50633876Y-14937227D01*
X50637476Y-14961496D01*
X50638680Y-14986000D01*
X50638680Y-15736000D01*
X50637476Y-15760504D01*
X50633876Y-15784773D01*
X50627915Y-15808571D01*
X50619650Y-15831671D01*
X50609160Y-15853849D01*
X50596547Y-15874893D01*
X50581933Y-15894598D01*
X50565457Y-15912777D01*
X50547278Y-15929253D01*
X50527573Y-15943867D01*
X50506529Y-15956480D01*
X50484351Y-15966970D01*
X50461251Y-15975235D01*
X50437453Y-15981196D01*
X50413184Y-15984796D01*
X50388680Y-15986000D01*
X49138680Y-15986000D01*
X49114176Y-15984796D01*
X49089907Y-15981196D01*
X49066109Y-15975235D01*
X49043009Y-15966970D01*
X49020831Y-15956480D01*
X48999787Y-15943867D01*
X48980082Y-15929253D01*
X48961903Y-15912777D01*
X48945427Y-15894598D01*
X48930813Y-15874893D01*
X48918200Y-15853849D01*
X48907710Y-15831671D01*
X48899445Y-15808571D01*
X48893484Y-15784773D01*
X48889884Y-15760504D01*
X48888680Y-15736000D01*
X48888680Y-14986000D01*
X48889884Y-14961496D01*
X48893484Y-14937227D01*
X48899445Y-14913429D01*
X48907710Y-14890329D01*
X48918200Y-14868151D01*
X48930813Y-14847107D01*
X48945427Y-14827402D01*
X48961903Y-14809223D01*
X48980082Y-14792747D01*
X48999787Y-14778133D01*
X49020831Y-14765520D01*
X49043009Y-14755030D01*
X49066109Y-14746765D01*
X49089907Y-14740804D01*
X49114176Y-14737204D01*
X49138680Y-14736000D01*
X50388680Y-14736000D01*
X50413184Y-14737204D01*
X50413184Y-14737204D01*
G37*
D11*
X49763680Y-15361000D03*
D10*
G36*
X50413184Y-17537204D02*
G01*
X50437453Y-17540804D01*
X50461251Y-17546765D01*
X50484351Y-17555030D01*
X50506529Y-17565520D01*
X50527573Y-17578133D01*
X50547278Y-17592747D01*
X50565457Y-17609223D01*
X50581933Y-17627402D01*
X50596547Y-17647107D01*
X50609160Y-17668151D01*
X50619650Y-17690329D01*
X50627915Y-17713429D01*
X50633876Y-17737227D01*
X50637476Y-17761496D01*
X50638680Y-17786000D01*
X50638680Y-18536000D01*
X50637476Y-18560504D01*
X50633876Y-18584773D01*
X50627915Y-18608571D01*
X50619650Y-18631671D01*
X50609160Y-18653849D01*
X50596547Y-18674893D01*
X50581933Y-18694598D01*
X50565457Y-18712777D01*
X50547278Y-18729253D01*
X50527573Y-18743867D01*
X50506529Y-18756480D01*
X50484351Y-18766970D01*
X50461251Y-18775235D01*
X50437453Y-18781196D01*
X50413184Y-18784796D01*
X50388680Y-18786000D01*
X49138680Y-18786000D01*
X49114176Y-18784796D01*
X49089907Y-18781196D01*
X49066109Y-18775235D01*
X49043009Y-18766970D01*
X49020831Y-18756480D01*
X48999787Y-18743867D01*
X48980082Y-18729253D01*
X48961903Y-18712777D01*
X48945427Y-18694598D01*
X48930813Y-18674893D01*
X48918200Y-18653849D01*
X48907710Y-18631671D01*
X48899445Y-18608571D01*
X48893484Y-18584773D01*
X48889884Y-18560504D01*
X48888680Y-18536000D01*
X48888680Y-17786000D01*
X48889884Y-17761496D01*
X48893484Y-17737227D01*
X48899445Y-17713429D01*
X48907710Y-17690329D01*
X48918200Y-17668151D01*
X48930813Y-17647107D01*
X48945427Y-17627402D01*
X48961903Y-17609223D01*
X48980082Y-17592747D01*
X48999787Y-17578133D01*
X49020831Y-17565520D01*
X49043009Y-17555030D01*
X49066109Y-17546765D01*
X49089907Y-17540804D01*
X49114176Y-17537204D01*
X49138680Y-17536000D01*
X50388680Y-17536000D01*
X50413184Y-17537204D01*
X50413184Y-17537204D01*
G37*
D11*
X49763680Y-18161000D03*
D10*
G36*
X18852144Y-56840084D02*
G01*
X18876413Y-56843684D01*
X18900211Y-56849645D01*
X18923311Y-56857910D01*
X18945489Y-56868400D01*
X18966533Y-56881013D01*
X18986238Y-56895627D01*
X19004417Y-56912103D01*
X19020893Y-56930282D01*
X19035507Y-56949987D01*
X19048120Y-56971031D01*
X19058610Y-56993209D01*
X19066875Y-57016309D01*
X19072836Y-57040107D01*
X19076436Y-57064376D01*
X19077640Y-57088880D01*
X19077640Y-58338880D01*
X19076436Y-58363384D01*
X19072836Y-58387653D01*
X19066875Y-58411451D01*
X19058610Y-58434551D01*
X19048120Y-58456729D01*
X19035507Y-58477773D01*
X19020893Y-58497478D01*
X19004417Y-58515657D01*
X18986238Y-58532133D01*
X18966533Y-58546747D01*
X18945489Y-58559360D01*
X18923311Y-58569850D01*
X18900211Y-58578115D01*
X18876413Y-58584076D01*
X18852144Y-58587676D01*
X18827640Y-58588880D01*
X18077640Y-58588880D01*
X18053136Y-58587676D01*
X18028867Y-58584076D01*
X18005069Y-58578115D01*
X17981969Y-58569850D01*
X17959791Y-58559360D01*
X17938747Y-58546747D01*
X17919042Y-58532133D01*
X17900863Y-58515657D01*
X17884387Y-58497478D01*
X17869773Y-58477773D01*
X17857160Y-58456729D01*
X17846670Y-58434551D01*
X17838405Y-58411451D01*
X17832444Y-58387653D01*
X17828844Y-58363384D01*
X17827640Y-58338880D01*
X17827640Y-57088880D01*
X17828844Y-57064376D01*
X17832444Y-57040107D01*
X17838405Y-57016309D01*
X17846670Y-56993209D01*
X17857160Y-56971031D01*
X17869773Y-56949987D01*
X17884387Y-56930282D01*
X17900863Y-56912103D01*
X17919042Y-56895627D01*
X17938747Y-56881013D01*
X17959791Y-56868400D01*
X17981969Y-56857910D01*
X18005069Y-56849645D01*
X18028867Y-56843684D01*
X18053136Y-56840084D01*
X18077640Y-56838880D01*
X18827640Y-56838880D01*
X18852144Y-56840084D01*
X18852144Y-56840084D01*
G37*
D11*
X18452640Y-57713880D03*
D10*
G36*
X21652144Y-56840084D02*
G01*
X21676413Y-56843684D01*
X21700211Y-56849645D01*
X21723311Y-56857910D01*
X21745489Y-56868400D01*
X21766533Y-56881013D01*
X21786238Y-56895627D01*
X21804417Y-56912103D01*
X21820893Y-56930282D01*
X21835507Y-56949987D01*
X21848120Y-56971031D01*
X21858610Y-56993209D01*
X21866875Y-57016309D01*
X21872836Y-57040107D01*
X21876436Y-57064376D01*
X21877640Y-57088880D01*
X21877640Y-58338880D01*
X21876436Y-58363384D01*
X21872836Y-58387653D01*
X21866875Y-58411451D01*
X21858610Y-58434551D01*
X21848120Y-58456729D01*
X21835507Y-58477773D01*
X21820893Y-58497478D01*
X21804417Y-58515657D01*
X21786238Y-58532133D01*
X21766533Y-58546747D01*
X21745489Y-58559360D01*
X21723311Y-58569850D01*
X21700211Y-58578115D01*
X21676413Y-58584076D01*
X21652144Y-58587676D01*
X21627640Y-58588880D01*
X20877640Y-58588880D01*
X20853136Y-58587676D01*
X20828867Y-58584076D01*
X20805069Y-58578115D01*
X20781969Y-58569850D01*
X20759791Y-58559360D01*
X20738747Y-58546747D01*
X20719042Y-58532133D01*
X20700863Y-58515657D01*
X20684387Y-58497478D01*
X20669773Y-58477773D01*
X20657160Y-58456729D01*
X20646670Y-58434551D01*
X20638405Y-58411451D01*
X20632444Y-58387653D01*
X20628844Y-58363384D01*
X20627640Y-58338880D01*
X20627640Y-57088880D01*
X20628844Y-57064376D01*
X20632444Y-57040107D01*
X20638405Y-57016309D01*
X20646670Y-56993209D01*
X20657160Y-56971031D01*
X20669773Y-56949987D01*
X20684387Y-56930282D01*
X20700863Y-56912103D01*
X20719042Y-56895627D01*
X20738747Y-56881013D01*
X20759791Y-56868400D01*
X20781969Y-56857910D01*
X20805069Y-56849645D01*
X20828867Y-56843684D01*
X20853136Y-56840084D01*
X20877640Y-56838880D01*
X21627640Y-56838880D01*
X21652144Y-56840084D01*
X21652144Y-56840084D01*
G37*
D11*
X21252640Y-57713880D03*
D10*
G36*
X26777864Y-57896724D02*
G01*
X26802133Y-57900324D01*
X26825931Y-57906285D01*
X26849031Y-57914550D01*
X26871209Y-57925040D01*
X26892253Y-57937653D01*
X26911958Y-57952267D01*
X26930137Y-57968743D01*
X26946613Y-57986922D01*
X26961227Y-58006627D01*
X26973840Y-58027671D01*
X26984330Y-58049849D01*
X26992595Y-58072949D01*
X26998556Y-58096747D01*
X27002156Y-58121016D01*
X27003360Y-58145520D01*
X27003360Y-59395520D01*
X27002156Y-59420024D01*
X26998556Y-59444293D01*
X26992595Y-59468091D01*
X26984330Y-59491191D01*
X26973840Y-59513369D01*
X26961227Y-59534413D01*
X26946613Y-59554118D01*
X26930137Y-59572297D01*
X26911958Y-59588773D01*
X26892253Y-59603387D01*
X26871209Y-59616000D01*
X26849031Y-59626490D01*
X26825931Y-59634755D01*
X26802133Y-59640716D01*
X26777864Y-59644316D01*
X26753360Y-59645520D01*
X26003360Y-59645520D01*
X25978856Y-59644316D01*
X25954587Y-59640716D01*
X25930789Y-59634755D01*
X25907689Y-59626490D01*
X25885511Y-59616000D01*
X25864467Y-59603387D01*
X25844762Y-59588773D01*
X25826583Y-59572297D01*
X25810107Y-59554118D01*
X25795493Y-59534413D01*
X25782880Y-59513369D01*
X25772390Y-59491191D01*
X25764125Y-59468091D01*
X25758164Y-59444293D01*
X25754564Y-59420024D01*
X25753360Y-59395520D01*
X25753360Y-58145520D01*
X25754564Y-58121016D01*
X25758164Y-58096747D01*
X25764125Y-58072949D01*
X25772390Y-58049849D01*
X25782880Y-58027671D01*
X25795493Y-58006627D01*
X25810107Y-57986922D01*
X25826583Y-57968743D01*
X25844762Y-57952267D01*
X25864467Y-57937653D01*
X25885511Y-57925040D01*
X25907689Y-57914550D01*
X25930789Y-57906285D01*
X25954587Y-57900324D01*
X25978856Y-57896724D01*
X26003360Y-57895520D01*
X26753360Y-57895520D01*
X26777864Y-57896724D01*
X26777864Y-57896724D01*
G37*
D11*
X26378360Y-58770520D03*
D10*
G36*
X23977864Y-57896724D02*
G01*
X24002133Y-57900324D01*
X24025931Y-57906285D01*
X24049031Y-57914550D01*
X24071209Y-57925040D01*
X24092253Y-57937653D01*
X24111958Y-57952267D01*
X24130137Y-57968743D01*
X24146613Y-57986922D01*
X24161227Y-58006627D01*
X24173840Y-58027671D01*
X24184330Y-58049849D01*
X24192595Y-58072949D01*
X24198556Y-58096747D01*
X24202156Y-58121016D01*
X24203360Y-58145520D01*
X24203360Y-59395520D01*
X24202156Y-59420024D01*
X24198556Y-59444293D01*
X24192595Y-59468091D01*
X24184330Y-59491191D01*
X24173840Y-59513369D01*
X24161227Y-59534413D01*
X24146613Y-59554118D01*
X24130137Y-59572297D01*
X24111958Y-59588773D01*
X24092253Y-59603387D01*
X24071209Y-59616000D01*
X24049031Y-59626490D01*
X24025931Y-59634755D01*
X24002133Y-59640716D01*
X23977864Y-59644316D01*
X23953360Y-59645520D01*
X23203360Y-59645520D01*
X23178856Y-59644316D01*
X23154587Y-59640716D01*
X23130789Y-59634755D01*
X23107689Y-59626490D01*
X23085511Y-59616000D01*
X23064467Y-59603387D01*
X23044762Y-59588773D01*
X23026583Y-59572297D01*
X23010107Y-59554118D01*
X22995493Y-59534413D01*
X22982880Y-59513369D01*
X22972390Y-59491191D01*
X22964125Y-59468091D01*
X22958164Y-59444293D01*
X22954564Y-59420024D01*
X22953360Y-59395520D01*
X22953360Y-58145520D01*
X22954564Y-58121016D01*
X22958164Y-58096747D01*
X22964125Y-58072949D01*
X22972390Y-58049849D01*
X22982880Y-58027671D01*
X22995493Y-58006627D01*
X23010107Y-57986922D01*
X23026583Y-57968743D01*
X23044762Y-57952267D01*
X23064467Y-57937653D01*
X23085511Y-57925040D01*
X23107689Y-57914550D01*
X23130789Y-57906285D01*
X23154587Y-57900324D01*
X23178856Y-57896724D01*
X23203360Y-57895520D01*
X23953360Y-57895520D01*
X23977864Y-57896724D01*
X23977864Y-57896724D01*
G37*
D11*
X23578360Y-58770520D03*
D10*
G36*
X55961544Y-39603644D02*
G01*
X55985813Y-39607244D01*
X56009611Y-39613205D01*
X56032711Y-39621470D01*
X56054889Y-39631960D01*
X56075933Y-39644573D01*
X56095638Y-39659187D01*
X56113817Y-39675663D01*
X56130293Y-39693842D01*
X56144907Y-39713547D01*
X56157520Y-39734591D01*
X56168010Y-39756769D01*
X56176275Y-39779869D01*
X56182236Y-39803667D01*
X56185836Y-39827936D01*
X56187040Y-39852440D01*
X56187040Y-41102440D01*
X56185836Y-41126944D01*
X56182236Y-41151213D01*
X56176275Y-41175011D01*
X56168010Y-41198111D01*
X56157520Y-41220289D01*
X56144907Y-41241333D01*
X56130293Y-41261038D01*
X56113817Y-41279217D01*
X56095638Y-41295693D01*
X56075933Y-41310307D01*
X56054889Y-41322920D01*
X56032711Y-41333410D01*
X56009611Y-41341675D01*
X55985813Y-41347636D01*
X55961544Y-41351236D01*
X55937040Y-41352440D01*
X55187040Y-41352440D01*
X55162536Y-41351236D01*
X55138267Y-41347636D01*
X55114469Y-41341675D01*
X55091369Y-41333410D01*
X55069191Y-41322920D01*
X55048147Y-41310307D01*
X55028442Y-41295693D01*
X55010263Y-41279217D01*
X54993787Y-41261038D01*
X54979173Y-41241333D01*
X54966560Y-41220289D01*
X54956070Y-41198111D01*
X54947805Y-41175011D01*
X54941844Y-41151213D01*
X54938244Y-41126944D01*
X54937040Y-41102440D01*
X54937040Y-39852440D01*
X54938244Y-39827936D01*
X54941844Y-39803667D01*
X54947805Y-39779869D01*
X54956070Y-39756769D01*
X54966560Y-39734591D01*
X54979173Y-39713547D01*
X54993787Y-39693842D01*
X55010263Y-39675663D01*
X55028442Y-39659187D01*
X55048147Y-39644573D01*
X55069191Y-39631960D01*
X55091369Y-39621470D01*
X55114469Y-39613205D01*
X55138267Y-39607244D01*
X55162536Y-39603644D01*
X55187040Y-39602440D01*
X55937040Y-39602440D01*
X55961544Y-39603644D01*
X55961544Y-39603644D01*
G37*
D11*
X55562040Y-40477440D03*
D10*
G36*
X58761544Y-39603644D02*
G01*
X58785813Y-39607244D01*
X58809611Y-39613205D01*
X58832711Y-39621470D01*
X58854889Y-39631960D01*
X58875933Y-39644573D01*
X58895638Y-39659187D01*
X58913817Y-39675663D01*
X58930293Y-39693842D01*
X58944907Y-39713547D01*
X58957520Y-39734591D01*
X58968010Y-39756769D01*
X58976275Y-39779869D01*
X58982236Y-39803667D01*
X58985836Y-39827936D01*
X58987040Y-39852440D01*
X58987040Y-41102440D01*
X58985836Y-41126944D01*
X58982236Y-41151213D01*
X58976275Y-41175011D01*
X58968010Y-41198111D01*
X58957520Y-41220289D01*
X58944907Y-41241333D01*
X58930293Y-41261038D01*
X58913817Y-41279217D01*
X58895638Y-41295693D01*
X58875933Y-41310307D01*
X58854889Y-41322920D01*
X58832711Y-41333410D01*
X58809611Y-41341675D01*
X58785813Y-41347636D01*
X58761544Y-41351236D01*
X58737040Y-41352440D01*
X57987040Y-41352440D01*
X57962536Y-41351236D01*
X57938267Y-41347636D01*
X57914469Y-41341675D01*
X57891369Y-41333410D01*
X57869191Y-41322920D01*
X57848147Y-41310307D01*
X57828442Y-41295693D01*
X57810263Y-41279217D01*
X57793787Y-41261038D01*
X57779173Y-41241333D01*
X57766560Y-41220289D01*
X57756070Y-41198111D01*
X57747805Y-41175011D01*
X57741844Y-41151213D01*
X57738244Y-41126944D01*
X57737040Y-41102440D01*
X57737040Y-39852440D01*
X57738244Y-39827936D01*
X57741844Y-39803667D01*
X57747805Y-39779869D01*
X57756070Y-39756769D01*
X57766560Y-39734591D01*
X57779173Y-39713547D01*
X57793787Y-39693842D01*
X57810263Y-39675663D01*
X57828442Y-39659187D01*
X57848147Y-39644573D01*
X57869191Y-39631960D01*
X57891369Y-39621470D01*
X57914469Y-39613205D01*
X57938267Y-39607244D01*
X57962536Y-39603644D01*
X57987040Y-39602440D01*
X58737040Y-39602440D01*
X58761544Y-39603644D01*
X58761544Y-39603644D01*
G37*
D11*
X58362040Y-40477440D03*
D10*
G36*
X38412224Y-39822084D02*
G01*
X38436493Y-39825684D01*
X38460291Y-39831645D01*
X38483391Y-39839910D01*
X38505569Y-39850400D01*
X38526613Y-39863013D01*
X38546318Y-39877627D01*
X38564497Y-39894103D01*
X38580973Y-39912282D01*
X38595587Y-39931987D01*
X38608200Y-39953031D01*
X38618690Y-39975209D01*
X38626955Y-39998309D01*
X38632916Y-40022107D01*
X38636516Y-40046376D01*
X38637720Y-40070880D01*
X38637720Y-41320880D01*
X38636516Y-41345384D01*
X38632916Y-41369653D01*
X38626955Y-41393451D01*
X38618690Y-41416551D01*
X38608200Y-41438729D01*
X38595587Y-41459773D01*
X38580973Y-41479478D01*
X38564497Y-41497657D01*
X38546318Y-41514133D01*
X38526613Y-41528747D01*
X38505569Y-41541360D01*
X38483391Y-41551850D01*
X38460291Y-41560115D01*
X38436493Y-41566076D01*
X38412224Y-41569676D01*
X38387720Y-41570880D01*
X37637720Y-41570880D01*
X37613216Y-41569676D01*
X37588947Y-41566076D01*
X37565149Y-41560115D01*
X37542049Y-41551850D01*
X37519871Y-41541360D01*
X37498827Y-41528747D01*
X37479122Y-41514133D01*
X37460943Y-41497657D01*
X37444467Y-41479478D01*
X37429853Y-41459773D01*
X37417240Y-41438729D01*
X37406750Y-41416551D01*
X37398485Y-41393451D01*
X37392524Y-41369653D01*
X37388924Y-41345384D01*
X37387720Y-41320880D01*
X37387720Y-40070880D01*
X37388924Y-40046376D01*
X37392524Y-40022107D01*
X37398485Y-39998309D01*
X37406750Y-39975209D01*
X37417240Y-39953031D01*
X37429853Y-39931987D01*
X37444467Y-39912282D01*
X37460943Y-39894103D01*
X37479122Y-39877627D01*
X37498827Y-39863013D01*
X37519871Y-39850400D01*
X37542049Y-39839910D01*
X37565149Y-39831645D01*
X37588947Y-39825684D01*
X37613216Y-39822084D01*
X37637720Y-39820880D01*
X38387720Y-39820880D01*
X38412224Y-39822084D01*
X38412224Y-39822084D01*
G37*
D11*
X38012720Y-40695880D03*
D10*
G36*
X41212224Y-39822084D02*
G01*
X41236493Y-39825684D01*
X41260291Y-39831645D01*
X41283391Y-39839910D01*
X41305569Y-39850400D01*
X41326613Y-39863013D01*
X41346318Y-39877627D01*
X41364497Y-39894103D01*
X41380973Y-39912282D01*
X41395587Y-39931987D01*
X41408200Y-39953031D01*
X41418690Y-39975209D01*
X41426955Y-39998309D01*
X41432916Y-40022107D01*
X41436516Y-40046376D01*
X41437720Y-40070880D01*
X41437720Y-41320880D01*
X41436516Y-41345384D01*
X41432916Y-41369653D01*
X41426955Y-41393451D01*
X41418690Y-41416551D01*
X41408200Y-41438729D01*
X41395587Y-41459773D01*
X41380973Y-41479478D01*
X41364497Y-41497657D01*
X41346318Y-41514133D01*
X41326613Y-41528747D01*
X41305569Y-41541360D01*
X41283391Y-41551850D01*
X41260291Y-41560115D01*
X41236493Y-41566076D01*
X41212224Y-41569676D01*
X41187720Y-41570880D01*
X40437720Y-41570880D01*
X40413216Y-41569676D01*
X40388947Y-41566076D01*
X40365149Y-41560115D01*
X40342049Y-41551850D01*
X40319871Y-41541360D01*
X40298827Y-41528747D01*
X40279122Y-41514133D01*
X40260943Y-41497657D01*
X40244467Y-41479478D01*
X40229853Y-41459773D01*
X40217240Y-41438729D01*
X40206750Y-41416551D01*
X40198485Y-41393451D01*
X40192524Y-41369653D01*
X40188924Y-41345384D01*
X40187720Y-41320880D01*
X40187720Y-40070880D01*
X40188924Y-40046376D01*
X40192524Y-40022107D01*
X40198485Y-39998309D01*
X40206750Y-39975209D01*
X40217240Y-39953031D01*
X40229853Y-39931987D01*
X40244467Y-39912282D01*
X40260943Y-39894103D01*
X40279122Y-39877627D01*
X40298827Y-39863013D01*
X40319871Y-39850400D01*
X40342049Y-39839910D01*
X40365149Y-39831645D01*
X40388947Y-39825684D01*
X40413216Y-39822084D01*
X40437720Y-39820880D01*
X41187720Y-39820880D01*
X41212224Y-39822084D01*
X41212224Y-39822084D01*
G37*
D11*
X40812720Y-40695880D03*
D10*
G36*
X74606064Y-20518084D02*
G01*
X74630333Y-20521684D01*
X74654131Y-20527645D01*
X74677231Y-20535910D01*
X74699409Y-20546400D01*
X74720453Y-20559013D01*
X74740158Y-20573627D01*
X74758337Y-20590103D01*
X74774813Y-20608282D01*
X74789427Y-20627987D01*
X74802040Y-20649031D01*
X74812530Y-20671209D01*
X74820795Y-20694309D01*
X74826756Y-20718107D01*
X74830356Y-20742376D01*
X74831560Y-20766880D01*
X74831560Y-22016880D01*
X74830356Y-22041384D01*
X74826756Y-22065653D01*
X74820795Y-22089451D01*
X74812530Y-22112551D01*
X74802040Y-22134729D01*
X74789427Y-22155773D01*
X74774813Y-22175478D01*
X74758337Y-22193657D01*
X74740158Y-22210133D01*
X74720453Y-22224747D01*
X74699409Y-22237360D01*
X74677231Y-22247850D01*
X74654131Y-22256115D01*
X74630333Y-22262076D01*
X74606064Y-22265676D01*
X74581560Y-22266880D01*
X73831560Y-22266880D01*
X73807056Y-22265676D01*
X73782787Y-22262076D01*
X73758989Y-22256115D01*
X73735889Y-22247850D01*
X73713711Y-22237360D01*
X73692667Y-22224747D01*
X73672962Y-22210133D01*
X73654783Y-22193657D01*
X73638307Y-22175478D01*
X73623693Y-22155773D01*
X73611080Y-22134729D01*
X73600590Y-22112551D01*
X73592325Y-22089451D01*
X73586364Y-22065653D01*
X73582764Y-22041384D01*
X73581560Y-22016880D01*
X73581560Y-20766880D01*
X73582764Y-20742376D01*
X73586364Y-20718107D01*
X73592325Y-20694309D01*
X73600590Y-20671209D01*
X73611080Y-20649031D01*
X73623693Y-20627987D01*
X73638307Y-20608282D01*
X73654783Y-20590103D01*
X73672962Y-20573627D01*
X73692667Y-20559013D01*
X73713711Y-20546400D01*
X73735889Y-20535910D01*
X73758989Y-20527645D01*
X73782787Y-20521684D01*
X73807056Y-20518084D01*
X73831560Y-20516880D01*
X74581560Y-20516880D01*
X74606064Y-20518084D01*
X74606064Y-20518084D01*
G37*
D11*
X74206560Y-21391880D03*
D10*
G36*
X71806064Y-20518084D02*
G01*
X71830333Y-20521684D01*
X71854131Y-20527645D01*
X71877231Y-20535910D01*
X71899409Y-20546400D01*
X71920453Y-20559013D01*
X71940158Y-20573627D01*
X71958337Y-20590103D01*
X71974813Y-20608282D01*
X71989427Y-20627987D01*
X72002040Y-20649031D01*
X72012530Y-20671209D01*
X72020795Y-20694309D01*
X72026756Y-20718107D01*
X72030356Y-20742376D01*
X72031560Y-20766880D01*
X72031560Y-22016880D01*
X72030356Y-22041384D01*
X72026756Y-22065653D01*
X72020795Y-22089451D01*
X72012530Y-22112551D01*
X72002040Y-22134729D01*
X71989427Y-22155773D01*
X71974813Y-22175478D01*
X71958337Y-22193657D01*
X71940158Y-22210133D01*
X71920453Y-22224747D01*
X71899409Y-22237360D01*
X71877231Y-22247850D01*
X71854131Y-22256115D01*
X71830333Y-22262076D01*
X71806064Y-22265676D01*
X71781560Y-22266880D01*
X71031560Y-22266880D01*
X71007056Y-22265676D01*
X70982787Y-22262076D01*
X70958989Y-22256115D01*
X70935889Y-22247850D01*
X70913711Y-22237360D01*
X70892667Y-22224747D01*
X70872962Y-22210133D01*
X70854783Y-22193657D01*
X70838307Y-22175478D01*
X70823693Y-22155773D01*
X70811080Y-22134729D01*
X70800590Y-22112551D01*
X70792325Y-22089451D01*
X70786364Y-22065653D01*
X70782764Y-22041384D01*
X70781560Y-22016880D01*
X70781560Y-20766880D01*
X70782764Y-20742376D01*
X70786364Y-20718107D01*
X70792325Y-20694309D01*
X70800590Y-20671209D01*
X70811080Y-20649031D01*
X70823693Y-20627987D01*
X70838307Y-20608282D01*
X70854783Y-20590103D01*
X70872962Y-20573627D01*
X70892667Y-20559013D01*
X70913711Y-20546400D01*
X70935889Y-20535910D01*
X70958989Y-20527645D01*
X70982787Y-20521684D01*
X71007056Y-20518084D01*
X71031560Y-20516880D01*
X71781560Y-20516880D01*
X71806064Y-20518084D01*
X71806064Y-20518084D01*
G37*
D11*
X71406560Y-21391880D03*
D10*
G36*
X85862424Y-27330364D02*
G01*
X85886693Y-27333964D01*
X85910491Y-27339925D01*
X85933591Y-27348190D01*
X85955769Y-27358680D01*
X85976813Y-27371293D01*
X85996518Y-27385907D01*
X86014697Y-27402383D01*
X86031173Y-27420562D01*
X86045787Y-27440267D01*
X86058400Y-27461311D01*
X86068890Y-27483489D01*
X86077155Y-27506589D01*
X86083116Y-27530387D01*
X86086716Y-27554656D01*
X86087920Y-27579160D01*
X86087920Y-28829160D01*
X86086716Y-28853664D01*
X86083116Y-28877933D01*
X86077155Y-28901731D01*
X86068890Y-28924831D01*
X86058400Y-28947009D01*
X86045787Y-28968053D01*
X86031173Y-28987758D01*
X86014697Y-29005937D01*
X85996518Y-29022413D01*
X85976813Y-29037027D01*
X85955769Y-29049640D01*
X85933591Y-29060130D01*
X85910491Y-29068395D01*
X85886693Y-29074356D01*
X85862424Y-29077956D01*
X85837920Y-29079160D01*
X85087920Y-29079160D01*
X85063416Y-29077956D01*
X85039147Y-29074356D01*
X85015349Y-29068395D01*
X84992249Y-29060130D01*
X84970071Y-29049640D01*
X84949027Y-29037027D01*
X84929322Y-29022413D01*
X84911143Y-29005937D01*
X84894667Y-28987758D01*
X84880053Y-28968053D01*
X84867440Y-28947009D01*
X84856950Y-28924831D01*
X84848685Y-28901731D01*
X84842724Y-28877933D01*
X84839124Y-28853664D01*
X84837920Y-28829160D01*
X84837920Y-27579160D01*
X84839124Y-27554656D01*
X84842724Y-27530387D01*
X84848685Y-27506589D01*
X84856950Y-27483489D01*
X84867440Y-27461311D01*
X84880053Y-27440267D01*
X84894667Y-27420562D01*
X84911143Y-27402383D01*
X84929322Y-27385907D01*
X84949027Y-27371293D01*
X84970071Y-27358680D01*
X84992249Y-27348190D01*
X85015349Y-27339925D01*
X85039147Y-27333964D01*
X85063416Y-27330364D01*
X85087920Y-27329160D01*
X85837920Y-27329160D01*
X85862424Y-27330364D01*
X85862424Y-27330364D01*
G37*
D11*
X85462920Y-28204160D03*
D10*
G36*
X88662424Y-27330364D02*
G01*
X88686693Y-27333964D01*
X88710491Y-27339925D01*
X88733591Y-27348190D01*
X88755769Y-27358680D01*
X88776813Y-27371293D01*
X88796518Y-27385907D01*
X88814697Y-27402383D01*
X88831173Y-27420562D01*
X88845787Y-27440267D01*
X88858400Y-27461311D01*
X88868890Y-27483489D01*
X88877155Y-27506589D01*
X88883116Y-27530387D01*
X88886716Y-27554656D01*
X88887920Y-27579160D01*
X88887920Y-28829160D01*
X88886716Y-28853664D01*
X88883116Y-28877933D01*
X88877155Y-28901731D01*
X88868890Y-28924831D01*
X88858400Y-28947009D01*
X88845787Y-28968053D01*
X88831173Y-28987758D01*
X88814697Y-29005937D01*
X88796518Y-29022413D01*
X88776813Y-29037027D01*
X88755769Y-29049640D01*
X88733591Y-29060130D01*
X88710491Y-29068395D01*
X88686693Y-29074356D01*
X88662424Y-29077956D01*
X88637920Y-29079160D01*
X87887920Y-29079160D01*
X87863416Y-29077956D01*
X87839147Y-29074356D01*
X87815349Y-29068395D01*
X87792249Y-29060130D01*
X87770071Y-29049640D01*
X87749027Y-29037027D01*
X87729322Y-29022413D01*
X87711143Y-29005937D01*
X87694667Y-28987758D01*
X87680053Y-28968053D01*
X87667440Y-28947009D01*
X87656950Y-28924831D01*
X87648685Y-28901731D01*
X87642724Y-28877933D01*
X87639124Y-28853664D01*
X87637920Y-28829160D01*
X87637920Y-27579160D01*
X87639124Y-27554656D01*
X87642724Y-27530387D01*
X87648685Y-27506589D01*
X87656950Y-27483489D01*
X87667440Y-27461311D01*
X87680053Y-27440267D01*
X87694667Y-27420562D01*
X87711143Y-27402383D01*
X87729322Y-27385907D01*
X87749027Y-27371293D01*
X87770071Y-27358680D01*
X87792249Y-27348190D01*
X87815349Y-27339925D01*
X87839147Y-27333964D01*
X87863416Y-27330364D01*
X87887920Y-27329160D01*
X88637920Y-27329160D01*
X88662424Y-27330364D01*
X88662424Y-27330364D01*
G37*
D11*
X88262920Y-28204160D03*
D10*
G36*
X58712824Y-21264844D02*
G01*
X58737093Y-21268444D01*
X58760891Y-21274405D01*
X58783991Y-21282670D01*
X58806169Y-21293160D01*
X58827213Y-21305773D01*
X58846918Y-21320387D01*
X58865097Y-21336863D01*
X58881573Y-21355042D01*
X58896187Y-21374747D01*
X58908800Y-21395791D01*
X58919290Y-21417969D01*
X58927555Y-21441069D01*
X58933516Y-21464867D01*
X58937116Y-21489136D01*
X58938320Y-21513640D01*
X58938320Y-22763640D01*
X58937116Y-22788144D01*
X58933516Y-22812413D01*
X58927555Y-22836211D01*
X58919290Y-22859311D01*
X58908800Y-22881489D01*
X58896187Y-22902533D01*
X58881573Y-22922238D01*
X58865097Y-22940417D01*
X58846918Y-22956893D01*
X58827213Y-22971507D01*
X58806169Y-22984120D01*
X58783991Y-22994610D01*
X58760891Y-23002875D01*
X58737093Y-23008836D01*
X58712824Y-23012436D01*
X58688320Y-23013640D01*
X57938320Y-23013640D01*
X57913816Y-23012436D01*
X57889547Y-23008836D01*
X57865749Y-23002875D01*
X57842649Y-22994610D01*
X57820471Y-22984120D01*
X57799427Y-22971507D01*
X57779722Y-22956893D01*
X57761543Y-22940417D01*
X57745067Y-22922238D01*
X57730453Y-22902533D01*
X57717840Y-22881489D01*
X57707350Y-22859311D01*
X57699085Y-22836211D01*
X57693124Y-22812413D01*
X57689524Y-22788144D01*
X57688320Y-22763640D01*
X57688320Y-21513640D01*
X57689524Y-21489136D01*
X57693124Y-21464867D01*
X57699085Y-21441069D01*
X57707350Y-21417969D01*
X57717840Y-21395791D01*
X57730453Y-21374747D01*
X57745067Y-21355042D01*
X57761543Y-21336863D01*
X57779722Y-21320387D01*
X57799427Y-21305773D01*
X57820471Y-21293160D01*
X57842649Y-21282670D01*
X57865749Y-21274405D01*
X57889547Y-21268444D01*
X57913816Y-21264844D01*
X57938320Y-21263640D01*
X58688320Y-21263640D01*
X58712824Y-21264844D01*
X58712824Y-21264844D01*
G37*
D11*
X58313320Y-22138640D03*
D10*
G36*
X55912824Y-21264844D02*
G01*
X55937093Y-21268444D01*
X55960891Y-21274405D01*
X55983991Y-21282670D01*
X56006169Y-21293160D01*
X56027213Y-21305773D01*
X56046918Y-21320387D01*
X56065097Y-21336863D01*
X56081573Y-21355042D01*
X56096187Y-21374747D01*
X56108800Y-21395791D01*
X56119290Y-21417969D01*
X56127555Y-21441069D01*
X56133516Y-21464867D01*
X56137116Y-21489136D01*
X56138320Y-21513640D01*
X56138320Y-22763640D01*
X56137116Y-22788144D01*
X56133516Y-22812413D01*
X56127555Y-22836211D01*
X56119290Y-22859311D01*
X56108800Y-22881489D01*
X56096187Y-22902533D01*
X56081573Y-22922238D01*
X56065097Y-22940417D01*
X56046918Y-22956893D01*
X56027213Y-22971507D01*
X56006169Y-22984120D01*
X55983991Y-22994610D01*
X55960891Y-23002875D01*
X55937093Y-23008836D01*
X55912824Y-23012436D01*
X55888320Y-23013640D01*
X55138320Y-23013640D01*
X55113816Y-23012436D01*
X55089547Y-23008836D01*
X55065749Y-23002875D01*
X55042649Y-22994610D01*
X55020471Y-22984120D01*
X54999427Y-22971507D01*
X54979722Y-22956893D01*
X54961543Y-22940417D01*
X54945067Y-22922238D01*
X54930453Y-22902533D01*
X54917840Y-22881489D01*
X54907350Y-22859311D01*
X54899085Y-22836211D01*
X54893124Y-22812413D01*
X54889524Y-22788144D01*
X54888320Y-22763640D01*
X54888320Y-21513640D01*
X54889524Y-21489136D01*
X54893124Y-21464867D01*
X54899085Y-21441069D01*
X54907350Y-21417969D01*
X54917840Y-21395791D01*
X54930453Y-21374747D01*
X54945067Y-21355042D01*
X54961543Y-21336863D01*
X54979722Y-21320387D01*
X54999427Y-21305773D01*
X55020471Y-21293160D01*
X55042649Y-21282670D01*
X55065749Y-21274405D01*
X55089547Y-21268444D01*
X55113816Y-21264844D01*
X55138320Y-21263640D01*
X55888320Y-21263640D01*
X55912824Y-21264844D01*
X55912824Y-21264844D01*
G37*
D11*
X55513320Y-22138640D03*
D10*
G36*
X55912824Y-27431964D02*
G01*
X55937093Y-27435564D01*
X55960891Y-27441525D01*
X55983991Y-27449790D01*
X56006169Y-27460280D01*
X56027213Y-27472893D01*
X56046918Y-27487507D01*
X56065097Y-27503983D01*
X56081573Y-27522162D01*
X56096187Y-27541867D01*
X56108800Y-27562911D01*
X56119290Y-27585089D01*
X56127555Y-27608189D01*
X56133516Y-27631987D01*
X56137116Y-27656256D01*
X56138320Y-27680760D01*
X56138320Y-28930760D01*
X56137116Y-28955264D01*
X56133516Y-28979533D01*
X56127555Y-29003331D01*
X56119290Y-29026431D01*
X56108800Y-29048609D01*
X56096187Y-29069653D01*
X56081573Y-29089358D01*
X56065097Y-29107537D01*
X56046918Y-29124013D01*
X56027213Y-29138627D01*
X56006169Y-29151240D01*
X55983991Y-29161730D01*
X55960891Y-29169995D01*
X55937093Y-29175956D01*
X55912824Y-29179556D01*
X55888320Y-29180760D01*
X55138320Y-29180760D01*
X55113816Y-29179556D01*
X55089547Y-29175956D01*
X55065749Y-29169995D01*
X55042649Y-29161730D01*
X55020471Y-29151240D01*
X54999427Y-29138627D01*
X54979722Y-29124013D01*
X54961543Y-29107537D01*
X54945067Y-29089358D01*
X54930453Y-29069653D01*
X54917840Y-29048609D01*
X54907350Y-29026431D01*
X54899085Y-29003331D01*
X54893124Y-28979533D01*
X54889524Y-28955264D01*
X54888320Y-28930760D01*
X54888320Y-27680760D01*
X54889524Y-27656256D01*
X54893124Y-27631987D01*
X54899085Y-27608189D01*
X54907350Y-27585089D01*
X54917840Y-27562911D01*
X54930453Y-27541867D01*
X54945067Y-27522162D01*
X54961543Y-27503983D01*
X54979722Y-27487507D01*
X54999427Y-27472893D01*
X55020471Y-27460280D01*
X55042649Y-27449790D01*
X55065749Y-27441525D01*
X55089547Y-27435564D01*
X55113816Y-27431964D01*
X55138320Y-27430760D01*
X55888320Y-27430760D01*
X55912824Y-27431964D01*
X55912824Y-27431964D01*
G37*
D11*
X55513320Y-28305760D03*
D10*
G36*
X58712824Y-27431964D02*
G01*
X58737093Y-27435564D01*
X58760891Y-27441525D01*
X58783991Y-27449790D01*
X58806169Y-27460280D01*
X58827213Y-27472893D01*
X58846918Y-27487507D01*
X58865097Y-27503983D01*
X58881573Y-27522162D01*
X58896187Y-27541867D01*
X58908800Y-27562911D01*
X58919290Y-27585089D01*
X58927555Y-27608189D01*
X58933516Y-27631987D01*
X58937116Y-27656256D01*
X58938320Y-27680760D01*
X58938320Y-28930760D01*
X58937116Y-28955264D01*
X58933516Y-28979533D01*
X58927555Y-29003331D01*
X58919290Y-29026431D01*
X58908800Y-29048609D01*
X58896187Y-29069653D01*
X58881573Y-29089358D01*
X58865097Y-29107537D01*
X58846918Y-29124013D01*
X58827213Y-29138627D01*
X58806169Y-29151240D01*
X58783991Y-29161730D01*
X58760891Y-29169995D01*
X58737093Y-29175956D01*
X58712824Y-29179556D01*
X58688320Y-29180760D01*
X57938320Y-29180760D01*
X57913816Y-29179556D01*
X57889547Y-29175956D01*
X57865749Y-29169995D01*
X57842649Y-29161730D01*
X57820471Y-29151240D01*
X57799427Y-29138627D01*
X57779722Y-29124013D01*
X57761543Y-29107537D01*
X57745067Y-29089358D01*
X57730453Y-29069653D01*
X57717840Y-29048609D01*
X57707350Y-29026431D01*
X57699085Y-29003331D01*
X57693124Y-28979533D01*
X57689524Y-28955264D01*
X57688320Y-28930760D01*
X57688320Y-27680760D01*
X57689524Y-27656256D01*
X57693124Y-27631987D01*
X57699085Y-27608189D01*
X57707350Y-27585089D01*
X57717840Y-27562911D01*
X57730453Y-27541867D01*
X57745067Y-27522162D01*
X57761543Y-27503983D01*
X57779722Y-27487507D01*
X57799427Y-27472893D01*
X57820471Y-27460280D01*
X57842649Y-27449790D01*
X57865749Y-27441525D01*
X57889547Y-27435564D01*
X57913816Y-27431964D01*
X57938320Y-27430760D01*
X58688320Y-27430760D01*
X58712824Y-27431964D01*
X58712824Y-27431964D01*
G37*
D11*
X58313320Y-28305760D03*
D10*
G36*
X58905864Y-67000084D02*
G01*
X58930133Y-67003684D01*
X58953931Y-67009645D01*
X58977031Y-67017910D01*
X58999209Y-67028400D01*
X59020253Y-67041013D01*
X59039958Y-67055627D01*
X59058137Y-67072103D01*
X59074613Y-67090282D01*
X59089227Y-67109987D01*
X59101840Y-67131031D01*
X59112330Y-67153209D01*
X59120595Y-67176309D01*
X59126556Y-67200107D01*
X59130156Y-67224376D01*
X59131360Y-67248880D01*
X59131360Y-68498880D01*
X59130156Y-68523384D01*
X59126556Y-68547653D01*
X59120595Y-68571451D01*
X59112330Y-68594551D01*
X59101840Y-68616729D01*
X59089227Y-68637773D01*
X59074613Y-68657478D01*
X59058137Y-68675657D01*
X59039958Y-68692133D01*
X59020253Y-68706747D01*
X58999209Y-68719360D01*
X58977031Y-68729850D01*
X58953931Y-68738115D01*
X58930133Y-68744076D01*
X58905864Y-68747676D01*
X58881360Y-68748880D01*
X58131360Y-68748880D01*
X58106856Y-68747676D01*
X58082587Y-68744076D01*
X58058789Y-68738115D01*
X58035689Y-68729850D01*
X58013511Y-68719360D01*
X57992467Y-68706747D01*
X57972762Y-68692133D01*
X57954583Y-68675657D01*
X57938107Y-68657478D01*
X57923493Y-68637773D01*
X57910880Y-68616729D01*
X57900390Y-68594551D01*
X57892125Y-68571451D01*
X57886164Y-68547653D01*
X57882564Y-68523384D01*
X57881360Y-68498880D01*
X57881360Y-67248880D01*
X57882564Y-67224376D01*
X57886164Y-67200107D01*
X57892125Y-67176309D01*
X57900390Y-67153209D01*
X57910880Y-67131031D01*
X57923493Y-67109987D01*
X57938107Y-67090282D01*
X57954583Y-67072103D01*
X57972762Y-67055627D01*
X57992467Y-67041013D01*
X58013511Y-67028400D01*
X58035689Y-67017910D01*
X58058789Y-67009645D01*
X58082587Y-67003684D01*
X58106856Y-67000084D01*
X58131360Y-66998880D01*
X58881360Y-66998880D01*
X58905864Y-67000084D01*
X58905864Y-67000084D01*
G37*
D11*
X58506360Y-67873880D03*
D10*
G36*
X56105864Y-67000084D02*
G01*
X56130133Y-67003684D01*
X56153931Y-67009645D01*
X56177031Y-67017910D01*
X56199209Y-67028400D01*
X56220253Y-67041013D01*
X56239958Y-67055627D01*
X56258137Y-67072103D01*
X56274613Y-67090282D01*
X56289227Y-67109987D01*
X56301840Y-67131031D01*
X56312330Y-67153209D01*
X56320595Y-67176309D01*
X56326556Y-67200107D01*
X56330156Y-67224376D01*
X56331360Y-67248880D01*
X56331360Y-68498880D01*
X56330156Y-68523384D01*
X56326556Y-68547653D01*
X56320595Y-68571451D01*
X56312330Y-68594551D01*
X56301840Y-68616729D01*
X56289227Y-68637773D01*
X56274613Y-68657478D01*
X56258137Y-68675657D01*
X56239958Y-68692133D01*
X56220253Y-68706747D01*
X56199209Y-68719360D01*
X56177031Y-68729850D01*
X56153931Y-68738115D01*
X56130133Y-68744076D01*
X56105864Y-68747676D01*
X56081360Y-68748880D01*
X55331360Y-68748880D01*
X55306856Y-68747676D01*
X55282587Y-68744076D01*
X55258789Y-68738115D01*
X55235689Y-68729850D01*
X55213511Y-68719360D01*
X55192467Y-68706747D01*
X55172762Y-68692133D01*
X55154583Y-68675657D01*
X55138107Y-68657478D01*
X55123493Y-68637773D01*
X55110880Y-68616729D01*
X55100390Y-68594551D01*
X55092125Y-68571451D01*
X55086164Y-68547653D01*
X55082564Y-68523384D01*
X55081360Y-68498880D01*
X55081360Y-67248880D01*
X55082564Y-67224376D01*
X55086164Y-67200107D01*
X55092125Y-67176309D01*
X55100390Y-67153209D01*
X55110880Y-67131031D01*
X55123493Y-67109987D01*
X55138107Y-67090282D01*
X55154583Y-67072103D01*
X55172762Y-67055627D01*
X55192467Y-67041013D01*
X55213511Y-67028400D01*
X55235689Y-67017910D01*
X55258789Y-67009645D01*
X55282587Y-67003684D01*
X55306856Y-67000084D01*
X55331360Y-66998880D01*
X56081360Y-66998880D01*
X56105864Y-67000084D01*
X56105864Y-67000084D01*
G37*
D11*
X55706360Y-67873880D03*
D10*
G36*
X63076544Y-72557604D02*
G01*
X63100813Y-72561204D01*
X63124611Y-72567165D01*
X63147711Y-72575430D01*
X63169889Y-72585920D01*
X63190933Y-72598533D01*
X63210638Y-72613147D01*
X63228817Y-72629623D01*
X63245293Y-72647802D01*
X63259907Y-72667507D01*
X63272520Y-72688551D01*
X63283010Y-72710729D01*
X63291275Y-72733829D01*
X63297236Y-72757627D01*
X63300836Y-72781896D01*
X63302040Y-72806400D01*
X63302040Y-74056400D01*
X63300836Y-74080904D01*
X63297236Y-74105173D01*
X63291275Y-74128971D01*
X63283010Y-74152071D01*
X63272520Y-74174249D01*
X63259907Y-74195293D01*
X63245293Y-74214998D01*
X63228817Y-74233177D01*
X63210638Y-74249653D01*
X63190933Y-74264267D01*
X63169889Y-74276880D01*
X63147711Y-74287370D01*
X63124611Y-74295635D01*
X63100813Y-74301596D01*
X63076544Y-74305196D01*
X63052040Y-74306400D01*
X62302040Y-74306400D01*
X62277536Y-74305196D01*
X62253267Y-74301596D01*
X62229469Y-74295635D01*
X62206369Y-74287370D01*
X62184191Y-74276880D01*
X62163147Y-74264267D01*
X62143442Y-74249653D01*
X62125263Y-74233177D01*
X62108787Y-74214998D01*
X62094173Y-74195293D01*
X62081560Y-74174249D01*
X62071070Y-74152071D01*
X62062805Y-74128971D01*
X62056844Y-74105173D01*
X62053244Y-74080904D01*
X62052040Y-74056400D01*
X62052040Y-72806400D01*
X62053244Y-72781896D01*
X62056844Y-72757627D01*
X62062805Y-72733829D01*
X62071070Y-72710729D01*
X62081560Y-72688551D01*
X62094173Y-72667507D01*
X62108787Y-72647802D01*
X62125263Y-72629623D01*
X62143442Y-72613147D01*
X62163147Y-72598533D01*
X62184191Y-72585920D01*
X62206369Y-72575430D01*
X62229469Y-72567165D01*
X62253267Y-72561204D01*
X62277536Y-72557604D01*
X62302040Y-72556400D01*
X63052040Y-72556400D01*
X63076544Y-72557604D01*
X63076544Y-72557604D01*
G37*
D11*
X62677040Y-73431400D03*
D10*
G36*
X65876544Y-72557604D02*
G01*
X65900813Y-72561204D01*
X65924611Y-72567165D01*
X65947711Y-72575430D01*
X65969889Y-72585920D01*
X65990933Y-72598533D01*
X66010638Y-72613147D01*
X66028817Y-72629623D01*
X66045293Y-72647802D01*
X66059907Y-72667507D01*
X66072520Y-72688551D01*
X66083010Y-72710729D01*
X66091275Y-72733829D01*
X66097236Y-72757627D01*
X66100836Y-72781896D01*
X66102040Y-72806400D01*
X66102040Y-74056400D01*
X66100836Y-74080904D01*
X66097236Y-74105173D01*
X66091275Y-74128971D01*
X66083010Y-74152071D01*
X66072520Y-74174249D01*
X66059907Y-74195293D01*
X66045293Y-74214998D01*
X66028817Y-74233177D01*
X66010638Y-74249653D01*
X65990933Y-74264267D01*
X65969889Y-74276880D01*
X65947711Y-74287370D01*
X65924611Y-74295635D01*
X65900813Y-74301596D01*
X65876544Y-74305196D01*
X65852040Y-74306400D01*
X65102040Y-74306400D01*
X65077536Y-74305196D01*
X65053267Y-74301596D01*
X65029469Y-74295635D01*
X65006369Y-74287370D01*
X64984191Y-74276880D01*
X64963147Y-74264267D01*
X64943442Y-74249653D01*
X64925263Y-74233177D01*
X64908787Y-74214998D01*
X64894173Y-74195293D01*
X64881560Y-74174249D01*
X64871070Y-74152071D01*
X64862805Y-74128971D01*
X64856844Y-74105173D01*
X64853244Y-74080904D01*
X64852040Y-74056400D01*
X64852040Y-72806400D01*
X64853244Y-72781896D01*
X64856844Y-72757627D01*
X64862805Y-72733829D01*
X64871070Y-72710729D01*
X64881560Y-72688551D01*
X64894173Y-72667507D01*
X64908787Y-72647802D01*
X64925263Y-72629623D01*
X64943442Y-72613147D01*
X64963147Y-72598533D01*
X64984191Y-72585920D01*
X65006369Y-72575430D01*
X65029469Y-72567165D01*
X65053267Y-72561204D01*
X65077536Y-72557604D01*
X65102040Y-72556400D01*
X65852040Y-72556400D01*
X65876544Y-72557604D01*
X65876544Y-72557604D01*
G37*
D11*
X65477040Y-73431400D03*
D10*
G36*
X88215384Y-39380124D02*
G01*
X88239653Y-39383724D01*
X88263451Y-39389685D01*
X88286551Y-39397950D01*
X88308729Y-39408440D01*
X88329773Y-39421053D01*
X88349478Y-39435667D01*
X88367657Y-39452143D01*
X88384133Y-39470322D01*
X88398747Y-39490027D01*
X88411360Y-39511071D01*
X88421850Y-39533249D01*
X88430115Y-39556349D01*
X88436076Y-39580147D01*
X88439676Y-39604416D01*
X88440880Y-39628920D01*
X88440880Y-40878920D01*
X88439676Y-40903424D01*
X88436076Y-40927693D01*
X88430115Y-40951491D01*
X88421850Y-40974591D01*
X88411360Y-40996769D01*
X88398747Y-41017813D01*
X88384133Y-41037518D01*
X88367657Y-41055697D01*
X88349478Y-41072173D01*
X88329773Y-41086787D01*
X88308729Y-41099400D01*
X88286551Y-41109890D01*
X88263451Y-41118155D01*
X88239653Y-41124116D01*
X88215384Y-41127716D01*
X88190880Y-41128920D01*
X87440880Y-41128920D01*
X87416376Y-41127716D01*
X87392107Y-41124116D01*
X87368309Y-41118155D01*
X87345209Y-41109890D01*
X87323031Y-41099400D01*
X87301987Y-41086787D01*
X87282282Y-41072173D01*
X87264103Y-41055697D01*
X87247627Y-41037518D01*
X87233013Y-41017813D01*
X87220400Y-40996769D01*
X87209910Y-40974591D01*
X87201645Y-40951491D01*
X87195684Y-40927693D01*
X87192084Y-40903424D01*
X87190880Y-40878920D01*
X87190880Y-39628920D01*
X87192084Y-39604416D01*
X87195684Y-39580147D01*
X87201645Y-39556349D01*
X87209910Y-39533249D01*
X87220400Y-39511071D01*
X87233013Y-39490027D01*
X87247627Y-39470322D01*
X87264103Y-39452143D01*
X87282282Y-39435667D01*
X87301987Y-39421053D01*
X87323031Y-39408440D01*
X87345209Y-39397950D01*
X87368309Y-39389685D01*
X87392107Y-39383724D01*
X87416376Y-39380124D01*
X87440880Y-39378920D01*
X88190880Y-39378920D01*
X88215384Y-39380124D01*
X88215384Y-39380124D01*
G37*
D11*
X87815880Y-40253920D03*
D10*
G36*
X85415384Y-39380124D02*
G01*
X85439653Y-39383724D01*
X85463451Y-39389685D01*
X85486551Y-39397950D01*
X85508729Y-39408440D01*
X85529773Y-39421053D01*
X85549478Y-39435667D01*
X85567657Y-39452143D01*
X85584133Y-39470322D01*
X85598747Y-39490027D01*
X85611360Y-39511071D01*
X85621850Y-39533249D01*
X85630115Y-39556349D01*
X85636076Y-39580147D01*
X85639676Y-39604416D01*
X85640880Y-39628920D01*
X85640880Y-40878920D01*
X85639676Y-40903424D01*
X85636076Y-40927693D01*
X85630115Y-40951491D01*
X85621850Y-40974591D01*
X85611360Y-40996769D01*
X85598747Y-41017813D01*
X85584133Y-41037518D01*
X85567657Y-41055697D01*
X85549478Y-41072173D01*
X85529773Y-41086787D01*
X85508729Y-41099400D01*
X85486551Y-41109890D01*
X85463451Y-41118155D01*
X85439653Y-41124116D01*
X85415384Y-41127716D01*
X85390880Y-41128920D01*
X84640880Y-41128920D01*
X84616376Y-41127716D01*
X84592107Y-41124116D01*
X84568309Y-41118155D01*
X84545209Y-41109890D01*
X84523031Y-41099400D01*
X84501987Y-41086787D01*
X84482282Y-41072173D01*
X84464103Y-41055697D01*
X84447627Y-41037518D01*
X84433013Y-41017813D01*
X84420400Y-40996769D01*
X84409910Y-40974591D01*
X84401645Y-40951491D01*
X84395684Y-40927693D01*
X84392084Y-40903424D01*
X84390880Y-40878920D01*
X84390880Y-39628920D01*
X84392084Y-39604416D01*
X84395684Y-39580147D01*
X84401645Y-39556349D01*
X84409910Y-39533249D01*
X84420400Y-39511071D01*
X84433013Y-39490027D01*
X84447627Y-39470322D01*
X84464103Y-39452143D01*
X84482282Y-39435667D01*
X84501987Y-39421053D01*
X84523031Y-39408440D01*
X84545209Y-39397950D01*
X84568309Y-39389685D01*
X84592107Y-39383724D01*
X84616376Y-39380124D01*
X84640880Y-39378920D01*
X85390880Y-39378920D01*
X85415384Y-39380124D01*
X85415384Y-39380124D01*
G37*
D11*
X85015880Y-40253920D03*
D10*
G36*
X55912824Y-18044124D02*
G01*
X55937093Y-18047724D01*
X55960891Y-18053685D01*
X55983991Y-18061950D01*
X56006169Y-18072440D01*
X56027213Y-18085053D01*
X56046918Y-18099667D01*
X56065097Y-18116143D01*
X56081573Y-18134322D01*
X56096187Y-18154027D01*
X56108800Y-18175071D01*
X56119290Y-18197249D01*
X56127555Y-18220349D01*
X56133516Y-18244147D01*
X56137116Y-18268416D01*
X56138320Y-18292920D01*
X56138320Y-19542920D01*
X56137116Y-19567424D01*
X56133516Y-19591693D01*
X56127555Y-19615491D01*
X56119290Y-19638591D01*
X56108800Y-19660769D01*
X56096187Y-19681813D01*
X56081573Y-19701518D01*
X56065097Y-19719697D01*
X56046918Y-19736173D01*
X56027213Y-19750787D01*
X56006169Y-19763400D01*
X55983991Y-19773890D01*
X55960891Y-19782155D01*
X55937093Y-19788116D01*
X55912824Y-19791716D01*
X55888320Y-19792920D01*
X55138320Y-19792920D01*
X55113816Y-19791716D01*
X55089547Y-19788116D01*
X55065749Y-19782155D01*
X55042649Y-19773890D01*
X55020471Y-19763400D01*
X54999427Y-19750787D01*
X54979722Y-19736173D01*
X54961543Y-19719697D01*
X54945067Y-19701518D01*
X54930453Y-19681813D01*
X54917840Y-19660769D01*
X54907350Y-19638591D01*
X54899085Y-19615491D01*
X54893124Y-19591693D01*
X54889524Y-19567424D01*
X54888320Y-19542920D01*
X54888320Y-18292920D01*
X54889524Y-18268416D01*
X54893124Y-18244147D01*
X54899085Y-18220349D01*
X54907350Y-18197249D01*
X54917840Y-18175071D01*
X54930453Y-18154027D01*
X54945067Y-18134322D01*
X54961543Y-18116143D01*
X54979722Y-18099667D01*
X54999427Y-18085053D01*
X55020471Y-18072440D01*
X55042649Y-18061950D01*
X55065749Y-18053685D01*
X55089547Y-18047724D01*
X55113816Y-18044124D01*
X55138320Y-18042920D01*
X55888320Y-18042920D01*
X55912824Y-18044124D01*
X55912824Y-18044124D01*
G37*
D11*
X55513320Y-18917920D03*
D10*
G36*
X58712824Y-18044124D02*
G01*
X58737093Y-18047724D01*
X58760891Y-18053685D01*
X58783991Y-18061950D01*
X58806169Y-18072440D01*
X58827213Y-18085053D01*
X58846918Y-18099667D01*
X58865097Y-18116143D01*
X58881573Y-18134322D01*
X58896187Y-18154027D01*
X58908800Y-18175071D01*
X58919290Y-18197249D01*
X58927555Y-18220349D01*
X58933516Y-18244147D01*
X58937116Y-18268416D01*
X58938320Y-18292920D01*
X58938320Y-19542920D01*
X58937116Y-19567424D01*
X58933516Y-19591693D01*
X58927555Y-19615491D01*
X58919290Y-19638591D01*
X58908800Y-19660769D01*
X58896187Y-19681813D01*
X58881573Y-19701518D01*
X58865097Y-19719697D01*
X58846918Y-19736173D01*
X58827213Y-19750787D01*
X58806169Y-19763400D01*
X58783991Y-19773890D01*
X58760891Y-19782155D01*
X58737093Y-19788116D01*
X58712824Y-19791716D01*
X58688320Y-19792920D01*
X57938320Y-19792920D01*
X57913816Y-19791716D01*
X57889547Y-19788116D01*
X57865749Y-19782155D01*
X57842649Y-19773890D01*
X57820471Y-19763400D01*
X57799427Y-19750787D01*
X57779722Y-19736173D01*
X57761543Y-19719697D01*
X57745067Y-19701518D01*
X57730453Y-19681813D01*
X57717840Y-19660769D01*
X57707350Y-19638591D01*
X57699085Y-19615491D01*
X57693124Y-19591693D01*
X57689524Y-19567424D01*
X57688320Y-19542920D01*
X57688320Y-18292920D01*
X57689524Y-18268416D01*
X57693124Y-18244147D01*
X57699085Y-18220349D01*
X57707350Y-18197249D01*
X57717840Y-18175071D01*
X57730453Y-18154027D01*
X57745067Y-18134322D01*
X57761543Y-18116143D01*
X57779722Y-18099667D01*
X57799427Y-18085053D01*
X57820471Y-18072440D01*
X57842649Y-18061950D01*
X57865749Y-18053685D01*
X57889547Y-18047724D01*
X57913816Y-18044124D01*
X57938320Y-18042920D01*
X58688320Y-18042920D01*
X58712824Y-18044124D01*
X58712824Y-18044124D01*
G37*
D11*
X58313320Y-18917920D03*
D10*
G36*
X58712824Y-24404284D02*
G01*
X58737093Y-24407884D01*
X58760891Y-24413845D01*
X58783991Y-24422110D01*
X58806169Y-24432600D01*
X58827213Y-24445213D01*
X58846918Y-24459827D01*
X58865097Y-24476303D01*
X58881573Y-24494482D01*
X58896187Y-24514187D01*
X58908800Y-24535231D01*
X58919290Y-24557409D01*
X58927555Y-24580509D01*
X58933516Y-24604307D01*
X58937116Y-24628576D01*
X58938320Y-24653080D01*
X58938320Y-25903080D01*
X58937116Y-25927584D01*
X58933516Y-25951853D01*
X58927555Y-25975651D01*
X58919290Y-25998751D01*
X58908800Y-26020929D01*
X58896187Y-26041973D01*
X58881573Y-26061678D01*
X58865097Y-26079857D01*
X58846918Y-26096333D01*
X58827213Y-26110947D01*
X58806169Y-26123560D01*
X58783991Y-26134050D01*
X58760891Y-26142315D01*
X58737093Y-26148276D01*
X58712824Y-26151876D01*
X58688320Y-26153080D01*
X57938320Y-26153080D01*
X57913816Y-26151876D01*
X57889547Y-26148276D01*
X57865749Y-26142315D01*
X57842649Y-26134050D01*
X57820471Y-26123560D01*
X57799427Y-26110947D01*
X57779722Y-26096333D01*
X57761543Y-26079857D01*
X57745067Y-26061678D01*
X57730453Y-26041973D01*
X57717840Y-26020929D01*
X57707350Y-25998751D01*
X57699085Y-25975651D01*
X57693124Y-25951853D01*
X57689524Y-25927584D01*
X57688320Y-25903080D01*
X57688320Y-24653080D01*
X57689524Y-24628576D01*
X57693124Y-24604307D01*
X57699085Y-24580509D01*
X57707350Y-24557409D01*
X57717840Y-24535231D01*
X57730453Y-24514187D01*
X57745067Y-24494482D01*
X57761543Y-24476303D01*
X57779722Y-24459827D01*
X57799427Y-24445213D01*
X57820471Y-24432600D01*
X57842649Y-24422110D01*
X57865749Y-24413845D01*
X57889547Y-24407884D01*
X57913816Y-24404284D01*
X57938320Y-24403080D01*
X58688320Y-24403080D01*
X58712824Y-24404284D01*
X58712824Y-24404284D01*
G37*
D11*
X58313320Y-25278080D03*
D10*
G36*
X55912824Y-24404284D02*
G01*
X55937093Y-24407884D01*
X55960891Y-24413845D01*
X55983991Y-24422110D01*
X56006169Y-24432600D01*
X56027213Y-24445213D01*
X56046918Y-24459827D01*
X56065097Y-24476303D01*
X56081573Y-24494482D01*
X56096187Y-24514187D01*
X56108800Y-24535231D01*
X56119290Y-24557409D01*
X56127555Y-24580509D01*
X56133516Y-24604307D01*
X56137116Y-24628576D01*
X56138320Y-24653080D01*
X56138320Y-25903080D01*
X56137116Y-25927584D01*
X56133516Y-25951853D01*
X56127555Y-25975651D01*
X56119290Y-25998751D01*
X56108800Y-26020929D01*
X56096187Y-26041973D01*
X56081573Y-26061678D01*
X56065097Y-26079857D01*
X56046918Y-26096333D01*
X56027213Y-26110947D01*
X56006169Y-26123560D01*
X55983991Y-26134050D01*
X55960891Y-26142315D01*
X55937093Y-26148276D01*
X55912824Y-26151876D01*
X55888320Y-26153080D01*
X55138320Y-26153080D01*
X55113816Y-26151876D01*
X55089547Y-26148276D01*
X55065749Y-26142315D01*
X55042649Y-26134050D01*
X55020471Y-26123560D01*
X54999427Y-26110947D01*
X54979722Y-26096333D01*
X54961543Y-26079857D01*
X54945067Y-26061678D01*
X54930453Y-26041973D01*
X54917840Y-26020929D01*
X54907350Y-25998751D01*
X54899085Y-25975651D01*
X54893124Y-25951853D01*
X54889524Y-25927584D01*
X54888320Y-25903080D01*
X54888320Y-24653080D01*
X54889524Y-24628576D01*
X54893124Y-24604307D01*
X54899085Y-24580509D01*
X54907350Y-24557409D01*
X54917840Y-24535231D01*
X54930453Y-24514187D01*
X54945067Y-24494482D01*
X54961543Y-24476303D01*
X54979722Y-24459827D01*
X54999427Y-24445213D01*
X55020471Y-24432600D01*
X55042649Y-24422110D01*
X55065749Y-24413845D01*
X55089547Y-24407884D01*
X55113816Y-24404284D01*
X55138320Y-24403080D01*
X55888320Y-24403080D01*
X55912824Y-24404284D01*
X55912824Y-24404284D01*
G37*
D11*
X55513320Y-25278080D03*
D10*
G36*
X55912824Y-34259484D02*
G01*
X55937093Y-34263084D01*
X55960891Y-34269045D01*
X55983991Y-34277310D01*
X56006169Y-34287800D01*
X56027213Y-34300413D01*
X56046918Y-34315027D01*
X56065097Y-34331503D01*
X56081573Y-34349682D01*
X56096187Y-34369387D01*
X56108800Y-34390431D01*
X56119290Y-34412609D01*
X56127555Y-34435709D01*
X56133516Y-34459507D01*
X56137116Y-34483776D01*
X56138320Y-34508280D01*
X56138320Y-35758280D01*
X56137116Y-35782784D01*
X56133516Y-35807053D01*
X56127555Y-35830851D01*
X56119290Y-35853951D01*
X56108800Y-35876129D01*
X56096187Y-35897173D01*
X56081573Y-35916878D01*
X56065097Y-35935057D01*
X56046918Y-35951533D01*
X56027213Y-35966147D01*
X56006169Y-35978760D01*
X55983991Y-35989250D01*
X55960891Y-35997515D01*
X55937093Y-36003476D01*
X55912824Y-36007076D01*
X55888320Y-36008280D01*
X55138320Y-36008280D01*
X55113816Y-36007076D01*
X55089547Y-36003476D01*
X55065749Y-35997515D01*
X55042649Y-35989250D01*
X55020471Y-35978760D01*
X54999427Y-35966147D01*
X54979722Y-35951533D01*
X54961543Y-35935057D01*
X54945067Y-35916878D01*
X54930453Y-35897173D01*
X54917840Y-35876129D01*
X54907350Y-35853951D01*
X54899085Y-35830851D01*
X54893124Y-35807053D01*
X54889524Y-35782784D01*
X54888320Y-35758280D01*
X54888320Y-34508280D01*
X54889524Y-34483776D01*
X54893124Y-34459507D01*
X54899085Y-34435709D01*
X54907350Y-34412609D01*
X54917840Y-34390431D01*
X54930453Y-34369387D01*
X54945067Y-34349682D01*
X54961543Y-34331503D01*
X54979722Y-34315027D01*
X54999427Y-34300413D01*
X55020471Y-34287800D01*
X55042649Y-34277310D01*
X55065749Y-34269045D01*
X55089547Y-34263084D01*
X55113816Y-34259484D01*
X55138320Y-34258280D01*
X55888320Y-34258280D01*
X55912824Y-34259484D01*
X55912824Y-34259484D01*
G37*
D11*
X55513320Y-35133280D03*
D10*
G36*
X58712824Y-34259484D02*
G01*
X58737093Y-34263084D01*
X58760891Y-34269045D01*
X58783991Y-34277310D01*
X58806169Y-34287800D01*
X58827213Y-34300413D01*
X58846918Y-34315027D01*
X58865097Y-34331503D01*
X58881573Y-34349682D01*
X58896187Y-34369387D01*
X58908800Y-34390431D01*
X58919290Y-34412609D01*
X58927555Y-34435709D01*
X58933516Y-34459507D01*
X58937116Y-34483776D01*
X58938320Y-34508280D01*
X58938320Y-35758280D01*
X58937116Y-35782784D01*
X58933516Y-35807053D01*
X58927555Y-35830851D01*
X58919290Y-35853951D01*
X58908800Y-35876129D01*
X58896187Y-35897173D01*
X58881573Y-35916878D01*
X58865097Y-35935057D01*
X58846918Y-35951533D01*
X58827213Y-35966147D01*
X58806169Y-35978760D01*
X58783991Y-35989250D01*
X58760891Y-35997515D01*
X58737093Y-36003476D01*
X58712824Y-36007076D01*
X58688320Y-36008280D01*
X57938320Y-36008280D01*
X57913816Y-36007076D01*
X57889547Y-36003476D01*
X57865749Y-35997515D01*
X57842649Y-35989250D01*
X57820471Y-35978760D01*
X57799427Y-35966147D01*
X57779722Y-35951533D01*
X57761543Y-35935057D01*
X57745067Y-35916878D01*
X57730453Y-35897173D01*
X57717840Y-35876129D01*
X57707350Y-35853951D01*
X57699085Y-35830851D01*
X57693124Y-35807053D01*
X57689524Y-35782784D01*
X57688320Y-35758280D01*
X57688320Y-34508280D01*
X57689524Y-34483776D01*
X57693124Y-34459507D01*
X57699085Y-34435709D01*
X57707350Y-34412609D01*
X57717840Y-34390431D01*
X57730453Y-34369387D01*
X57745067Y-34349682D01*
X57761543Y-34331503D01*
X57779722Y-34315027D01*
X57799427Y-34300413D01*
X57820471Y-34287800D01*
X57842649Y-34277310D01*
X57865749Y-34269045D01*
X57889547Y-34263084D01*
X57913816Y-34259484D01*
X57938320Y-34258280D01*
X58688320Y-34258280D01*
X58712824Y-34259484D01*
X58712824Y-34259484D01*
G37*
D11*
X58313320Y-35133280D03*
D10*
G36*
X56105864Y-70088724D02*
G01*
X56130133Y-70092324D01*
X56153931Y-70098285D01*
X56177031Y-70106550D01*
X56199209Y-70117040D01*
X56220253Y-70129653D01*
X56239958Y-70144267D01*
X56258137Y-70160743D01*
X56274613Y-70178922D01*
X56289227Y-70198627D01*
X56301840Y-70219671D01*
X56312330Y-70241849D01*
X56320595Y-70264949D01*
X56326556Y-70288747D01*
X56330156Y-70313016D01*
X56331360Y-70337520D01*
X56331360Y-71587520D01*
X56330156Y-71612024D01*
X56326556Y-71636293D01*
X56320595Y-71660091D01*
X56312330Y-71683191D01*
X56301840Y-71705369D01*
X56289227Y-71726413D01*
X56274613Y-71746118D01*
X56258137Y-71764297D01*
X56239958Y-71780773D01*
X56220253Y-71795387D01*
X56199209Y-71808000D01*
X56177031Y-71818490D01*
X56153931Y-71826755D01*
X56130133Y-71832716D01*
X56105864Y-71836316D01*
X56081360Y-71837520D01*
X55331360Y-71837520D01*
X55306856Y-71836316D01*
X55282587Y-71832716D01*
X55258789Y-71826755D01*
X55235689Y-71818490D01*
X55213511Y-71808000D01*
X55192467Y-71795387D01*
X55172762Y-71780773D01*
X55154583Y-71764297D01*
X55138107Y-71746118D01*
X55123493Y-71726413D01*
X55110880Y-71705369D01*
X55100390Y-71683191D01*
X55092125Y-71660091D01*
X55086164Y-71636293D01*
X55082564Y-71612024D01*
X55081360Y-71587520D01*
X55081360Y-70337520D01*
X55082564Y-70313016D01*
X55086164Y-70288747D01*
X55092125Y-70264949D01*
X55100390Y-70241849D01*
X55110880Y-70219671D01*
X55123493Y-70198627D01*
X55138107Y-70178922D01*
X55154583Y-70160743D01*
X55172762Y-70144267D01*
X55192467Y-70129653D01*
X55213511Y-70117040D01*
X55235689Y-70106550D01*
X55258789Y-70098285D01*
X55282587Y-70092324D01*
X55306856Y-70088724D01*
X55331360Y-70087520D01*
X56081360Y-70087520D01*
X56105864Y-70088724D01*
X56105864Y-70088724D01*
G37*
D11*
X55706360Y-70962520D03*
D10*
G36*
X58905864Y-70088724D02*
G01*
X58930133Y-70092324D01*
X58953931Y-70098285D01*
X58977031Y-70106550D01*
X58999209Y-70117040D01*
X59020253Y-70129653D01*
X59039958Y-70144267D01*
X59058137Y-70160743D01*
X59074613Y-70178922D01*
X59089227Y-70198627D01*
X59101840Y-70219671D01*
X59112330Y-70241849D01*
X59120595Y-70264949D01*
X59126556Y-70288747D01*
X59130156Y-70313016D01*
X59131360Y-70337520D01*
X59131360Y-71587520D01*
X59130156Y-71612024D01*
X59126556Y-71636293D01*
X59120595Y-71660091D01*
X59112330Y-71683191D01*
X59101840Y-71705369D01*
X59089227Y-71726413D01*
X59074613Y-71746118D01*
X59058137Y-71764297D01*
X59039958Y-71780773D01*
X59020253Y-71795387D01*
X58999209Y-71808000D01*
X58977031Y-71818490D01*
X58953931Y-71826755D01*
X58930133Y-71832716D01*
X58905864Y-71836316D01*
X58881360Y-71837520D01*
X58131360Y-71837520D01*
X58106856Y-71836316D01*
X58082587Y-71832716D01*
X58058789Y-71826755D01*
X58035689Y-71818490D01*
X58013511Y-71808000D01*
X57992467Y-71795387D01*
X57972762Y-71780773D01*
X57954583Y-71764297D01*
X57938107Y-71746118D01*
X57923493Y-71726413D01*
X57910880Y-71705369D01*
X57900390Y-71683191D01*
X57892125Y-71660091D01*
X57886164Y-71636293D01*
X57882564Y-71612024D01*
X57881360Y-71587520D01*
X57881360Y-70337520D01*
X57882564Y-70313016D01*
X57886164Y-70288747D01*
X57892125Y-70264949D01*
X57900390Y-70241849D01*
X57910880Y-70219671D01*
X57923493Y-70198627D01*
X57938107Y-70178922D01*
X57954583Y-70160743D01*
X57972762Y-70144267D01*
X57992467Y-70129653D01*
X58013511Y-70117040D01*
X58035689Y-70106550D01*
X58058789Y-70098285D01*
X58082587Y-70092324D01*
X58106856Y-70088724D01*
X58131360Y-70087520D01*
X58881360Y-70087520D01*
X58905864Y-70088724D01*
X58905864Y-70088724D01*
G37*
D11*
X58506360Y-70962520D03*
D10*
G36*
X88215384Y-36337204D02*
G01*
X88239653Y-36340804D01*
X88263451Y-36346765D01*
X88286551Y-36355030D01*
X88308729Y-36365520D01*
X88329773Y-36378133D01*
X88349478Y-36392747D01*
X88367657Y-36409223D01*
X88384133Y-36427402D01*
X88398747Y-36447107D01*
X88411360Y-36468151D01*
X88421850Y-36490329D01*
X88430115Y-36513429D01*
X88436076Y-36537227D01*
X88439676Y-36561496D01*
X88440880Y-36586000D01*
X88440880Y-37836000D01*
X88439676Y-37860504D01*
X88436076Y-37884773D01*
X88430115Y-37908571D01*
X88421850Y-37931671D01*
X88411360Y-37953849D01*
X88398747Y-37974893D01*
X88384133Y-37994598D01*
X88367657Y-38012777D01*
X88349478Y-38029253D01*
X88329773Y-38043867D01*
X88308729Y-38056480D01*
X88286551Y-38066970D01*
X88263451Y-38075235D01*
X88239653Y-38081196D01*
X88215384Y-38084796D01*
X88190880Y-38086000D01*
X87440880Y-38086000D01*
X87416376Y-38084796D01*
X87392107Y-38081196D01*
X87368309Y-38075235D01*
X87345209Y-38066970D01*
X87323031Y-38056480D01*
X87301987Y-38043867D01*
X87282282Y-38029253D01*
X87264103Y-38012777D01*
X87247627Y-37994598D01*
X87233013Y-37974893D01*
X87220400Y-37953849D01*
X87209910Y-37931671D01*
X87201645Y-37908571D01*
X87195684Y-37884773D01*
X87192084Y-37860504D01*
X87190880Y-37836000D01*
X87190880Y-36586000D01*
X87192084Y-36561496D01*
X87195684Y-36537227D01*
X87201645Y-36513429D01*
X87209910Y-36490329D01*
X87220400Y-36468151D01*
X87233013Y-36447107D01*
X87247627Y-36427402D01*
X87264103Y-36409223D01*
X87282282Y-36392747D01*
X87301987Y-36378133D01*
X87323031Y-36365520D01*
X87345209Y-36355030D01*
X87368309Y-36346765D01*
X87392107Y-36340804D01*
X87416376Y-36337204D01*
X87440880Y-36336000D01*
X88190880Y-36336000D01*
X88215384Y-36337204D01*
X88215384Y-36337204D01*
G37*
D11*
X87815880Y-37211000D03*
D10*
G36*
X85415384Y-36337204D02*
G01*
X85439653Y-36340804D01*
X85463451Y-36346765D01*
X85486551Y-36355030D01*
X85508729Y-36365520D01*
X85529773Y-36378133D01*
X85549478Y-36392747D01*
X85567657Y-36409223D01*
X85584133Y-36427402D01*
X85598747Y-36447107D01*
X85611360Y-36468151D01*
X85621850Y-36490329D01*
X85630115Y-36513429D01*
X85636076Y-36537227D01*
X85639676Y-36561496D01*
X85640880Y-36586000D01*
X85640880Y-37836000D01*
X85639676Y-37860504D01*
X85636076Y-37884773D01*
X85630115Y-37908571D01*
X85621850Y-37931671D01*
X85611360Y-37953849D01*
X85598747Y-37974893D01*
X85584133Y-37994598D01*
X85567657Y-38012777D01*
X85549478Y-38029253D01*
X85529773Y-38043867D01*
X85508729Y-38056480D01*
X85486551Y-38066970D01*
X85463451Y-38075235D01*
X85439653Y-38081196D01*
X85415384Y-38084796D01*
X85390880Y-38086000D01*
X84640880Y-38086000D01*
X84616376Y-38084796D01*
X84592107Y-38081196D01*
X84568309Y-38075235D01*
X84545209Y-38066970D01*
X84523031Y-38056480D01*
X84501987Y-38043867D01*
X84482282Y-38029253D01*
X84464103Y-38012777D01*
X84447627Y-37994598D01*
X84433013Y-37974893D01*
X84420400Y-37953849D01*
X84409910Y-37931671D01*
X84401645Y-37908571D01*
X84395684Y-37884773D01*
X84392084Y-37860504D01*
X84390880Y-37836000D01*
X84390880Y-36586000D01*
X84392084Y-36561496D01*
X84395684Y-36537227D01*
X84401645Y-36513429D01*
X84409910Y-36490329D01*
X84420400Y-36468151D01*
X84433013Y-36447107D01*
X84447627Y-36427402D01*
X84464103Y-36409223D01*
X84482282Y-36392747D01*
X84501987Y-36378133D01*
X84523031Y-36365520D01*
X84545209Y-36355030D01*
X84568309Y-36346765D01*
X84592107Y-36340804D01*
X84616376Y-36337204D01*
X84640880Y-36336000D01*
X85390880Y-36336000D01*
X85415384Y-36337204D01*
X85415384Y-36337204D01*
G37*
D11*
X85015880Y-37211000D03*
M02*
