G04 #@! TF.GenerationSoftware,KiCad,Pcbnew,5.1.2-f72e74a~84~ubuntu18.04.1*
G04 #@! TF.CreationDate,2022-02-01T20:37:36+01:00*
G04 #@! TF.ProjectId,T41Expander,54343145-7870-4616-9e64-65722e6b6963,rev?*
G04 #@! TF.SameCoordinates,Original*
G04 #@! TF.FileFunction,Legend,Top*
G04 #@! TF.FilePolarity,Positive*
%FSLAX46Y46*%
G04 Gerber Fmt 4.6, Leading zero omitted, Abs format (unit mm)*
G04 Created by KiCad (PCBNEW 5.1.2-f72e74a~84~ubuntu18.04.1) date 2022-02-01 20:37:36*
%MOMM*%
%LPD*%
G04 APERTURE LIST*
%ADD10C,0.150000*%
%ADD11C,0.300000*%
%ADD12C,0.120000*%
G04 APERTURE END LIST*
D10*
X57404523Y-53280060D02*
X57975952Y-53280060D01*
X57690238Y-54280060D02*
X57690238Y-53280060D01*
X58309285Y-53756251D02*
X58642619Y-53756251D01*
X58785476Y-54280060D02*
X58309285Y-54280060D01*
X58309285Y-53280060D01*
X58785476Y-53280060D01*
X59214047Y-53756251D02*
X59547380Y-53756251D01*
X59690238Y-54280060D02*
X59214047Y-54280060D01*
X59214047Y-53280060D01*
X59690238Y-53280060D01*
X60118809Y-54280060D02*
X60118809Y-53280060D01*
X60690238Y-54280060D01*
X60690238Y-53280060D01*
X61118809Y-54232441D02*
X61261666Y-54280060D01*
X61499761Y-54280060D01*
X61595000Y-54232441D01*
X61642619Y-54184822D01*
X61690238Y-54089584D01*
X61690238Y-53994346D01*
X61642619Y-53899108D01*
X61595000Y-53851489D01*
X61499761Y-53803870D01*
X61309285Y-53756251D01*
X61214047Y-53708632D01*
X61166428Y-53661013D01*
X61118809Y-53565775D01*
X61118809Y-53470537D01*
X61166428Y-53375299D01*
X61214047Y-53327680D01*
X61309285Y-53280060D01*
X61547380Y-53280060D01*
X61690238Y-53327680D01*
X62309285Y-53803870D02*
X62309285Y-54280060D01*
X61975952Y-53280060D02*
X62309285Y-53803870D01*
X62642619Y-53280060D01*
X64166428Y-53613394D02*
X64166428Y-54280060D01*
X63928333Y-53232441D02*
X63690238Y-53946727D01*
X64309285Y-53946727D01*
X64690238Y-54184822D02*
X64737857Y-54232441D01*
X64690238Y-54280060D01*
X64642619Y-54232441D01*
X64690238Y-54184822D01*
X64690238Y-54280060D01*
X65690238Y-54280060D02*
X65118809Y-54280060D01*
X65404523Y-54280060D02*
X65404523Y-53280060D01*
X65309285Y-53422918D01*
X65214047Y-53518156D01*
X65118809Y-53565775D01*
X44311535Y-29736681D02*
X44454392Y-29784300D01*
X44692487Y-29784300D01*
X44787725Y-29736681D01*
X44835344Y-29689062D01*
X44882963Y-29593824D01*
X44882963Y-29498586D01*
X44835344Y-29403348D01*
X44787725Y-29355729D01*
X44692487Y-29308110D01*
X44502011Y-29260491D01*
X44406773Y-29212872D01*
X44359154Y-29165253D01*
X44311535Y-29070015D01*
X44311535Y-28974777D01*
X44359154Y-28879539D01*
X44406773Y-28831920D01*
X44502011Y-28784300D01*
X44740106Y-28784300D01*
X44882963Y-28831920D01*
X45692487Y-29736681D02*
X45597249Y-29784300D01*
X45406773Y-29784300D01*
X45311535Y-29736681D01*
X45263916Y-29641443D01*
X45263916Y-29260491D01*
X45311535Y-29165253D01*
X45406773Y-29117634D01*
X45597249Y-29117634D01*
X45692487Y-29165253D01*
X45740106Y-29260491D01*
X45740106Y-29355729D01*
X45263916Y-29450967D01*
X46168678Y-29784300D02*
X46168678Y-29117634D01*
X46168678Y-29308110D02*
X46216297Y-29212872D01*
X46263916Y-29165253D01*
X46359154Y-29117634D01*
X46454392Y-29117634D01*
X46692487Y-29117634D02*
X46930582Y-29784300D01*
X47168678Y-29117634D01*
X47692487Y-29784300D02*
X47597249Y-29736681D01*
X47549630Y-29689062D01*
X47502011Y-29593824D01*
X47502011Y-29308110D01*
X47549630Y-29212872D01*
X47597249Y-29165253D01*
X47692487Y-29117634D01*
X47835344Y-29117634D01*
X47930582Y-29165253D01*
X47978201Y-29212872D01*
X48025820Y-29308110D01*
X48025820Y-29593824D01*
X47978201Y-29689062D01*
X47930582Y-29736681D01*
X47835344Y-29784300D01*
X47692487Y-29784300D01*
X48406773Y-29736681D02*
X48502011Y-29784300D01*
X48692487Y-29784300D01*
X48787725Y-29736681D01*
X48835344Y-29641443D01*
X48835344Y-29593824D01*
X48787725Y-29498586D01*
X48692487Y-29450967D01*
X48549630Y-29450967D01*
X48454392Y-29403348D01*
X48406773Y-29308110D01*
X48406773Y-29260491D01*
X48454392Y-29165253D01*
X48549630Y-29117634D01*
X48692487Y-29117634D01*
X48787725Y-29165253D01*
X94650607Y-25542548D02*
X95412512Y-25542548D01*
X38155927Y-59121348D02*
X38917832Y-59121348D01*
X38536880Y-59502300D02*
X38536880Y-58740396D01*
X42092927Y-57810708D02*
X42854832Y-57810708D01*
X40767047Y-59355028D02*
X41528952Y-59355028D01*
X45882607Y-67599868D02*
X46644512Y-67599868D01*
X40568927Y-83606948D02*
X41330832Y-83606948D01*
X37729207Y-83505348D02*
X38491112Y-83505348D01*
X38110160Y-83886300D02*
X38110160Y-83124396D01*
X91963287Y-62596068D02*
X92725192Y-62596068D01*
X94721727Y-52649428D02*
X95483632Y-52649428D01*
X95102680Y-53030380D02*
X95102680Y-52268476D01*
X94706487Y-32532628D02*
X95468392Y-32532628D01*
X95087440Y-32913580D02*
X95087440Y-32151676D01*
X94752207Y-22961908D02*
X95514112Y-22961908D01*
X95133160Y-23342860D02*
X95133160Y-22580956D01*
X94676007Y-50211028D02*
X95437912Y-50211028D01*
X94609967Y-35052308D02*
X95371872Y-35052308D01*
X82123327Y-23327668D02*
X82885232Y-23327668D01*
X82504280Y-23708620D02*
X82504280Y-22946716D01*
X74483007Y-23601988D02*
X75244912Y-23601988D01*
X80384281Y-23916805D02*
X80431900Y-23773948D01*
X80431900Y-23535853D01*
X80384281Y-23440615D01*
X80336662Y-23392996D01*
X80241424Y-23345377D01*
X80146186Y-23345377D01*
X80050948Y-23392996D01*
X80003329Y-23440615D01*
X79955710Y-23535853D01*
X79908091Y-23726329D01*
X79860472Y-23821567D01*
X79812853Y-23869186D01*
X79717615Y-23916805D01*
X79622377Y-23916805D01*
X79527139Y-23869186D01*
X79479520Y-23821567D01*
X79431900Y-23726329D01*
X79431900Y-23488234D01*
X79479520Y-23345377D01*
X80431900Y-22916805D02*
X79431900Y-22916805D01*
X79431900Y-22678710D01*
X79479520Y-22535853D01*
X79574758Y-22440615D01*
X79669996Y-22392996D01*
X79860472Y-22345377D01*
X80003329Y-22345377D01*
X80193805Y-22392996D01*
X80289043Y-22440615D01*
X80384281Y-22535853D01*
X80431900Y-22678710D01*
X80431900Y-22916805D01*
X80146186Y-21964424D02*
X80146186Y-21488234D01*
X80431900Y-22059662D02*
X79431900Y-21726329D01*
X80431900Y-21392996D01*
X77915401Y-23867596D02*
X77963020Y-23724739D01*
X77963020Y-23486643D01*
X77915401Y-23391405D01*
X77867782Y-23343786D01*
X77772544Y-23296167D01*
X77677306Y-23296167D01*
X77582068Y-23343786D01*
X77534449Y-23391405D01*
X77486830Y-23486643D01*
X77439211Y-23677120D01*
X77391592Y-23772358D01*
X77343973Y-23819977D01*
X77248735Y-23867596D01*
X77153497Y-23867596D01*
X77058259Y-23819977D01*
X77010640Y-23772358D01*
X76963020Y-23677120D01*
X76963020Y-23439024D01*
X77010640Y-23296167D01*
X77867782Y-22296167D02*
X77915401Y-22343786D01*
X77963020Y-22486643D01*
X77963020Y-22581881D01*
X77915401Y-22724739D01*
X77820163Y-22819977D01*
X77724925Y-22867596D01*
X77534449Y-22915215D01*
X77391592Y-22915215D01*
X77201116Y-22867596D01*
X77105878Y-22819977D01*
X77010640Y-22724739D01*
X76963020Y-22581881D01*
X76963020Y-22486643D01*
X77010640Y-22343786D01*
X77058259Y-22296167D01*
X77963020Y-21391405D02*
X77963020Y-21867596D01*
X76963020Y-21867596D01*
X33782047Y-32481828D02*
X34543952Y-32481828D01*
X33873487Y-34976108D02*
X34635392Y-34976108D01*
X34254440Y-35357060D02*
X34254440Y-34595156D01*
X37952727Y-21163588D02*
X38714632Y-21163588D01*
X38333680Y-21544540D02*
X38333680Y-20782636D01*
X40579087Y-21173748D02*
X41340992Y-21173748D01*
X48049038Y-41224460D02*
X48049038Y-40224460D01*
X48429990Y-40224460D01*
X48525228Y-40272080D01*
X48572847Y-40319699D01*
X48620466Y-40414937D01*
X48620466Y-40557794D01*
X48572847Y-40653032D01*
X48525228Y-40700651D01*
X48429990Y-40748270D01*
X48049038Y-40748270D01*
X48953800Y-40224460D02*
X49191895Y-41224460D01*
X49382371Y-40510175D01*
X49572847Y-41224460D01*
X49810942Y-40224460D01*
X50191895Y-41224460D02*
X50191895Y-40224460D01*
X50525228Y-40938746D01*
X50858561Y-40224460D01*
X50858561Y-41224460D01*
X46009607Y-40691108D02*
X46771512Y-40691108D01*
X46390560Y-41072060D02*
X46390560Y-40310156D01*
X43439127Y-40691108D02*
X44201032Y-40691108D01*
X36165683Y-40096131D02*
X36499017Y-40096131D01*
X36641874Y-40619940D02*
X36165683Y-40619940D01*
X36165683Y-39619940D01*
X36641874Y-39619940D01*
X36927588Y-39953274D02*
X37308540Y-39953274D01*
X37070445Y-40619940D02*
X37070445Y-39762798D01*
X37118064Y-39667560D01*
X37213302Y-39619940D01*
X37308540Y-39619940D01*
X37641874Y-40619940D02*
X37641874Y-39953274D01*
X37641874Y-40143750D02*
X37689493Y-40048512D01*
X37737112Y-40000893D01*
X37832350Y-39953274D01*
X37927588Y-39953274D01*
X38641874Y-40572321D02*
X38546636Y-40619940D01*
X38356160Y-40619940D01*
X38260921Y-40572321D01*
X38213302Y-40477083D01*
X38213302Y-40096131D01*
X38260921Y-40000893D01*
X38356160Y-39953274D01*
X38546636Y-39953274D01*
X38641874Y-40000893D01*
X38689493Y-40096131D01*
X38689493Y-40191369D01*
X38213302Y-40286607D01*
X39546636Y-39953274D02*
X39546636Y-40953274D01*
X39546636Y-40572321D02*
X39451398Y-40619940D01*
X39260921Y-40619940D01*
X39165683Y-40572321D01*
X39118064Y-40524702D01*
X39070445Y-40429464D01*
X39070445Y-40143750D01*
X39118064Y-40048512D01*
X39165683Y-40000893D01*
X39260921Y-39953274D01*
X39451398Y-39953274D01*
X39546636Y-40000893D01*
X48984280Y-54929280D02*
X48936660Y-55024518D01*
X48936660Y-55167375D01*
X48984280Y-55310232D01*
X49079518Y-55405470D01*
X49174756Y-55453089D01*
X49365232Y-55500708D01*
X49508089Y-55500708D01*
X49698565Y-55453089D01*
X49793803Y-55405470D01*
X49889041Y-55310232D01*
X49936660Y-55167375D01*
X49936660Y-55072137D01*
X49889041Y-54929280D01*
X49841422Y-54881660D01*
X49508089Y-54881660D01*
X49508089Y-55072137D01*
X49936660Y-54453089D02*
X48936660Y-54453089D01*
X48936660Y-54072137D01*
X48984280Y-53976899D01*
X49031899Y-53929280D01*
X49127137Y-53881660D01*
X49269994Y-53881660D01*
X49365232Y-53929280D01*
X49412851Y-53976899D01*
X49460470Y-54072137D01*
X49460470Y-54453089D01*
X49936660Y-53453089D02*
X48936660Y-53453089D01*
X48936660Y-52786422D02*
X48936660Y-52595946D01*
X48984280Y-52500708D01*
X49079518Y-52405470D01*
X49269994Y-52357851D01*
X49603327Y-52357851D01*
X49793803Y-52405470D01*
X49889041Y-52500708D01*
X49936660Y-52595946D01*
X49936660Y-52786422D01*
X49889041Y-52881660D01*
X49793803Y-52976899D01*
X49603327Y-53024518D01*
X49269994Y-53024518D01*
X49079518Y-52976899D01*
X48984280Y-52881660D01*
X48936660Y-52786422D01*
X86710211Y-32132708D02*
X86710211Y-31799375D01*
X87234020Y-31656518D02*
X87234020Y-32132708D01*
X86234020Y-32132708D01*
X86234020Y-31656518D01*
X87234020Y-30799375D02*
X86710211Y-30799375D01*
X86614973Y-30846994D01*
X86567354Y-30942232D01*
X86567354Y-31132708D01*
X86614973Y-31227946D01*
X87186401Y-30799375D02*
X87234020Y-30894613D01*
X87234020Y-31132708D01*
X87186401Y-31227946D01*
X87091163Y-31275565D01*
X86995925Y-31275565D01*
X86900687Y-31227946D01*
X86853068Y-31132708D01*
X86853068Y-30894613D01*
X86805449Y-30799375D01*
X86567354Y-30323184D02*
X87234020Y-30323184D01*
X86662592Y-30323184D02*
X86614973Y-30275565D01*
X86567354Y-30180327D01*
X86567354Y-30037470D01*
X86614973Y-29942232D01*
X86710211Y-29894613D01*
X87234020Y-29894613D01*
X87234020Y-28989851D02*
X86710211Y-28989851D01*
X86614973Y-29037470D01*
X86567354Y-29132708D01*
X86567354Y-29323184D01*
X86614973Y-29418422D01*
X87186401Y-28989851D02*
X87234020Y-29085089D01*
X87234020Y-29323184D01*
X87186401Y-29418422D01*
X87091163Y-29466041D01*
X86995925Y-29466041D01*
X86900687Y-29418422D01*
X86853068Y-29323184D01*
X86853068Y-29085089D01*
X86805449Y-28989851D01*
X86357840Y-63280800D02*
X86310220Y-63376038D01*
X86310220Y-63518895D01*
X86357840Y-63661752D01*
X86453078Y-63756990D01*
X86548316Y-63804609D01*
X86738792Y-63852228D01*
X86881649Y-63852228D01*
X87072125Y-63804609D01*
X87167363Y-63756990D01*
X87262601Y-63661752D01*
X87310220Y-63518895D01*
X87310220Y-63423657D01*
X87262601Y-63280800D01*
X87214982Y-63233180D01*
X86881649Y-63233180D01*
X86881649Y-63423657D01*
X87310220Y-62804609D02*
X86310220Y-62804609D01*
X86310220Y-62423657D01*
X86357840Y-62328419D01*
X86405459Y-62280800D01*
X86500697Y-62233180D01*
X86643554Y-62233180D01*
X86738792Y-62280800D01*
X86786411Y-62328419D01*
X86834030Y-62423657D01*
X86834030Y-62804609D01*
X87310220Y-61804609D02*
X86310220Y-61804609D01*
X86310220Y-61137942D02*
X86310220Y-60947466D01*
X86357840Y-60852228D01*
X86453078Y-60756990D01*
X86643554Y-60709371D01*
X86976887Y-60709371D01*
X87167363Y-60756990D01*
X87262601Y-60852228D01*
X87310220Y-60947466D01*
X87310220Y-61137942D01*
X87262601Y-61233180D01*
X87167363Y-61328419D01*
X86976887Y-61376038D01*
X86643554Y-61376038D01*
X86453078Y-61328419D01*
X86357840Y-61233180D01*
X86310220Y-61137942D01*
X87071460Y-51170958D02*
X86595270Y-51504291D01*
X87071460Y-51742386D02*
X86071460Y-51742386D01*
X86071460Y-51361434D01*
X86119080Y-51266196D01*
X86166699Y-51218577D01*
X86261937Y-51170958D01*
X86404794Y-51170958D01*
X86500032Y-51218577D01*
X86547651Y-51266196D01*
X86595270Y-51361434D01*
X86595270Y-51742386D01*
X87023841Y-50790005D02*
X87071460Y-50647148D01*
X87071460Y-50409053D01*
X87023841Y-50313815D01*
X86976222Y-50266196D01*
X86880984Y-50218577D01*
X86785746Y-50218577D01*
X86690508Y-50266196D01*
X86642889Y-50313815D01*
X86595270Y-50409053D01*
X86547651Y-50599529D01*
X86500032Y-50694767D01*
X86452413Y-50742386D01*
X86357175Y-50790005D01*
X86261937Y-50790005D01*
X86166699Y-50742386D01*
X86119080Y-50694767D01*
X86071460Y-50599529D01*
X86071460Y-50361434D01*
X86119080Y-50218577D01*
X86166699Y-49837624D02*
X86119080Y-49790005D01*
X86071460Y-49694767D01*
X86071460Y-49456672D01*
X86119080Y-49361434D01*
X86166699Y-49313815D01*
X86261937Y-49266196D01*
X86357175Y-49266196D01*
X86500032Y-49313815D01*
X87071460Y-49885243D01*
X87071460Y-49266196D01*
X86071460Y-48932862D02*
X86071460Y-48313815D01*
X86452413Y-48647148D01*
X86452413Y-48504291D01*
X86500032Y-48409053D01*
X86547651Y-48361434D01*
X86642889Y-48313815D01*
X86880984Y-48313815D01*
X86976222Y-48361434D01*
X87023841Y-48409053D01*
X87071460Y-48504291D01*
X87071460Y-48790005D01*
X87023841Y-48885243D01*
X86976222Y-48932862D01*
X86166699Y-47932862D02*
X86119080Y-47885243D01*
X86071460Y-47790005D01*
X86071460Y-47551910D01*
X86119080Y-47456672D01*
X86166699Y-47409053D01*
X86261937Y-47361434D01*
X86357175Y-47361434D01*
X86500032Y-47409053D01*
X87071460Y-47980481D01*
X87071460Y-47361434D01*
X49841422Y-81272474D02*
X49889041Y-81320093D01*
X49936660Y-81462950D01*
X49936660Y-81558188D01*
X49889041Y-81701045D01*
X49793803Y-81796283D01*
X49698565Y-81843902D01*
X49508089Y-81891521D01*
X49365232Y-81891521D01*
X49174756Y-81843902D01*
X49079518Y-81796283D01*
X48984280Y-81701045D01*
X48936660Y-81558188D01*
X48936660Y-81462950D01*
X48984280Y-81320093D01*
X49031899Y-81272474D01*
X49936660Y-80701045D02*
X49889041Y-80796283D01*
X49841422Y-80843902D01*
X49746184Y-80891521D01*
X49460470Y-80891521D01*
X49365232Y-80843902D01*
X49317613Y-80796283D01*
X49269994Y-80701045D01*
X49269994Y-80558188D01*
X49317613Y-80462950D01*
X49365232Y-80415331D01*
X49460470Y-80367712D01*
X49746184Y-80367712D01*
X49841422Y-80415331D01*
X49889041Y-80462950D01*
X49936660Y-80558188D01*
X49936660Y-80701045D01*
X49936660Y-79510569D02*
X48936660Y-79510569D01*
X49889041Y-79510569D02*
X49936660Y-79605807D01*
X49936660Y-79796283D01*
X49889041Y-79891521D01*
X49841422Y-79939140D01*
X49746184Y-79986760D01*
X49460470Y-79986760D01*
X49365232Y-79939140D01*
X49317613Y-79891521D01*
X49269994Y-79796283D01*
X49269994Y-79605807D01*
X49317613Y-79510569D01*
X49889041Y-78653426D02*
X49936660Y-78748664D01*
X49936660Y-78939140D01*
X49889041Y-79034379D01*
X49793803Y-79081998D01*
X49412851Y-79081998D01*
X49317613Y-79034379D01*
X49269994Y-78939140D01*
X49269994Y-78748664D01*
X49317613Y-78653426D01*
X49412851Y-78605807D01*
X49508089Y-78605807D01*
X49603327Y-79081998D01*
X49269994Y-77748664D02*
X49936660Y-77748664D01*
X49269994Y-78177236D02*
X49793803Y-78177236D01*
X49889041Y-78129617D01*
X49936660Y-78034379D01*
X49936660Y-77891521D01*
X49889041Y-77796283D01*
X49841422Y-77748664D01*
X49936660Y-77272474D02*
X49269994Y-77272474D01*
X49460470Y-77272474D02*
X49365232Y-77224855D01*
X49317613Y-77177236D01*
X49269994Y-77081998D01*
X49269994Y-76986760D01*
X49936660Y-73116558D02*
X49460470Y-73449891D01*
X49936660Y-73687986D02*
X48936660Y-73687986D01*
X48936660Y-73307034D01*
X48984280Y-73211796D01*
X49031899Y-73164177D01*
X49127137Y-73116558D01*
X49269994Y-73116558D01*
X49365232Y-73164177D01*
X49412851Y-73211796D01*
X49460470Y-73307034D01*
X49460470Y-73687986D01*
X49889041Y-72735605D02*
X49936660Y-72592748D01*
X49936660Y-72354653D01*
X49889041Y-72259415D01*
X49841422Y-72211796D01*
X49746184Y-72164177D01*
X49650946Y-72164177D01*
X49555708Y-72211796D01*
X49508089Y-72259415D01*
X49460470Y-72354653D01*
X49412851Y-72545129D01*
X49365232Y-72640367D01*
X49317613Y-72687986D01*
X49222375Y-72735605D01*
X49127137Y-72735605D01*
X49031899Y-72687986D01*
X48984280Y-72640367D01*
X48936660Y-72545129D01*
X48936660Y-72307034D01*
X48984280Y-72164177D01*
X49031899Y-71783224D02*
X48984280Y-71735605D01*
X48936660Y-71640367D01*
X48936660Y-71402272D01*
X48984280Y-71307034D01*
X49031899Y-71259415D01*
X49127137Y-71211796D01*
X49222375Y-71211796D01*
X49365232Y-71259415D01*
X49936660Y-71830843D01*
X49936660Y-71211796D01*
X48936660Y-70878462D02*
X48936660Y-70259415D01*
X49317613Y-70592748D01*
X49317613Y-70449891D01*
X49365232Y-70354653D01*
X49412851Y-70307034D01*
X49508089Y-70259415D01*
X49746184Y-70259415D01*
X49841422Y-70307034D01*
X49889041Y-70354653D01*
X49936660Y-70449891D01*
X49936660Y-70735605D01*
X49889041Y-70830843D01*
X49841422Y-70878462D01*
X49031899Y-69878462D02*
X48984280Y-69830843D01*
X48936660Y-69735605D01*
X48936660Y-69497510D01*
X48984280Y-69402272D01*
X49031899Y-69354653D01*
X49127137Y-69307034D01*
X49222375Y-69307034D01*
X49365232Y-69354653D01*
X49936660Y-69926081D01*
X49936660Y-69307034D01*
X49841422Y-64726914D02*
X49889041Y-64774533D01*
X49936660Y-64917390D01*
X49936660Y-65012628D01*
X49889041Y-65155485D01*
X49793803Y-65250723D01*
X49698565Y-65298342D01*
X49508089Y-65345961D01*
X49365232Y-65345961D01*
X49174756Y-65298342D01*
X49079518Y-65250723D01*
X48984280Y-65155485D01*
X48936660Y-65012628D01*
X48936660Y-64917390D01*
X48984280Y-64774533D01*
X49031899Y-64726914D01*
X49936660Y-64155485D02*
X49889041Y-64250723D01*
X49841422Y-64298342D01*
X49746184Y-64345961D01*
X49460470Y-64345961D01*
X49365232Y-64298342D01*
X49317613Y-64250723D01*
X49269994Y-64155485D01*
X49269994Y-64012628D01*
X49317613Y-63917390D01*
X49365232Y-63869771D01*
X49460470Y-63822152D01*
X49746184Y-63822152D01*
X49841422Y-63869771D01*
X49889041Y-63917390D01*
X49936660Y-64012628D01*
X49936660Y-64155485D01*
X49936660Y-62965009D02*
X48936660Y-62965009D01*
X49889041Y-62965009D02*
X49936660Y-63060247D01*
X49936660Y-63250723D01*
X49889041Y-63345961D01*
X49841422Y-63393580D01*
X49746184Y-63441200D01*
X49460470Y-63441200D01*
X49365232Y-63393580D01*
X49317613Y-63345961D01*
X49269994Y-63250723D01*
X49269994Y-63060247D01*
X49317613Y-62965009D01*
X49889041Y-62107866D02*
X49936660Y-62203104D01*
X49936660Y-62393580D01*
X49889041Y-62488819D01*
X49793803Y-62536438D01*
X49412851Y-62536438D01*
X49317613Y-62488819D01*
X49269994Y-62393580D01*
X49269994Y-62203104D01*
X49317613Y-62107866D01*
X49412851Y-62060247D01*
X49508089Y-62060247D01*
X49603327Y-62536438D01*
X49269994Y-61203104D02*
X49936660Y-61203104D01*
X49269994Y-61631676D02*
X49793803Y-61631676D01*
X49889041Y-61584057D01*
X49936660Y-61488819D01*
X49936660Y-61345961D01*
X49889041Y-61250723D01*
X49841422Y-61203104D01*
X49936660Y-60726914D02*
X49269994Y-60726914D01*
X49460470Y-60726914D02*
X49365232Y-60679295D01*
X49317613Y-60631676D01*
X49269994Y-60536438D01*
X49269994Y-60441200D01*
X49135302Y-24842196D02*
X49182921Y-24889815D01*
X49230540Y-25032672D01*
X49230540Y-25127910D01*
X49182921Y-25270767D01*
X49087683Y-25366005D01*
X48992445Y-25413624D01*
X48801969Y-25461243D01*
X48659112Y-25461243D01*
X48468636Y-25413624D01*
X48373398Y-25366005D01*
X48278160Y-25270767D01*
X48230540Y-25127910D01*
X48230540Y-25032672D01*
X48278160Y-24889815D01*
X48325779Y-24842196D01*
X49230540Y-24270767D02*
X49182921Y-24366005D01*
X49135302Y-24413624D01*
X49040064Y-24461243D01*
X48754350Y-24461243D01*
X48659112Y-24413624D01*
X48611493Y-24366005D01*
X48563874Y-24270767D01*
X48563874Y-24127910D01*
X48611493Y-24032672D01*
X48659112Y-23985053D01*
X48754350Y-23937434D01*
X49040064Y-23937434D01*
X49135302Y-23985053D01*
X49182921Y-24032672D01*
X49230540Y-24127910D01*
X49230540Y-24270767D01*
X49230540Y-23080291D02*
X48230540Y-23080291D01*
X49182921Y-23080291D02*
X49230540Y-23175529D01*
X49230540Y-23366005D01*
X49182921Y-23461243D01*
X49135302Y-23508862D01*
X49040064Y-23556481D01*
X48754350Y-23556481D01*
X48659112Y-23508862D01*
X48611493Y-23461243D01*
X48563874Y-23366005D01*
X48563874Y-23175529D01*
X48611493Y-23080291D01*
X49182921Y-22223148D02*
X49230540Y-22318386D01*
X49230540Y-22508862D01*
X49182921Y-22604100D01*
X49087683Y-22651720D01*
X48706731Y-22651720D01*
X48611493Y-22604100D01*
X48563874Y-22508862D01*
X48563874Y-22318386D01*
X48611493Y-22223148D01*
X48706731Y-22175529D01*
X48801969Y-22175529D01*
X48897207Y-22651720D01*
X48563874Y-21318386D02*
X49230540Y-21318386D01*
X48563874Y-21746958D02*
X49087683Y-21746958D01*
X49182921Y-21699339D01*
X49230540Y-21604100D01*
X49230540Y-21461243D01*
X49182921Y-21366005D01*
X49135302Y-21318386D01*
X49230540Y-20842196D02*
X48563874Y-20842196D01*
X48754350Y-20842196D02*
X48659112Y-20794577D01*
X48611493Y-20746958D01*
X48563874Y-20651720D01*
X48563874Y-20556481D01*
X49182921Y-20270767D02*
X49230540Y-20175529D01*
X49230540Y-19985053D01*
X49182921Y-19889815D01*
X49087683Y-19842196D01*
X49040064Y-19842196D01*
X48944826Y-19889815D01*
X48897207Y-19985053D01*
X48897207Y-20127910D01*
X48849588Y-20223148D01*
X48754350Y-20270767D01*
X48706731Y-20270767D01*
X48611493Y-20223148D01*
X48563874Y-20127910D01*
X48563874Y-19985053D01*
X48611493Y-19889815D01*
X49936660Y-47692344D02*
X48936660Y-47692344D01*
X49650946Y-47359011D01*
X48936660Y-47025678D01*
X49936660Y-47025678D01*
X49936660Y-46406630D02*
X49889041Y-46501868D01*
X49841422Y-46549487D01*
X49746184Y-46597106D01*
X49460470Y-46597106D01*
X49365232Y-46549487D01*
X49317613Y-46501868D01*
X49269994Y-46406630D01*
X49269994Y-46263773D01*
X49317613Y-46168535D01*
X49365232Y-46120916D01*
X49460470Y-46073297D01*
X49746184Y-46073297D01*
X49841422Y-46120916D01*
X49889041Y-46168535D01*
X49936660Y-46263773D01*
X49936660Y-46406630D01*
X49269994Y-45787582D02*
X49269994Y-45406630D01*
X48936660Y-45644725D02*
X49793803Y-45644725D01*
X49889041Y-45597106D01*
X49936660Y-45501868D01*
X49936660Y-45406630D01*
X49889041Y-44692344D02*
X49936660Y-44787582D01*
X49936660Y-44978059D01*
X49889041Y-45073297D01*
X49793803Y-45120916D01*
X49412851Y-45120916D01*
X49317613Y-45073297D01*
X49269994Y-44978059D01*
X49269994Y-44787582D01*
X49317613Y-44692344D01*
X49412851Y-44644725D01*
X49508089Y-44644725D01*
X49603327Y-45120916D01*
X49269994Y-43787582D02*
X49936660Y-43787582D01*
X49269994Y-44216154D02*
X49793803Y-44216154D01*
X49889041Y-44168535D01*
X49936660Y-44073297D01*
X49936660Y-43930440D01*
X49889041Y-43835201D01*
X49841422Y-43787582D01*
X49936660Y-43311392D02*
X49269994Y-43311392D01*
X49460470Y-43311392D02*
X49365232Y-43263773D01*
X49317613Y-43216154D01*
X49269994Y-43120916D01*
X49269994Y-43025678D01*
X73020180Y-66141266D02*
X72020180Y-66141266D01*
X72734466Y-65807933D01*
X72020180Y-65474600D01*
X73020180Y-65474600D01*
X73020180Y-64855552D02*
X72972561Y-64950790D01*
X72924942Y-64998409D01*
X72829704Y-65046028D01*
X72543990Y-65046028D01*
X72448752Y-64998409D01*
X72401133Y-64950790D01*
X72353514Y-64855552D01*
X72353514Y-64712695D01*
X72401133Y-64617457D01*
X72448752Y-64569838D01*
X72543990Y-64522219D01*
X72829704Y-64522219D01*
X72924942Y-64569838D01*
X72972561Y-64617457D01*
X73020180Y-64712695D01*
X73020180Y-64855552D01*
X72353514Y-64236504D02*
X72353514Y-63855552D01*
X72020180Y-64093647D02*
X72877323Y-64093647D01*
X72972561Y-64046028D01*
X73020180Y-63950790D01*
X73020180Y-63855552D01*
X72972561Y-63141266D02*
X73020180Y-63236504D01*
X73020180Y-63426980D01*
X72972561Y-63522219D01*
X72877323Y-63569838D01*
X72496371Y-63569838D01*
X72401133Y-63522219D01*
X72353514Y-63426980D01*
X72353514Y-63236504D01*
X72401133Y-63141266D01*
X72496371Y-63093647D01*
X72591609Y-63093647D01*
X72686847Y-63569838D01*
X72353514Y-62236504D02*
X73020180Y-62236504D01*
X72353514Y-62665076D02*
X72877323Y-62665076D01*
X72972561Y-62617457D01*
X73020180Y-62522219D01*
X73020180Y-62379361D01*
X72972561Y-62284123D01*
X72924942Y-62236504D01*
X73020180Y-61760314D02*
X72353514Y-61760314D01*
X72543990Y-61760314D02*
X72448752Y-61712695D01*
X72401133Y-61665076D01*
X72353514Y-61569838D01*
X72353514Y-61474600D01*
X72972561Y-61188885D02*
X73020180Y-61093647D01*
X73020180Y-60903171D01*
X72972561Y-60807933D01*
X72877323Y-60760314D01*
X72829704Y-60760314D01*
X72734466Y-60807933D01*
X72686847Y-60903171D01*
X72686847Y-61046028D01*
X72639228Y-61141266D01*
X72543990Y-61188885D01*
X72496371Y-61188885D01*
X72401133Y-61141266D01*
X72353514Y-61046028D01*
X72353514Y-60903171D01*
X72401133Y-60807933D01*
X30780028Y-17144952D02*
X30780028Y-16383047D01*
X20650247Y-41981428D02*
X21412152Y-41981428D01*
X16992647Y-51912828D02*
X17754552Y-51912828D01*
D11*
X24451314Y-87773771D02*
X25308457Y-87773771D01*
X24879885Y-89273771D02*
X24879885Y-87773771D01*
X26451314Y-88273771D02*
X26451314Y-89273771D01*
X26094171Y-87702342D02*
X25737028Y-88773771D01*
X26665600Y-88773771D01*
X28022742Y-89273771D02*
X27165600Y-89273771D01*
X27594171Y-89273771D02*
X27594171Y-87773771D01*
X27451314Y-87988057D01*
X27308457Y-88130914D01*
X27165600Y-88202342D01*
X28665600Y-88488057D02*
X29165600Y-88488057D01*
X29379885Y-89273771D02*
X28665600Y-89273771D01*
X28665600Y-87773771D01*
X29379885Y-87773771D01*
X29879885Y-89273771D02*
X30665600Y-88273771D01*
X29879885Y-88273771D02*
X30665600Y-89273771D01*
X31237028Y-88273771D02*
X31237028Y-89773771D01*
X31237028Y-88345200D02*
X31379885Y-88273771D01*
X31665600Y-88273771D01*
X31808457Y-88345200D01*
X31879885Y-88416628D01*
X31951314Y-88559485D01*
X31951314Y-88988057D01*
X31879885Y-89130914D01*
X31808457Y-89202342D01*
X31665600Y-89273771D01*
X31379885Y-89273771D01*
X31237028Y-89202342D01*
X33237028Y-89273771D02*
X33237028Y-88488057D01*
X33165600Y-88345200D01*
X33022742Y-88273771D01*
X32737028Y-88273771D01*
X32594171Y-88345200D01*
X33237028Y-89202342D02*
X33094171Y-89273771D01*
X32737028Y-89273771D01*
X32594171Y-89202342D01*
X32522742Y-89059485D01*
X32522742Y-88916628D01*
X32594171Y-88773771D01*
X32737028Y-88702342D01*
X33094171Y-88702342D01*
X33237028Y-88630914D01*
X33951314Y-88273771D02*
X33951314Y-89273771D01*
X33951314Y-88416628D02*
X34022742Y-88345200D01*
X34165600Y-88273771D01*
X34379885Y-88273771D01*
X34522742Y-88345200D01*
X34594171Y-88488057D01*
X34594171Y-89273771D01*
X35951314Y-89273771D02*
X35951314Y-87773771D01*
X35951314Y-89202342D02*
X35808457Y-89273771D01*
X35522742Y-89273771D01*
X35379885Y-89202342D01*
X35308457Y-89130914D01*
X35237028Y-88988057D01*
X35237028Y-88559485D01*
X35308457Y-88416628D01*
X35379885Y-88345200D01*
X35522742Y-88273771D01*
X35808457Y-88273771D01*
X35951314Y-88345200D01*
X37237028Y-89202342D02*
X37094171Y-89273771D01*
X36808457Y-89273771D01*
X36665600Y-89202342D01*
X36594171Y-89059485D01*
X36594171Y-88488057D01*
X36665600Y-88345200D01*
X36808457Y-88273771D01*
X37094171Y-88273771D01*
X37237028Y-88345200D01*
X37308457Y-88488057D01*
X37308457Y-88630914D01*
X36594171Y-88773771D01*
X37951314Y-89273771D02*
X37951314Y-88273771D01*
X37951314Y-88559485D02*
X38022742Y-88416628D01*
X38094171Y-88345200D01*
X38237028Y-88273771D01*
X38379885Y-88273771D01*
X40022742Y-88702342D02*
X41165600Y-88702342D01*
X42808457Y-87773771D02*
X43308457Y-89273771D01*
X43808457Y-87773771D01*
X45094171Y-89273771D02*
X44237028Y-89273771D01*
X44665600Y-89273771D02*
X44665600Y-87773771D01*
X44522742Y-87988057D01*
X44379885Y-88130914D01*
X44237028Y-88202342D01*
X45737028Y-89130914D02*
X45808457Y-89202342D01*
X45737028Y-89273771D01*
X45665600Y-89202342D01*
X45737028Y-89130914D01*
X45737028Y-89273771D01*
X46737028Y-87773771D02*
X46879885Y-87773771D01*
X47022742Y-87845200D01*
X47094171Y-87916628D01*
X47165600Y-88059485D01*
X47237028Y-88345200D01*
X47237028Y-88702342D01*
X47165600Y-88988057D01*
X47094171Y-89130914D01*
X47022742Y-89202342D01*
X46879885Y-89273771D01*
X46737028Y-89273771D01*
X46594171Y-89202342D01*
X46522742Y-89130914D01*
X46451314Y-88988057D01*
X46379885Y-88702342D01*
X46379885Y-88345200D01*
X46451314Y-88059485D01*
X46522742Y-87916628D01*
X46594171Y-87845200D01*
X46737028Y-87773771D01*
D10*
X56896000Y-13817600D02*
X56896000Y-12547600D01*
X56896000Y-12547600D02*
X64516000Y-12547600D01*
X64516000Y-12547600D02*
X64516000Y-13817600D01*
X56896000Y-15722600D02*
X64516000Y-15722600D01*
X64516000Y-15722600D02*
X64516000Y-13817600D01*
X56896000Y-15722600D02*
X56896000Y-13817600D01*
X69596000Y-13817600D02*
X69596000Y-74777600D01*
X69596000Y-74777600D02*
X51816000Y-74777600D01*
X51816000Y-74777600D02*
X51816000Y-13817600D01*
X51816000Y-13817600D02*
X69596000Y-13817600D01*
D12*
X23396000Y-39700200D02*
G75*
G03X23396000Y-39700200I-4120000J0D01*
G01*
X32644200Y-18493800D02*
G75*
G03X32644200Y-18493800I-4120000J0D01*
G01*
X23350400Y-49504600D02*
G75*
G03X23350400Y-49504600I-4120000J0D01*
G01*
X32834960Y-43244960D02*
X32834960Y-47129960D01*
X35104960Y-43244960D02*
X32834960Y-43244960D01*
X35104960Y-47129960D02*
X35104960Y-43244960D01*
X14028800Y-62656920D02*
X14028800Y-66541920D01*
X14028800Y-66541920D02*
X16298800Y-66541920D01*
X16298800Y-66541920D02*
X16298800Y-62656920D01*
X72488680Y-52442840D02*
X72488680Y-48557840D01*
X70218680Y-52442840D02*
X72488680Y-52442840D01*
X70218680Y-48557840D02*
X70218680Y-52442840D01*
X14028800Y-75694280D02*
X14028800Y-79579280D01*
X14028800Y-79579280D02*
X16298800Y-79579280D01*
X16298800Y-79579280D02*
X16298800Y-75694280D01*
X72493760Y-57030880D02*
X72493760Y-53145880D01*
X72493760Y-53145880D02*
X70223760Y-53145880D01*
X70223760Y-53145880D02*
X70223760Y-57030880D01*
X48613440Y-14501400D02*
X48613440Y-18386400D01*
X50883440Y-14501400D02*
X48613440Y-14501400D01*
X50883440Y-18386400D02*
X50883440Y-14501400D01*
X20210600Y-24263000D02*
X20210600Y-32983000D01*
X20210600Y-32983000D02*
X14790600Y-32983000D01*
X14790600Y-24263000D02*
X14790600Y-32983000D01*
X18910600Y-22563000D02*
X20210600Y-24263000D01*
X16090600Y-22563000D02*
X14790600Y-24263000D01*
X18910600Y-22563000D02*
X16090600Y-22563000D01*
X37146720Y-68191600D02*
X37146720Y-74211600D01*
X37146720Y-74211600D02*
X47526720Y-74211600D01*
X47526720Y-74211600D02*
X47526720Y-68191600D01*
X47526720Y-68191600D02*
X37146720Y-68191600D01*
X36856720Y-69221600D02*
X36856720Y-73221600D01*
X38526720Y-74211600D02*
X38526720Y-73211600D01*
X38526720Y-73211600D02*
X46146720Y-73211600D01*
X46146720Y-73211600D02*
X46146720Y-74211600D01*
X38526720Y-73211600D02*
X38776720Y-72681600D01*
X38776720Y-72681600D02*
X45896720Y-72681600D01*
X45896720Y-72681600D02*
X46146720Y-73211600D01*
X38776720Y-74211600D02*
X38776720Y-73211600D01*
X45896720Y-74211600D02*
X45896720Y-73211600D01*
X37726720Y-68191600D02*
X37726720Y-68791600D01*
X37726720Y-68791600D02*
X39326720Y-68791600D01*
X39326720Y-68791600D02*
X39326720Y-68191600D01*
X40266720Y-68191600D02*
X40266720Y-68791600D01*
X40266720Y-68791600D02*
X41866720Y-68791600D01*
X41866720Y-68791600D02*
X41866720Y-68191600D01*
X42806720Y-68191600D02*
X42806720Y-68791600D01*
X42806720Y-68791600D02*
X44406720Y-68791600D01*
X44406720Y-68791600D02*
X44406720Y-68191600D01*
X45346720Y-68191600D02*
X45346720Y-68791600D01*
X45346720Y-68791600D02*
X46946720Y-68791600D01*
X46946720Y-68791600D02*
X46946720Y-68191600D01*
X73507961Y-32453800D02*
X73507961Y-38473800D01*
X73507961Y-38473800D02*
X83887961Y-38473800D01*
X83887961Y-38473800D02*
X83887961Y-32453800D01*
X83887961Y-32453800D02*
X73507961Y-32453800D01*
X73217961Y-33483800D02*
X73217961Y-37483800D01*
X74887961Y-38473800D02*
X74887961Y-37473800D01*
X74887961Y-37473800D02*
X82507961Y-37473800D01*
X82507961Y-37473800D02*
X82507961Y-38473800D01*
X74887961Y-37473800D02*
X75137961Y-36943800D01*
X75137961Y-36943800D02*
X82257961Y-36943800D01*
X82257961Y-36943800D02*
X82507961Y-37473800D01*
X75137961Y-38473800D02*
X75137961Y-37473800D01*
X82257961Y-38473800D02*
X82257961Y-37473800D01*
X74087961Y-32453800D02*
X74087961Y-33053800D01*
X74087961Y-33053800D02*
X75687961Y-33053800D01*
X75687961Y-33053800D02*
X75687961Y-32453800D01*
X76627961Y-32453800D02*
X76627961Y-33053800D01*
X76627961Y-33053800D02*
X78227961Y-33053800D01*
X78227961Y-33053800D02*
X78227961Y-32453800D01*
X79167961Y-32453800D02*
X79167961Y-33053800D01*
X79167961Y-33053800D02*
X80767961Y-33053800D01*
X80767961Y-33053800D02*
X80767961Y-32453800D01*
X81707961Y-32453800D02*
X81707961Y-33053800D01*
X81707961Y-33053800D02*
X83307961Y-33053800D01*
X83307961Y-33053800D02*
X83307961Y-32453800D01*
X17686200Y-68391120D02*
X17686200Y-59671120D01*
X17686200Y-59671120D02*
X23106200Y-59671120D01*
X23106200Y-68391120D02*
X23106200Y-59671120D01*
X18986200Y-70091120D02*
X17686200Y-68391120D01*
X21806200Y-70091120D02*
X23106200Y-68391120D01*
X18986200Y-70091120D02*
X21806200Y-70091120D01*
X83307961Y-49292481D02*
X83307961Y-48692481D01*
X81707961Y-49292481D02*
X83307961Y-49292481D01*
X81707961Y-48692481D02*
X81707961Y-49292481D01*
X80767961Y-49292481D02*
X80767961Y-48692481D01*
X79167961Y-49292481D02*
X80767961Y-49292481D01*
X79167961Y-48692481D02*
X79167961Y-49292481D01*
X78227961Y-49292481D02*
X78227961Y-48692481D01*
X76627961Y-49292481D02*
X78227961Y-49292481D01*
X76627961Y-48692481D02*
X76627961Y-49292481D01*
X75687961Y-49292481D02*
X75687961Y-48692481D01*
X74087961Y-49292481D02*
X75687961Y-49292481D01*
X74087961Y-48692481D02*
X74087961Y-49292481D01*
X82257961Y-54712481D02*
X82257961Y-53712481D01*
X75137961Y-54712481D02*
X75137961Y-53712481D01*
X82257961Y-53182481D02*
X82507961Y-53712481D01*
X75137961Y-53182481D02*
X82257961Y-53182481D01*
X74887961Y-53712481D02*
X75137961Y-53182481D01*
X82507961Y-53712481D02*
X82507961Y-54712481D01*
X74887961Y-53712481D02*
X82507961Y-53712481D01*
X74887961Y-54712481D02*
X74887961Y-53712481D01*
X73217961Y-49722481D02*
X73217961Y-53722481D01*
X83887961Y-48692481D02*
X73507961Y-48692481D01*
X83887961Y-54712481D02*
X83887961Y-48692481D01*
X73507961Y-54712481D02*
X83887961Y-54712481D01*
X73507961Y-48692481D02*
X73507961Y-54712481D01*
X83307961Y-24803880D02*
X83307961Y-24203880D01*
X81707961Y-24803880D02*
X83307961Y-24803880D01*
X81707961Y-24203880D02*
X81707961Y-24803880D01*
X80767961Y-24803880D02*
X80767961Y-24203880D01*
X79167961Y-24803880D02*
X80767961Y-24803880D01*
X79167961Y-24203880D02*
X79167961Y-24803880D01*
X78227961Y-24803880D02*
X78227961Y-24203880D01*
X76627961Y-24803880D02*
X78227961Y-24803880D01*
X76627961Y-24203880D02*
X76627961Y-24803880D01*
X75687961Y-24803880D02*
X75687961Y-24203880D01*
X74087961Y-24803880D02*
X75687961Y-24803880D01*
X74087961Y-24203880D02*
X74087961Y-24803880D01*
X82257961Y-30223880D02*
X82257961Y-29223880D01*
X75137961Y-30223880D02*
X75137961Y-29223880D01*
X82257961Y-28693880D02*
X82507961Y-29223880D01*
X75137961Y-28693880D02*
X82257961Y-28693880D01*
X74887961Y-29223880D02*
X75137961Y-28693880D01*
X82507961Y-29223880D02*
X82507961Y-30223880D01*
X74887961Y-29223880D02*
X82507961Y-29223880D01*
X74887961Y-30223880D02*
X74887961Y-29223880D01*
X73217961Y-25233880D02*
X73217961Y-29233880D01*
X83887961Y-24203880D02*
X73507961Y-24203880D01*
X83887961Y-30223880D02*
X83887961Y-24203880D01*
X73507961Y-30223880D02*
X83887961Y-30223880D01*
X73507961Y-24203880D02*
X73507961Y-30223880D01*
X18986200Y-83202600D02*
X21806200Y-83202600D01*
X21806200Y-83202600D02*
X23106200Y-81502600D01*
X18986200Y-83202600D02*
X17686200Y-81502600D01*
X23106200Y-81502600D02*
X23106200Y-72782600D01*
X17686200Y-72782600D02*
X23106200Y-72782600D01*
X17686200Y-81502600D02*
X17686200Y-72782600D01*
X88954120Y-44249440D02*
X88354120Y-44249440D01*
X88954120Y-45849440D02*
X88954120Y-44249440D01*
X88354120Y-45849440D02*
X88954120Y-45849440D01*
X88954120Y-46789440D02*
X88354120Y-46789440D01*
X88954120Y-48389440D02*
X88954120Y-46789440D01*
X88354120Y-48389440D02*
X88954120Y-48389440D01*
X88954120Y-49329440D02*
X88354120Y-49329440D01*
X88954120Y-50929440D02*
X88954120Y-49329440D01*
X88354120Y-50929440D02*
X88954120Y-50929440D01*
X88954120Y-51869440D02*
X88354120Y-51869440D01*
X88954120Y-53469440D02*
X88954120Y-51869440D01*
X88354120Y-53469440D02*
X88954120Y-53469440D01*
X94374120Y-45299440D02*
X93374120Y-45299440D01*
X94374120Y-52419440D02*
X93374120Y-52419440D01*
X92844120Y-45299440D02*
X93374120Y-45049440D01*
X92844120Y-52419440D02*
X92844120Y-45299440D01*
X93374120Y-52669440D02*
X92844120Y-52419440D01*
X93374120Y-45049440D02*
X94374120Y-45049440D01*
X93374120Y-52669440D02*
X93374120Y-45049440D01*
X94374120Y-52669440D02*
X93374120Y-52669440D01*
X89384120Y-54339440D02*
X93384120Y-54339440D01*
X88354120Y-43669440D02*
X88354120Y-54049440D01*
X94374120Y-43669440D02*
X88354120Y-43669440D01*
X94374120Y-54049440D02*
X94374120Y-43669440D01*
X88354120Y-54049440D02*
X94374120Y-54049440D01*
X73507961Y-40520840D02*
X73507961Y-46540840D01*
X73507961Y-46540840D02*
X83887961Y-46540840D01*
X83887961Y-46540840D02*
X83887961Y-40520840D01*
X83887961Y-40520840D02*
X73507961Y-40520840D01*
X73217961Y-41550840D02*
X73217961Y-45550840D01*
X74887961Y-46540840D02*
X74887961Y-45540840D01*
X74887961Y-45540840D02*
X82507961Y-45540840D01*
X82507961Y-45540840D02*
X82507961Y-46540840D01*
X74887961Y-45540840D02*
X75137961Y-45010840D01*
X75137961Y-45010840D02*
X82257961Y-45010840D01*
X82257961Y-45010840D02*
X82507961Y-45540840D01*
X75137961Y-46540840D02*
X75137961Y-45540840D01*
X82257961Y-46540840D02*
X82257961Y-45540840D01*
X74087961Y-40520840D02*
X74087961Y-41120840D01*
X74087961Y-41120840D02*
X75687961Y-41120840D01*
X75687961Y-41120840D02*
X75687961Y-40520840D01*
X76627961Y-40520840D02*
X76627961Y-41120840D01*
X76627961Y-41120840D02*
X78227961Y-41120840D01*
X78227961Y-41120840D02*
X78227961Y-40520840D01*
X79167961Y-40520840D02*
X79167961Y-41120840D01*
X79167961Y-41120840D02*
X80767961Y-41120840D01*
X80767961Y-41120840D02*
X80767961Y-40520840D01*
X81707961Y-40520840D02*
X81707961Y-41120840D01*
X81707961Y-41120840D02*
X83307961Y-41120840D01*
X83307961Y-41120840D02*
X83307961Y-40520840D01*
X46459920Y-57274240D02*
X46459920Y-51254240D01*
X46459920Y-51254240D02*
X41159920Y-51254240D01*
X41159920Y-51254240D02*
X41159920Y-57274240D01*
X41159920Y-57274240D02*
X46459920Y-57274240D01*
X46749920Y-56244240D02*
X46749920Y-52244240D01*
X45079920Y-51254240D02*
X45079920Y-52254240D01*
X45079920Y-52254240D02*
X42539920Y-52254240D01*
X42539920Y-52254240D02*
X42539920Y-51254240D01*
X45079920Y-52254240D02*
X44829920Y-52784240D01*
X44829920Y-52784240D02*
X42789920Y-52784240D01*
X42789920Y-52784240D02*
X42539920Y-52254240D01*
X44829920Y-51254240D02*
X44829920Y-52254240D01*
X42789920Y-51254240D02*
X42789920Y-52254240D01*
X45879920Y-57274240D02*
X45879920Y-56674240D01*
X45879920Y-56674240D02*
X44279920Y-56674240D01*
X44279920Y-56674240D02*
X44279920Y-57274240D01*
X43339920Y-57274240D02*
X43339920Y-56674240D01*
X43339920Y-56674240D02*
X41739920Y-56674240D01*
X41739920Y-56674240D02*
X41739920Y-57274240D01*
X92966440Y-56198280D02*
X92966440Y-55598280D01*
X91366440Y-56198280D02*
X92966440Y-56198280D01*
X91366440Y-55598280D02*
X91366440Y-56198280D01*
X90426440Y-56198280D02*
X90426440Y-55598280D01*
X88826440Y-56198280D02*
X90426440Y-56198280D01*
X88826440Y-55598280D02*
X88826440Y-56198280D01*
X91916440Y-61618280D02*
X91916440Y-60618280D01*
X89876440Y-61618280D02*
X89876440Y-60618280D01*
X91916440Y-60088280D02*
X92166440Y-60618280D01*
X89876440Y-60088280D02*
X91916440Y-60088280D01*
X89626440Y-60618280D02*
X89876440Y-60088280D01*
X92166440Y-60618280D02*
X92166440Y-61618280D01*
X89626440Y-60618280D02*
X92166440Y-60618280D01*
X89626440Y-61618280D02*
X89626440Y-60618280D01*
X87956440Y-56628280D02*
X87956440Y-60628280D01*
X93546440Y-55598280D02*
X88246440Y-55598280D01*
X93546440Y-61618280D02*
X93546440Y-55598280D01*
X88246440Y-61618280D02*
X93546440Y-61618280D01*
X88246440Y-55598280D02*
X88246440Y-61618280D01*
X88246440Y-63777080D02*
X88246440Y-69797080D01*
X88246440Y-69797080D02*
X93546440Y-69797080D01*
X93546440Y-69797080D02*
X93546440Y-63777080D01*
X93546440Y-63777080D02*
X88246440Y-63777080D01*
X87956440Y-64807080D02*
X87956440Y-68807080D01*
X89626440Y-69797080D02*
X89626440Y-68797080D01*
X89626440Y-68797080D02*
X92166440Y-68797080D01*
X92166440Y-68797080D02*
X92166440Y-69797080D01*
X89626440Y-68797080D02*
X89876440Y-68267080D01*
X89876440Y-68267080D02*
X91916440Y-68267080D01*
X91916440Y-68267080D02*
X92166440Y-68797080D01*
X89876440Y-69797080D02*
X89876440Y-68797080D01*
X91916440Y-69797080D02*
X91916440Y-68797080D01*
X88826440Y-63777080D02*
X88826440Y-64377080D01*
X88826440Y-64377080D02*
X90426440Y-64377080D01*
X90426440Y-64377080D02*
X90426440Y-63777080D01*
X91366440Y-63777080D02*
X91366440Y-64377080D01*
X91366440Y-64377080D02*
X92966440Y-64377080D01*
X92966440Y-64377080D02*
X92966440Y-63777080D01*
X81566920Y-14694680D02*
X81566920Y-14094680D01*
X79966920Y-14694680D02*
X81566920Y-14694680D01*
X79966920Y-14094680D02*
X79966920Y-14694680D01*
X79026920Y-14694680D02*
X79026920Y-14094680D01*
X77426920Y-14694680D02*
X79026920Y-14694680D01*
X77426920Y-14094680D02*
X77426920Y-14694680D01*
X76486920Y-14694680D02*
X76486920Y-14094680D01*
X74886920Y-14694680D02*
X76486920Y-14694680D01*
X74886920Y-14094680D02*
X74886920Y-14694680D01*
X80516920Y-20114680D02*
X80516920Y-19114680D01*
X75936920Y-20114680D02*
X75936920Y-19114680D01*
X80516920Y-18584680D02*
X80766920Y-19114680D01*
X75936920Y-18584680D02*
X80516920Y-18584680D01*
X75686920Y-19114680D02*
X75936920Y-18584680D01*
X80766920Y-19114680D02*
X80766920Y-20114680D01*
X75686920Y-19114680D02*
X80766920Y-19114680D01*
X75686920Y-20114680D02*
X75686920Y-19114680D01*
X74016920Y-15124680D02*
X74016920Y-19124680D01*
X82146920Y-14094680D02*
X74306920Y-14094680D01*
X82146920Y-20114680D02*
X82146920Y-14094680D01*
X74306920Y-20114680D02*
X82146920Y-20114680D01*
X74306920Y-14094680D02*
X74306920Y-20114680D01*
X34993800Y-38921200D02*
X41013800Y-38921200D01*
X41013800Y-38921200D02*
X41013800Y-31081200D01*
X41013800Y-31081200D02*
X34993800Y-31081200D01*
X34993800Y-31081200D02*
X34993800Y-38921200D01*
X36023800Y-39211200D02*
X40023800Y-39211200D01*
X41013800Y-37541200D02*
X40013800Y-37541200D01*
X40013800Y-37541200D02*
X40013800Y-32461200D01*
X40013800Y-32461200D02*
X41013800Y-32461200D01*
X40013800Y-37541200D02*
X39483800Y-37291200D01*
X39483800Y-37291200D02*
X39483800Y-32711200D01*
X39483800Y-32711200D02*
X40013800Y-32461200D01*
X41013800Y-37291200D02*
X40013800Y-37291200D01*
X41013800Y-32711200D02*
X40013800Y-32711200D01*
X34993800Y-38341200D02*
X35593800Y-38341200D01*
X35593800Y-38341200D02*
X35593800Y-36741200D01*
X35593800Y-36741200D02*
X34993800Y-36741200D01*
X34993800Y-35801200D02*
X35593800Y-35801200D01*
X35593800Y-35801200D02*
X35593800Y-34201200D01*
X35593800Y-34201200D02*
X34993800Y-34201200D01*
X34993800Y-33261200D02*
X35593800Y-33261200D01*
X35593800Y-33261200D02*
X35593800Y-31661200D01*
X35593800Y-31661200D02*
X34993800Y-31661200D01*
X50114200Y-32334200D02*
X50114200Y-30251400D01*
X50114200Y-30251400D02*
X42951400Y-30251400D01*
X42951400Y-30251400D02*
X42951400Y-32334200D01*
X42951400Y-32334200D02*
X50114200Y-32334200D01*
X42951400Y-36017200D02*
X50114200Y-36017200D01*
X42951400Y-33934400D02*
X42951400Y-36017200D01*
X50114200Y-33934400D02*
X42951400Y-33934400D01*
X50114200Y-36017200D02*
X50114200Y-33934400D01*
X42951400Y-39751000D02*
X50114200Y-39751000D01*
X42951400Y-37668200D02*
X42951400Y-39751000D01*
X50114200Y-37668200D02*
X42951400Y-37668200D01*
X50114200Y-39751000D02*
X50114200Y-37668200D01*
X88354120Y-29558760D02*
X94374120Y-29558760D01*
X94374120Y-29558760D02*
X94374120Y-21718760D01*
X94374120Y-21718760D02*
X88354120Y-21718760D01*
X88354120Y-21718760D02*
X88354120Y-29558760D01*
X89384120Y-29848760D02*
X93384120Y-29848760D01*
X94374120Y-28178760D02*
X93374120Y-28178760D01*
X93374120Y-28178760D02*
X93374120Y-23098760D01*
X93374120Y-23098760D02*
X94374120Y-23098760D01*
X93374120Y-28178760D02*
X92844120Y-27928760D01*
X92844120Y-27928760D02*
X92844120Y-23348760D01*
X92844120Y-23348760D02*
X93374120Y-23098760D01*
X94374120Y-27928760D02*
X93374120Y-27928760D01*
X94374120Y-23348760D02*
X93374120Y-23348760D01*
X88354120Y-28978760D02*
X88954120Y-28978760D01*
X88954120Y-28978760D02*
X88954120Y-27378760D01*
X88954120Y-27378760D02*
X88354120Y-27378760D01*
X88354120Y-26438760D02*
X88954120Y-26438760D01*
X88954120Y-26438760D02*
X88954120Y-24838760D01*
X88954120Y-24838760D02*
X88354120Y-24838760D01*
X88354120Y-23898760D02*
X88954120Y-23898760D01*
X88954120Y-23898760D02*
X88954120Y-22298760D01*
X88954120Y-22298760D02*
X88354120Y-22298760D01*
X36984160Y-14216600D02*
X36984160Y-20236600D01*
X36984160Y-20236600D02*
X47364160Y-20236600D01*
X47364160Y-20236600D02*
X47364160Y-14216600D01*
X47364160Y-14216600D02*
X36984160Y-14216600D01*
X36694160Y-15246600D02*
X36694160Y-19246600D01*
X38364160Y-20236600D02*
X38364160Y-19236600D01*
X38364160Y-19236600D02*
X45984160Y-19236600D01*
X45984160Y-19236600D02*
X45984160Y-20236600D01*
X38364160Y-19236600D02*
X38614160Y-18706600D01*
X38614160Y-18706600D02*
X45734160Y-18706600D01*
X45734160Y-18706600D02*
X45984160Y-19236600D01*
X38614160Y-20236600D02*
X38614160Y-19236600D01*
X45734160Y-20236600D02*
X45734160Y-19236600D01*
X37564160Y-14216600D02*
X37564160Y-14816600D01*
X37564160Y-14816600D02*
X39164160Y-14816600D01*
X39164160Y-14816600D02*
X39164160Y-14216600D01*
X40104160Y-14216600D02*
X40104160Y-14816600D01*
X40104160Y-14816600D02*
X41704160Y-14816600D01*
X41704160Y-14816600D02*
X41704160Y-14216600D01*
X42644160Y-14216600D02*
X42644160Y-14816600D01*
X42644160Y-14816600D02*
X44244160Y-14816600D01*
X44244160Y-14816600D02*
X44244160Y-14216600D01*
X45184160Y-14216600D02*
X45184160Y-14816600D01*
X45184160Y-14816600D02*
X46784160Y-14816600D01*
X46784160Y-14816600D02*
X46784160Y-14216600D01*
X46784160Y-22589000D02*
X46784160Y-21989000D01*
X45184160Y-22589000D02*
X46784160Y-22589000D01*
X45184160Y-21989000D02*
X45184160Y-22589000D01*
X44244160Y-22589000D02*
X44244160Y-21989000D01*
X42644160Y-22589000D02*
X44244160Y-22589000D01*
X42644160Y-21989000D02*
X42644160Y-22589000D01*
X41704160Y-22589000D02*
X41704160Y-21989000D01*
X40104160Y-22589000D02*
X41704160Y-22589000D01*
X40104160Y-21989000D02*
X40104160Y-22589000D01*
X39164160Y-22589000D02*
X39164160Y-21989000D01*
X37564160Y-22589000D02*
X39164160Y-22589000D01*
X37564160Y-21989000D02*
X37564160Y-22589000D01*
X45734160Y-28009000D02*
X45734160Y-27009000D01*
X38614160Y-28009000D02*
X38614160Y-27009000D01*
X45734160Y-26479000D02*
X45984160Y-27009000D01*
X38614160Y-26479000D02*
X45734160Y-26479000D01*
X38364160Y-27009000D02*
X38614160Y-26479000D01*
X45984160Y-27009000D02*
X45984160Y-28009000D01*
X38364160Y-27009000D02*
X45984160Y-27009000D01*
X38364160Y-28009000D02*
X38364160Y-27009000D01*
X36694160Y-23019000D02*
X36694160Y-27019000D01*
X47364160Y-21989000D02*
X36984160Y-21989000D01*
X47364160Y-28009000D02*
X47364160Y-21989000D01*
X36984160Y-28009000D02*
X47364160Y-28009000D01*
X36984160Y-21989000D02*
X36984160Y-28009000D01*
X37146720Y-59911200D02*
X37146720Y-65931200D01*
X37146720Y-65931200D02*
X47526720Y-65931200D01*
X47526720Y-65931200D02*
X47526720Y-59911200D01*
X47526720Y-59911200D02*
X37146720Y-59911200D01*
X36856720Y-60941200D02*
X36856720Y-64941200D01*
X38526720Y-65931200D02*
X38526720Y-64931200D01*
X38526720Y-64931200D02*
X46146720Y-64931200D01*
X46146720Y-64931200D02*
X46146720Y-65931200D01*
X38526720Y-64931200D02*
X38776720Y-64401200D01*
X38776720Y-64401200D02*
X45896720Y-64401200D01*
X45896720Y-64401200D02*
X46146720Y-64931200D01*
X38776720Y-65931200D02*
X38776720Y-64931200D01*
X45896720Y-65931200D02*
X45896720Y-64931200D01*
X37726720Y-59911200D02*
X37726720Y-60511200D01*
X37726720Y-60511200D02*
X39326720Y-60511200D01*
X39326720Y-60511200D02*
X39326720Y-59911200D01*
X40266720Y-59911200D02*
X40266720Y-60511200D01*
X40266720Y-60511200D02*
X41866720Y-60511200D01*
X41866720Y-60511200D02*
X41866720Y-59911200D01*
X42806720Y-59911200D02*
X42806720Y-60511200D01*
X42806720Y-60511200D02*
X44406720Y-60511200D01*
X44406720Y-60511200D02*
X44406720Y-59911200D01*
X45346720Y-59911200D02*
X45346720Y-60511200D01*
X45346720Y-60511200D02*
X46946720Y-60511200D01*
X46946720Y-60511200D02*
X46946720Y-59911200D01*
X36923200Y-76731080D02*
X36923200Y-82751080D01*
X36923200Y-82751080D02*
X47303200Y-82751080D01*
X47303200Y-82751080D02*
X47303200Y-76731080D01*
X47303200Y-76731080D02*
X36923200Y-76731080D01*
X36633200Y-77761080D02*
X36633200Y-81761080D01*
X38303200Y-82751080D02*
X38303200Y-81751080D01*
X38303200Y-81751080D02*
X45923200Y-81751080D01*
X45923200Y-81751080D02*
X45923200Y-82751080D01*
X38303200Y-81751080D02*
X38553200Y-81221080D01*
X38553200Y-81221080D02*
X45673200Y-81221080D01*
X45673200Y-81221080D02*
X45923200Y-81751080D01*
X38553200Y-82751080D02*
X38553200Y-81751080D01*
X45673200Y-82751080D02*
X45673200Y-81751080D01*
X37503200Y-76731080D02*
X37503200Y-77331080D01*
X37503200Y-77331080D02*
X39103200Y-77331080D01*
X39103200Y-77331080D02*
X39103200Y-76731080D01*
X40043200Y-76731080D02*
X40043200Y-77331080D01*
X40043200Y-77331080D02*
X41643200Y-77331080D01*
X41643200Y-77331080D02*
X41643200Y-76731080D01*
X42583200Y-76731080D02*
X42583200Y-77331080D01*
X42583200Y-77331080D02*
X44183200Y-77331080D01*
X44183200Y-77331080D02*
X44183200Y-76731080D01*
X45123200Y-76731080D02*
X45123200Y-77331080D01*
X45123200Y-77331080D02*
X46723200Y-77331080D01*
X46723200Y-77331080D02*
X46723200Y-76731080D01*
X88954120Y-31844080D02*
X88354120Y-31844080D01*
X88954120Y-33444080D02*
X88954120Y-31844080D01*
X88354120Y-33444080D02*
X88954120Y-33444080D01*
X88954120Y-34384080D02*
X88354120Y-34384080D01*
X88954120Y-35984080D02*
X88954120Y-34384080D01*
X88354120Y-35984080D02*
X88954120Y-35984080D01*
X88954120Y-36924080D02*
X88354120Y-36924080D01*
X88954120Y-38524080D02*
X88954120Y-36924080D01*
X88354120Y-38524080D02*
X88954120Y-38524080D01*
X88954120Y-39464080D02*
X88354120Y-39464080D01*
X88954120Y-41064080D02*
X88954120Y-39464080D01*
X88354120Y-41064080D02*
X88954120Y-41064080D01*
X94374120Y-32894080D02*
X93374120Y-32894080D01*
X94374120Y-40014080D02*
X93374120Y-40014080D01*
X92844120Y-32894080D02*
X93374120Y-32644080D01*
X92844120Y-40014080D02*
X92844120Y-32894080D01*
X93374120Y-40264080D02*
X92844120Y-40014080D01*
X93374120Y-32644080D02*
X94374120Y-32644080D01*
X93374120Y-40264080D02*
X93374120Y-32644080D01*
X94374120Y-40264080D02*
X93374120Y-40264080D01*
X89384120Y-41934080D02*
X93384120Y-41934080D01*
X88354120Y-31264080D02*
X88354120Y-41644080D01*
X94374120Y-31264080D02*
X88354120Y-31264080D01*
X94374120Y-41644080D02*
X94374120Y-31264080D01*
X88354120Y-41644080D02*
X94374120Y-41644080D01*
X31027120Y-59482360D02*
X31027120Y-69722360D01*
X26386120Y-59482360D02*
X26386120Y-69722360D01*
X31027120Y-59482360D02*
X26386120Y-59482360D01*
X31027120Y-69722360D02*
X26386120Y-69722360D01*
X29517120Y-59482360D02*
X29517120Y-69722360D01*
X31027120Y-62752360D02*
X29517120Y-62752360D01*
X31027120Y-66453360D02*
X29517120Y-66453360D01*
X31027120Y-79448000D02*
X29517120Y-79448000D01*
X31027120Y-75747000D02*
X29517120Y-75747000D01*
X29517120Y-72477000D02*
X29517120Y-82717000D01*
X31027120Y-82717000D02*
X26386120Y-82717000D01*
X31027120Y-72477000D02*
X26386120Y-72477000D01*
X26386120Y-72477000D02*
X26386120Y-82717000D01*
X31027120Y-72477000D02*
X31027120Y-82717000D01*
X65138384Y-21629960D02*
X63934256Y-21629960D01*
X65138384Y-23449960D02*
X63934256Y-23449960D01*
X65138384Y-26137280D02*
X63934256Y-26137280D01*
X65138384Y-24317280D02*
X63934256Y-24317280D01*
X65138384Y-27080800D02*
X63934256Y-27080800D01*
X65138384Y-28900800D02*
X63934256Y-28900800D01*
X65138384Y-31542400D02*
X63934256Y-31542400D01*
X65138384Y-29722400D02*
X63934256Y-29722400D01*
X25542442Y-54878824D02*
G75*
G02X25562600Y-52569000I20158J1154824D01*
G01*
X25541826Y-52570043D02*
G75*
G02X26705600Y-53884000I20774J-1153957D01*
G01*
X24172600Y-52324000D02*
X24172600Y-57394000D01*
X24172600Y-57394000D02*
X25162600Y-57394000D01*
X25162600Y-57394000D02*
X25162600Y-57014000D01*
X25162600Y-57014000D02*
X32952600Y-57014000D01*
X32952600Y-57014000D02*
X32952600Y-57394000D01*
X32952600Y-57394000D02*
X33942600Y-57394000D01*
X33942600Y-57394000D02*
X33942600Y-52324000D01*
X33942600Y-52324000D02*
X24172600Y-52324000D01*
X24686600Y-54458000D02*
X26297600Y-52848000D01*
X24826600Y-54599000D02*
X25519600Y-53907000D01*
X25559600Y-53866000D02*
X26438600Y-52989000D01*
X23932600Y-54084000D02*
X23932600Y-52084000D01*
X23932600Y-52084000D02*
X25932600Y-52084000D01*
X32226000Y-40214400D02*
X32226000Y-50455400D01*
X27585000Y-40214400D02*
X27585000Y-50455400D01*
X32226000Y-40214400D02*
X27585000Y-40214400D01*
X32226000Y-50455400D02*
X27585000Y-50455400D01*
X30716000Y-40214400D02*
X30716000Y-50455400D01*
X32226000Y-43485400D02*
X30716000Y-43485400D01*
X32226000Y-47185400D02*
X30716000Y-47185400D01*
X33158600Y-38811400D02*
X33158600Y-36481400D01*
X30708600Y-38811400D02*
X33158600Y-38811400D01*
X32828600Y-24511400D02*
X32828600Y-38511400D01*
X24978600Y-24511400D02*
X32828600Y-24511400D01*
X24978600Y-38511400D02*
X24978600Y-24511400D01*
X32828600Y-38511400D02*
X24978600Y-38511400D01*
X74464400Y-65524600D02*
X74464400Y-71544600D01*
X74464400Y-71544600D02*
X82304400Y-71544600D01*
X82304400Y-71544600D02*
X82304400Y-65524600D01*
X82304400Y-65524600D02*
X74464400Y-65524600D01*
X74174400Y-66554600D02*
X74174400Y-70554600D01*
X75844400Y-71544600D02*
X75844400Y-70544600D01*
X75844400Y-70544600D02*
X80924400Y-70544600D01*
X80924400Y-70544600D02*
X80924400Y-71544600D01*
X75844400Y-70544600D02*
X76094400Y-70014600D01*
X76094400Y-70014600D02*
X80674400Y-70014600D01*
X80674400Y-70014600D02*
X80924400Y-70544600D01*
X76094400Y-71544600D02*
X76094400Y-70544600D01*
X80674400Y-71544600D02*
X80674400Y-70544600D01*
X75044400Y-65524600D02*
X75044400Y-66124600D01*
X75044400Y-66124600D02*
X76644400Y-66124600D01*
X76644400Y-66124600D02*
X76644400Y-65524600D01*
X77584400Y-65524600D02*
X77584400Y-66124600D01*
X77584400Y-66124600D02*
X79184400Y-66124600D01*
X79184400Y-66124600D02*
X79184400Y-65524600D01*
X80124400Y-65524600D02*
X80124400Y-66124600D01*
X80124400Y-66124600D02*
X81724400Y-66124600D01*
X81724400Y-66124600D02*
X81724400Y-65524600D01*
X81749800Y-57971200D02*
X81749800Y-57371200D01*
X80149800Y-57971200D02*
X81749800Y-57971200D01*
X80149800Y-57371200D02*
X80149800Y-57971200D01*
X79209800Y-57971200D02*
X79209800Y-57371200D01*
X77609800Y-57971200D02*
X79209800Y-57971200D01*
X77609800Y-57371200D02*
X77609800Y-57971200D01*
X76669800Y-57971200D02*
X76669800Y-57371200D01*
X75069800Y-57971200D02*
X76669800Y-57971200D01*
X75069800Y-57371200D02*
X75069800Y-57971200D01*
X80699800Y-63391200D02*
X80699800Y-62391200D01*
X76119800Y-63391200D02*
X76119800Y-62391200D01*
X80699800Y-61861200D02*
X80949800Y-62391200D01*
X76119800Y-61861200D02*
X80699800Y-61861200D01*
X75869800Y-62391200D02*
X76119800Y-61861200D01*
X80949800Y-62391200D02*
X80949800Y-63391200D01*
X75869800Y-62391200D02*
X80949800Y-62391200D01*
X75869800Y-63391200D02*
X75869800Y-62391200D01*
X74199800Y-58401200D02*
X74199800Y-62401200D01*
X82329800Y-57371200D02*
X74489800Y-57371200D01*
X82329800Y-63391200D02*
X82329800Y-57371200D01*
X74489800Y-63391200D02*
X82329800Y-63391200D01*
X74489800Y-57371200D02*
X74489800Y-63391200D01*
X40042320Y-42491880D02*
X40042320Y-48511880D01*
X40042320Y-48511880D02*
X47882320Y-48511880D01*
X47882320Y-48511880D02*
X47882320Y-42491880D01*
X47882320Y-42491880D02*
X40042320Y-42491880D01*
X39752320Y-43521880D02*
X39752320Y-47521880D01*
X41422320Y-48511880D02*
X41422320Y-47511880D01*
X41422320Y-47511880D02*
X46502320Y-47511880D01*
X46502320Y-47511880D02*
X46502320Y-48511880D01*
X41422320Y-47511880D02*
X41672320Y-46981880D01*
X41672320Y-46981880D02*
X46252320Y-46981880D01*
X46252320Y-46981880D02*
X46502320Y-47511880D01*
X41672320Y-48511880D02*
X41672320Y-47511880D01*
X46252320Y-48511880D02*
X46252320Y-47511880D01*
X40622320Y-42491880D02*
X40622320Y-43091880D01*
X40622320Y-43091880D02*
X42222320Y-43091880D01*
X42222320Y-43091880D02*
X42222320Y-42491880D01*
X43162320Y-42491880D02*
X43162320Y-43091880D01*
X43162320Y-43091880D02*
X44762320Y-43091880D01*
X44762320Y-43091880D02*
X44762320Y-42491880D01*
X45702320Y-42491880D02*
X45702320Y-43091880D01*
X45702320Y-43091880D02*
X47302320Y-43091880D01*
X47302320Y-43091880D02*
X47302320Y-42491880D01*
D10*
X62489175Y-35586420D02*
X62489175Y-36395944D01*
X62536794Y-36491182D01*
X62584413Y-36538801D01*
X62679651Y-36586420D01*
X62870127Y-36586420D01*
X62965365Y-36538801D01*
X63012984Y-36491182D01*
X63060603Y-36395944D01*
X63060603Y-35586420D01*
X63441556Y-35586420D02*
X64060603Y-35586420D01*
X63727270Y-35967373D01*
X63870127Y-35967373D01*
X63965365Y-36014992D01*
X64012984Y-36062611D01*
X64060603Y-36157849D01*
X64060603Y-36395944D01*
X64012984Y-36491182D01*
X63965365Y-36538801D01*
X63870127Y-36586420D01*
X63584413Y-36586420D01*
X63489175Y-36538801D01*
X63441556Y-36491182D01*
X14336733Y-36526742D02*
X14289114Y-36574361D01*
X14146257Y-36621980D01*
X14051019Y-36621980D01*
X13908161Y-36574361D01*
X13812923Y-36479123D01*
X13765304Y-36383885D01*
X13717685Y-36193409D01*
X13717685Y-36050552D01*
X13765304Y-35860076D01*
X13812923Y-35764838D01*
X13908161Y-35669600D01*
X14051019Y-35621980D01*
X14146257Y-35621980D01*
X14289114Y-35669600D01*
X14336733Y-35717219D01*
X15289114Y-36621980D02*
X14717685Y-36621980D01*
X15003400Y-36621980D02*
X15003400Y-35621980D01*
X14908161Y-35764838D01*
X14812923Y-35860076D01*
X14717685Y-35907695D01*
X23631342Y-18660466D02*
X23678961Y-18708085D01*
X23726580Y-18850942D01*
X23726580Y-18946180D01*
X23678961Y-19089038D01*
X23583723Y-19184276D01*
X23488485Y-19231895D01*
X23298009Y-19279514D01*
X23155152Y-19279514D01*
X22964676Y-19231895D01*
X22869438Y-19184276D01*
X22774200Y-19089038D01*
X22726580Y-18946180D01*
X22726580Y-18850942D01*
X22774200Y-18708085D01*
X22821819Y-18660466D01*
X22821819Y-18279514D02*
X22774200Y-18231895D01*
X22726580Y-18136657D01*
X22726580Y-17898561D01*
X22774200Y-17803323D01*
X22821819Y-17755704D01*
X22917057Y-17708085D01*
X23012295Y-17708085D01*
X23155152Y-17755704D01*
X23726580Y-18327133D01*
X23726580Y-17708085D01*
X14311333Y-46331142D02*
X14263714Y-46378761D01*
X14120857Y-46426380D01*
X14025619Y-46426380D01*
X13882761Y-46378761D01*
X13787523Y-46283523D01*
X13739904Y-46188285D01*
X13692285Y-45997809D01*
X13692285Y-45854952D01*
X13739904Y-45664476D01*
X13787523Y-45569238D01*
X13882761Y-45474000D01*
X14025619Y-45426380D01*
X14120857Y-45426380D01*
X14263714Y-45474000D01*
X14311333Y-45521619D01*
X14644666Y-45426380D02*
X15263714Y-45426380D01*
X14930380Y-45807333D01*
X15073238Y-45807333D01*
X15168476Y-45854952D01*
X15216095Y-45902571D01*
X15263714Y-45997809D01*
X15263714Y-46235904D01*
X15216095Y-46331142D01*
X15168476Y-46378761D01*
X15073238Y-46426380D01*
X14787523Y-46426380D01*
X14692285Y-46378761D01*
X14644666Y-46331142D01*
X33262344Y-49250860D02*
X33262344Y-48250860D01*
X33500440Y-48250860D01*
X33643297Y-48298480D01*
X33738535Y-48393718D01*
X33786154Y-48488956D01*
X33833773Y-48679432D01*
X33833773Y-48822289D01*
X33786154Y-49012765D01*
X33738535Y-49108003D01*
X33643297Y-49203241D01*
X33500440Y-49250860D01*
X33262344Y-49250860D01*
X34786154Y-49250860D02*
X34214725Y-49250860D01*
X34500440Y-49250860D02*
X34500440Y-48250860D01*
X34405201Y-48393718D01*
X34309963Y-48488956D01*
X34214725Y-48536575D01*
X14425704Y-61651140D02*
X14425704Y-60651140D01*
X14663800Y-60651140D01*
X14806657Y-60698760D01*
X14901895Y-60793998D01*
X14949514Y-60889236D01*
X14997133Y-61079712D01*
X14997133Y-61222569D01*
X14949514Y-61413045D01*
X14901895Y-61508283D01*
X14806657Y-61603521D01*
X14663800Y-61651140D01*
X14425704Y-61651140D01*
X15378085Y-60746379D02*
X15425704Y-60698760D01*
X15520942Y-60651140D01*
X15759038Y-60651140D01*
X15854276Y-60698760D01*
X15901895Y-60746379D01*
X15949514Y-60841617D01*
X15949514Y-60936855D01*
X15901895Y-61079712D01*
X15330466Y-61651140D01*
X15949514Y-61651140D01*
X70615584Y-47671900D02*
X70615584Y-46671900D01*
X70853680Y-46671900D01*
X70996537Y-46719520D01*
X71091775Y-46814758D01*
X71139394Y-46909996D01*
X71187013Y-47100472D01*
X71187013Y-47243329D01*
X71139394Y-47433805D01*
X71091775Y-47529043D01*
X70996537Y-47624281D01*
X70853680Y-47671900D01*
X70615584Y-47671900D01*
X71520346Y-46671900D02*
X72139394Y-46671900D01*
X71806060Y-47052853D01*
X71948918Y-47052853D01*
X72044156Y-47100472D01*
X72091775Y-47148091D01*
X72139394Y-47243329D01*
X72139394Y-47481424D01*
X72091775Y-47576662D01*
X72044156Y-47624281D01*
X71948918Y-47671900D01*
X71663203Y-47671900D01*
X71567965Y-47624281D01*
X71520346Y-47576662D01*
X14288544Y-74432420D02*
X14288544Y-73432420D01*
X14526640Y-73432420D01*
X14669497Y-73480040D01*
X14764735Y-73575278D01*
X14812354Y-73670516D01*
X14859973Y-73860992D01*
X14859973Y-74003849D01*
X14812354Y-74194325D01*
X14764735Y-74289563D01*
X14669497Y-74384801D01*
X14526640Y-74432420D01*
X14288544Y-74432420D01*
X15717116Y-73765754D02*
X15717116Y-74432420D01*
X15479020Y-73384801D02*
X15240925Y-74099087D01*
X15859973Y-74099087D01*
X70651144Y-58877460D02*
X70651144Y-57877460D01*
X70889240Y-57877460D01*
X71032097Y-57925080D01*
X71127335Y-58020318D01*
X71174954Y-58115556D01*
X71222573Y-58306032D01*
X71222573Y-58448889D01*
X71174954Y-58639365D01*
X71127335Y-58734603D01*
X71032097Y-58829841D01*
X70889240Y-58877460D01*
X70651144Y-58877460D01*
X72127335Y-57877460D02*
X71651144Y-57877460D01*
X71603525Y-58353651D01*
X71651144Y-58306032D01*
X71746382Y-58258413D01*
X71984478Y-58258413D01*
X72079716Y-58306032D01*
X72127335Y-58353651D01*
X72174954Y-58448889D01*
X72174954Y-58686984D01*
X72127335Y-58782222D01*
X72079716Y-58829841D01*
X71984478Y-58877460D01*
X71746382Y-58877460D01*
X71651144Y-58829841D01*
X71603525Y-58782222D01*
X49045904Y-14203940D02*
X49045904Y-13203940D01*
X49284000Y-13203940D01*
X49426857Y-13251560D01*
X49522095Y-13346798D01*
X49569714Y-13442036D01*
X49617333Y-13632512D01*
X49617333Y-13775369D01*
X49569714Y-13965845D01*
X49522095Y-14061083D01*
X49426857Y-14156321D01*
X49284000Y-14203940D01*
X49045904Y-14203940D01*
X50474476Y-13203940D02*
X50284000Y-13203940D01*
X50188761Y-13251560D01*
X50141142Y-13299179D01*
X50045904Y-13442036D01*
X49998285Y-13632512D01*
X49998285Y-14013464D01*
X50045904Y-14108702D01*
X50093523Y-14156321D01*
X50188761Y-14203940D01*
X50379238Y-14203940D01*
X50474476Y-14156321D01*
X50522095Y-14108702D01*
X50569714Y-14013464D01*
X50569714Y-13775369D01*
X50522095Y-13680131D01*
X50474476Y-13632512D01*
X50379238Y-13584893D01*
X50188761Y-13584893D01*
X50093523Y-13632512D01*
X50045904Y-13680131D01*
X49998285Y-13775369D01*
X20952980Y-28106333D02*
X21667266Y-28106333D01*
X21810123Y-28153952D01*
X21905361Y-28249190D01*
X21952980Y-28392047D01*
X21952980Y-28487285D01*
X21952980Y-27106333D02*
X21952980Y-27677761D01*
X21952980Y-27392047D02*
X20952980Y-27392047D01*
X21095838Y-27487285D01*
X21191076Y-27582523D01*
X21238695Y-27677761D01*
X17607742Y-21844428D02*
X17607742Y-20701571D01*
X17607742Y-34844428D02*
X17607742Y-33701571D01*
X18179171Y-34273000D02*
X17036314Y-34273000D01*
X35069186Y-70531740D02*
X35069186Y-71246026D01*
X35021567Y-71388883D01*
X34926329Y-71484121D01*
X34783472Y-71531740D01*
X34688234Y-71531740D01*
X35497758Y-70626979D02*
X35545377Y-70579360D01*
X35640615Y-70531740D01*
X35878710Y-70531740D01*
X35973948Y-70579360D01*
X36021567Y-70626979D01*
X36069186Y-70722217D01*
X36069186Y-70817455D01*
X36021567Y-70960312D01*
X35450139Y-71531740D01*
X36069186Y-71531740D01*
X71562507Y-34951420D02*
X71562507Y-35665706D01*
X71514888Y-35808563D01*
X71419650Y-35903801D01*
X71276793Y-35951420D01*
X71181555Y-35951420D01*
X71943460Y-34951420D02*
X72562507Y-34951420D01*
X72229174Y-35332373D01*
X72372031Y-35332373D01*
X72467269Y-35379992D01*
X72514888Y-35427611D01*
X72562507Y-35522849D01*
X72562507Y-35760944D01*
X72514888Y-35856182D01*
X72467269Y-35903801D01*
X72372031Y-35951420D01*
X72086317Y-35951420D01*
X71991079Y-35903801D01*
X71943460Y-35856182D01*
X18101986Y-57928260D02*
X18101986Y-58642546D01*
X18054367Y-58785403D01*
X17959129Y-58880641D01*
X17816272Y-58928260D01*
X17721034Y-58928260D01*
X19006748Y-58261594D02*
X19006748Y-58928260D01*
X18768653Y-57880641D02*
X18530558Y-58594927D01*
X19149605Y-58594927D01*
X18506902Y-61140268D02*
X18506902Y-59997411D01*
X19078331Y-60568840D02*
X17935474Y-60568840D01*
X18232582Y-67652828D02*
X18232582Y-66509971D01*
X83339346Y-55312060D02*
X83339346Y-56026346D01*
X83291727Y-56169203D01*
X83196489Y-56264441D01*
X83053632Y-56312060D01*
X82958394Y-56312060D01*
X84291727Y-55312060D02*
X83815537Y-55312060D01*
X83767918Y-55788251D01*
X83815537Y-55740632D01*
X83910775Y-55693013D01*
X84148870Y-55693013D01*
X84244108Y-55740632D01*
X84291727Y-55788251D01*
X84339346Y-55883489D01*
X84339346Y-56121584D01*
X84291727Y-56216822D01*
X84244108Y-56264441D01*
X84148870Y-56312060D01*
X83910775Y-56312060D01*
X83815537Y-56264441D01*
X83767918Y-56216822D01*
X71587907Y-26432260D02*
X71587907Y-27146546D01*
X71540288Y-27289403D01*
X71445050Y-27384641D01*
X71302193Y-27432260D01*
X71206955Y-27432260D01*
X72492669Y-26432260D02*
X72302193Y-26432260D01*
X72206955Y-26479880D01*
X72159336Y-26527499D01*
X72064098Y-26670356D01*
X72016479Y-26860832D01*
X72016479Y-27241784D01*
X72064098Y-27337022D01*
X72111717Y-27384641D01*
X72206955Y-27432260D01*
X72397431Y-27432260D01*
X72492669Y-27384641D01*
X72540288Y-27337022D01*
X72587907Y-27241784D01*
X72587907Y-27003689D01*
X72540288Y-26908451D01*
X72492669Y-26860832D01*
X72397431Y-26813213D01*
X72206955Y-26813213D01*
X72111717Y-26860832D01*
X72064098Y-26908451D01*
X72016479Y-27003689D01*
X21063626Y-83897220D02*
X21063626Y-84611506D01*
X21016007Y-84754363D01*
X20920769Y-84849601D01*
X20777912Y-84897220D01*
X20682674Y-84897220D01*
X21444579Y-83897220D02*
X22111245Y-83897220D01*
X21682674Y-84897220D01*
X18308782Y-80733828D02*
X18308782Y-79590971D01*
X18511982Y-74439708D02*
X18511982Y-73296851D01*
X19083411Y-73868280D02*
X17940554Y-73868280D01*
X86371180Y-44559813D02*
X87085466Y-44559813D01*
X87228323Y-44607432D01*
X87323561Y-44702670D01*
X87371180Y-44845527D01*
X87371180Y-44940765D01*
X86799752Y-43940765D02*
X86752133Y-44036003D01*
X86704514Y-44083622D01*
X86609276Y-44131241D01*
X86561657Y-44131241D01*
X86466419Y-44083622D01*
X86418800Y-44036003D01*
X86371180Y-43940765D01*
X86371180Y-43750289D01*
X86418800Y-43655051D01*
X86466419Y-43607432D01*
X86561657Y-43559813D01*
X86609276Y-43559813D01*
X86704514Y-43607432D01*
X86752133Y-43655051D01*
X86799752Y-43750289D01*
X86799752Y-43940765D01*
X86847371Y-44036003D01*
X86894990Y-44083622D01*
X86990228Y-44131241D01*
X87180704Y-44131241D01*
X87275942Y-44083622D01*
X87323561Y-44036003D01*
X87371180Y-43940765D01*
X87371180Y-43750289D01*
X87323561Y-43655051D01*
X87275942Y-43607432D01*
X87180704Y-43559813D01*
X86990228Y-43559813D01*
X86894990Y-43607432D01*
X86847371Y-43655051D01*
X86799752Y-43750289D01*
X70950556Y-41992300D02*
X70950556Y-42706586D01*
X70902937Y-42849443D01*
X70807699Y-42944681D01*
X70664841Y-42992300D01*
X70569603Y-42992300D01*
X71950556Y-42992300D02*
X71379127Y-42992300D01*
X71664841Y-42992300D02*
X71664841Y-41992300D01*
X71569603Y-42135158D01*
X71474365Y-42230396D01*
X71379127Y-42278015D01*
X72902937Y-42992300D02*
X72331508Y-42992300D01*
X72617222Y-42992300D02*
X72617222Y-41992300D01*
X72521984Y-42135158D01*
X72426746Y-42230396D01*
X72331508Y-42278015D01*
X37945796Y-54103020D02*
X37945796Y-54817306D01*
X37898177Y-54960163D01*
X37802939Y-55055401D01*
X37660081Y-55103020D01*
X37564843Y-55103020D01*
X38945796Y-55103020D02*
X38374367Y-55103020D01*
X38660081Y-55103020D02*
X38660081Y-54103020D01*
X38564843Y-54245878D01*
X38469605Y-54341116D01*
X38374367Y-54388735D01*
X39326748Y-54198259D02*
X39374367Y-54150640D01*
X39469605Y-54103020D01*
X39707700Y-54103020D01*
X39802939Y-54150640D01*
X39850558Y-54198259D01*
X39898177Y-54293497D01*
X39898177Y-54388735D01*
X39850558Y-54531592D01*
X39279129Y-55103020D01*
X39898177Y-55103020D01*
X86310220Y-58274483D02*
X87024506Y-58274483D01*
X87167363Y-58322102D01*
X87262601Y-58417340D01*
X87310220Y-58560198D01*
X87310220Y-58655436D01*
X87310220Y-57274483D02*
X87310220Y-57845912D01*
X87310220Y-57560198D02*
X86310220Y-57560198D01*
X86453078Y-57655436D01*
X86548316Y-57750674D01*
X86595935Y-57845912D01*
X86310220Y-56941150D02*
X86310220Y-56322102D01*
X86691173Y-56655436D01*
X86691173Y-56512579D01*
X86738792Y-56417340D01*
X86786411Y-56369721D01*
X86881649Y-56322102D01*
X87119744Y-56322102D01*
X87214982Y-56369721D01*
X87262601Y-56417340D01*
X87310220Y-56512579D01*
X87310220Y-56798293D01*
X87262601Y-56893531D01*
X87214982Y-56941150D01*
X86289900Y-68287163D02*
X87004186Y-68287163D01*
X87147043Y-68334782D01*
X87242281Y-68430020D01*
X87289900Y-68572878D01*
X87289900Y-68668116D01*
X87289900Y-67287163D02*
X87289900Y-67858592D01*
X87289900Y-67572878D02*
X86289900Y-67572878D01*
X86432758Y-67668116D01*
X86527996Y-67763354D01*
X86575615Y-67858592D01*
X86623234Y-66430020D02*
X87289900Y-66430020D01*
X86242281Y-66668116D02*
X86956567Y-66906211D01*
X86956567Y-66287163D01*
X71326476Y-17013940D02*
X71326476Y-17728226D01*
X71278857Y-17871083D01*
X71183619Y-17966321D01*
X71040761Y-18013940D01*
X70945523Y-18013940D01*
X72326476Y-18013940D02*
X71755047Y-18013940D01*
X72040761Y-18013940D02*
X72040761Y-17013940D01*
X71945523Y-17156798D01*
X71850285Y-17252036D01*
X71755047Y-17299655D01*
X73183619Y-17013940D02*
X72993142Y-17013940D01*
X72897904Y-17061560D01*
X72850285Y-17109179D01*
X72755047Y-17252036D01*
X72707428Y-17442512D01*
X72707428Y-17823464D01*
X72755047Y-17918702D01*
X72802666Y-17966321D01*
X72897904Y-18013940D01*
X73088380Y-18013940D01*
X73183619Y-17966321D01*
X73231238Y-17918702D01*
X73278857Y-17823464D01*
X73278857Y-17585369D01*
X73231238Y-17490131D01*
X73183619Y-17442512D01*
X73088380Y-17394893D01*
X72897904Y-17394893D01*
X72802666Y-17442512D01*
X72755047Y-17490131D01*
X72707428Y-17585369D01*
X35258476Y-29373580D02*
X35258476Y-30087866D01*
X35210857Y-30230723D01*
X35115619Y-30325961D01*
X34972761Y-30373580D01*
X34877523Y-30373580D01*
X36258476Y-30373580D02*
X35687047Y-30373580D01*
X35972761Y-30373580D02*
X35972761Y-29373580D01*
X35877523Y-29516438D01*
X35782285Y-29611676D01*
X35687047Y-29659295D01*
X36591809Y-29373580D02*
X37258476Y-29373580D01*
X36829904Y-30373580D01*
X50455580Y-32178523D02*
X51169866Y-32178523D01*
X51312723Y-32226142D01*
X51407961Y-32321380D01*
X51455580Y-32464238D01*
X51455580Y-32559476D01*
X51455580Y-31178523D02*
X51455580Y-31749952D01*
X51455580Y-31464238D02*
X50455580Y-31464238D01*
X50598438Y-31559476D01*
X50693676Y-31654714D01*
X50741295Y-31749952D01*
X50884152Y-30607095D02*
X50836533Y-30702333D01*
X50788914Y-30749952D01*
X50693676Y-30797571D01*
X50646057Y-30797571D01*
X50550819Y-30749952D01*
X50503200Y-30702333D01*
X50455580Y-30607095D01*
X50455580Y-30416619D01*
X50503200Y-30321380D01*
X50550819Y-30273761D01*
X50646057Y-30226142D01*
X50693676Y-30226142D01*
X50788914Y-30273761D01*
X50836533Y-30321380D01*
X50884152Y-30416619D01*
X50884152Y-30607095D01*
X50931771Y-30702333D01*
X50979390Y-30749952D01*
X51074628Y-30797571D01*
X51265104Y-30797571D01*
X51360342Y-30749952D01*
X51407961Y-30702333D01*
X51455580Y-30607095D01*
X51455580Y-30416619D01*
X51407961Y-30321380D01*
X51360342Y-30273761D01*
X51265104Y-30226142D01*
X51074628Y-30226142D01*
X50979390Y-30273761D01*
X50931771Y-30321380D01*
X50884152Y-30416619D01*
X50531780Y-35836123D02*
X51246066Y-35836123D01*
X51388923Y-35883742D01*
X51484161Y-35978980D01*
X51531780Y-36121838D01*
X51531780Y-36217076D01*
X51531780Y-34836123D02*
X51531780Y-35407552D01*
X51531780Y-35121838D02*
X50531780Y-35121838D01*
X50674638Y-35217076D01*
X50769876Y-35312314D01*
X50817495Y-35407552D01*
X51531780Y-34359933D02*
X51531780Y-34169457D01*
X51484161Y-34074219D01*
X51436542Y-34026600D01*
X51293685Y-33931361D01*
X51103209Y-33883742D01*
X50722257Y-33883742D01*
X50627019Y-33931361D01*
X50579400Y-33978980D01*
X50531780Y-34074219D01*
X50531780Y-34264695D01*
X50579400Y-34359933D01*
X50627019Y-34407552D01*
X50722257Y-34455171D01*
X50960352Y-34455171D01*
X51055590Y-34407552D01*
X51103209Y-34359933D01*
X51150828Y-34264695D01*
X51150828Y-34074219D01*
X51103209Y-33978980D01*
X51055590Y-33931361D01*
X50960352Y-33883742D01*
X50531780Y-39544523D02*
X51246066Y-39544523D01*
X51388923Y-39592142D01*
X51484161Y-39687380D01*
X51531780Y-39830238D01*
X51531780Y-39925476D01*
X50627019Y-39115952D02*
X50579400Y-39068333D01*
X50531780Y-38973095D01*
X50531780Y-38735000D01*
X50579400Y-38639761D01*
X50627019Y-38592142D01*
X50722257Y-38544523D01*
X50817495Y-38544523D01*
X50960352Y-38592142D01*
X51531780Y-39163571D01*
X51531780Y-38544523D01*
X50531780Y-37925476D02*
X50531780Y-37830238D01*
X50579400Y-37735000D01*
X50627019Y-37687380D01*
X50722257Y-37639761D01*
X50912733Y-37592142D01*
X51150828Y-37592142D01*
X51341304Y-37639761D01*
X51436542Y-37687380D01*
X51484161Y-37735000D01*
X51531780Y-37830238D01*
X51531780Y-37925476D01*
X51484161Y-38020714D01*
X51436542Y-38068333D01*
X51341304Y-38115952D01*
X51150828Y-38163571D01*
X50912733Y-38163571D01*
X50722257Y-38115952D01*
X50627019Y-38068333D01*
X50579400Y-38020714D01*
X50531780Y-37925476D01*
X86421980Y-26402563D02*
X87136266Y-26402563D01*
X87279123Y-26450182D01*
X87374361Y-26545420D01*
X87421980Y-26688278D01*
X87421980Y-26783516D01*
X86517219Y-25973992D02*
X86469600Y-25926373D01*
X86421980Y-25831135D01*
X86421980Y-25593040D01*
X86469600Y-25497801D01*
X86517219Y-25450182D01*
X86612457Y-25402563D01*
X86707695Y-25402563D01*
X86850552Y-25450182D01*
X87421980Y-26021611D01*
X87421980Y-25402563D01*
X87421980Y-24450182D02*
X87421980Y-25021611D01*
X87421980Y-24735897D02*
X86421980Y-24735897D01*
X86564838Y-24831135D01*
X86660076Y-24926373D01*
X86707695Y-25021611D01*
X34125636Y-16825980D02*
X34125636Y-17540266D01*
X34078017Y-17683123D01*
X33982779Y-17778361D01*
X33839921Y-17825980D01*
X33744683Y-17825980D01*
X34554207Y-16921219D02*
X34601826Y-16873600D01*
X34697064Y-16825980D01*
X34935160Y-16825980D01*
X35030398Y-16873600D01*
X35078017Y-16921219D01*
X35125636Y-17016457D01*
X35125636Y-17111695D01*
X35078017Y-17254552D01*
X34506588Y-17825980D01*
X35125636Y-17825980D01*
X35506588Y-16921219D02*
X35554207Y-16873600D01*
X35649445Y-16825980D01*
X35887540Y-16825980D01*
X35982779Y-16873600D01*
X36030398Y-16921219D01*
X36078017Y-17016457D01*
X36078017Y-17111695D01*
X36030398Y-17254552D01*
X35458969Y-17825980D01*
X36078017Y-17825980D01*
X34176436Y-24318980D02*
X34176436Y-25033266D01*
X34128817Y-25176123D01*
X34033579Y-25271361D01*
X33890721Y-25318980D01*
X33795483Y-25318980D01*
X34605007Y-24414219D02*
X34652626Y-24366600D01*
X34747864Y-24318980D01*
X34985960Y-24318980D01*
X35081198Y-24366600D01*
X35128817Y-24414219D01*
X35176436Y-24509457D01*
X35176436Y-24604695D01*
X35128817Y-24747552D01*
X34557388Y-25318980D01*
X35176436Y-25318980D01*
X35509769Y-24318980D02*
X36128817Y-24318980D01*
X35795483Y-24699933D01*
X35938340Y-24699933D01*
X36033579Y-24747552D01*
X36081198Y-24795171D01*
X36128817Y-24890409D01*
X36128817Y-25128504D01*
X36081198Y-25223742D01*
X36033579Y-25271361D01*
X35938340Y-25318980D01*
X35652626Y-25318980D01*
X35557388Y-25271361D01*
X35509769Y-25223742D01*
X34420276Y-62576460D02*
X34420276Y-63290746D01*
X34372657Y-63433603D01*
X34277419Y-63528841D01*
X34134561Y-63576460D01*
X34039323Y-63576460D01*
X34848847Y-62671699D02*
X34896466Y-62624080D01*
X34991704Y-62576460D01*
X35229800Y-62576460D01*
X35325038Y-62624080D01*
X35372657Y-62671699D01*
X35420276Y-62766937D01*
X35420276Y-62862175D01*
X35372657Y-63005032D01*
X34801228Y-63576460D01*
X35420276Y-63576460D01*
X36277419Y-62909794D02*
X36277419Y-63576460D01*
X36039323Y-62528841D02*
X35801228Y-63243127D01*
X36420276Y-63243127D01*
X34105316Y-79147420D02*
X34105316Y-79861706D01*
X34057697Y-80004563D01*
X33962459Y-80099801D01*
X33819601Y-80147420D01*
X33724363Y-80147420D01*
X34533887Y-79242659D02*
X34581506Y-79195040D01*
X34676744Y-79147420D01*
X34914840Y-79147420D01*
X35010078Y-79195040D01*
X35057697Y-79242659D01*
X35105316Y-79337897D01*
X35105316Y-79433135D01*
X35057697Y-79575992D01*
X34486268Y-80147420D01*
X35105316Y-80147420D01*
X36010078Y-79147420D02*
X35533887Y-79147420D01*
X35486268Y-79623611D01*
X35533887Y-79575992D01*
X35629125Y-79528373D01*
X35867220Y-79528373D01*
X35962459Y-79575992D01*
X36010078Y-79623611D01*
X36057697Y-79718849D01*
X36057697Y-79956944D01*
X36010078Y-80052182D01*
X35962459Y-80099801D01*
X35867220Y-80147420D01*
X35629125Y-80147420D01*
X35533887Y-80099801D01*
X35486268Y-80052182D01*
X86528660Y-37258523D02*
X87242946Y-37258523D01*
X87385803Y-37306142D01*
X87481041Y-37401380D01*
X87528660Y-37544238D01*
X87528660Y-37639476D01*
X86623899Y-36829952D02*
X86576280Y-36782333D01*
X86528660Y-36687095D01*
X86528660Y-36449000D01*
X86576280Y-36353761D01*
X86623899Y-36306142D01*
X86719137Y-36258523D01*
X86814375Y-36258523D01*
X86957232Y-36306142D01*
X87528660Y-36877571D01*
X87528660Y-36258523D01*
X86528660Y-35401380D02*
X86528660Y-35591857D01*
X86576280Y-35687095D01*
X86623899Y-35734714D01*
X86766756Y-35829952D01*
X86957232Y-35877571D01*
X87338184Y-35877571D01*
X87433422Y-35829952D01*
X87481041Y-35782333D01*
X87528660Y-35687095D01*
X87528660Y-35496619D01*
X87481041Y-35401380D01*
X87433422Y-35353761D01*
X87338184Y-35306142D01*
X87100089Y-35306142D01*
X87004851Y-35353761D01*
X86957232Y-35401380D01*
X86909613Y-35496619D01*
X86909613Y-35687095D01*
X86957232Y-35782333D01*
X87004851Y-35829952D01*
X87100089Y-35877571D01*
X32574739Y-64697598D02*
X32527120Y-64792836D01*
X32431881Y-64888074D01*
X32289024Y-65030931D01*
X32241405Y-65126169D01*
X32241405Y-65221407D01*
X32479500Y-65173788D02*
X32431881Y-65269026D01*
X32336643Y-65364264D01*
X32146167Y-65411883D01*
X31812834Y-65411883D01*
X31622358Y-65364264D01*
X31527120Y-65269026D01*
X31479500Y-65173788D01*
X31479500Y-64983312D01*
X31527120Y-64888074D01*
X31622358Y-64792836D01*
X31812834Y-64745217D01*
X32146167Y-64745217D01*
X32336643Y-64792836D01*
X32431881Y-64888074D01*
X32479500Y-64983312D01*
X32479500Y-65173788D01*
X32479500Y-63792836D02*
X32479500Y-64364264D01*
X32479500Y-64078550D02*
X31479500Y-64078550D01*
X31622358Y-64173788D01*
X31717596Y-64269026D01*
X31765215Y-64364264D01*
X32574739Y-77692238D02*
X32527120Y-77787476D01*
X32431881Y-77882714D01*
X32289024Y-78025571D01*
X32241405Y-78120809D01*
X32241405Y-78216047D01*
X32479500Y-78168428D02*
X32431881Y-78263666D01*
X32336643Y-78358904D01*
X32146167Y-78406523D01*
X31812834Y-78406523D01*
X31622358Y-78358904D01*
X31527120Y-78263666D01*
X31479500Y-78168428D01*
X31479500Y-77977952D01*
X31527120Y-77882714D01*
X31622358Y-77787476D01*
X31812834Y-77739857D01*
X32146167Y-77739857D01*
X32336643Y-77787476D01*
X32431881Y-77882714D01*
X32479500Y-77977952D01*
X32479500Y-78168428D01*
X31574739Y-77358904D02*
X31527120Y-77311285D01*
X31479500Y-77216047D01*
X31479500Y-76977952D01*
X31527120Y-76882714D01*
X31574739Y-76835095D01*
X31669977Y-76787476D01*
X31765215Y-76787476D01*
X31908072Y-76835095D01*
X32479500Y-77406523D01*
X32479500Y-76787476D01*
X59992022Y-23022820D02*
X59658689Y-22546630D01*
X59420594Y-23022820D02*
X59420594Y-22022820D01*
X59801546Y-22022820D01*
X59896784Y-22070440D01*
X59944403Y-22118059D01*
X59992022Y-22213297D01*
X59992022Y-22356154D01*
X59944403Y-22451392D01*
X59896784Y-22499011D01*
X59801546Y-22546630D01*
X59420594Y-22546630D01*
X60944403Y-23022820D02*
X60372975Y-23022820D01*
X60658689Y-23022820D02*
X60658689Y-22022820D01*
X60563451Y-22165678D01*
X60468213Y-22260916D01*
X60372975Y-22308535D01*
X61420594Y-23022820D02*
X61611070Y-23022820D01*
X61706308Y-22975201D01*
X61753927Y-22927582D01*
X61849165Y-22784725D01*
X61896784Y-22594249D01*
X61896784Y-22213297D01*
X61849165Y-22118059D01*
X61801546Y-22070440D01*
X61706308Y-22022820D01*
X61515832Y-22022820D01*
X61420594Y-22070440D01*
X61372975Y-22118059D01*
X61325356Y-22213297D01*
X61325356Y-22451392D01*
X61372975Y-22546630D01*
X61420594Y-22594249D01*
X61515832Y-22641868D01*
X61706308Y-22641868D01*
X61801546Y-22594249D01*
X61849165Y-22546630D01*
X61896784Y-22451392D01*
X60047902Y-25572980D02*
X59714569Y-25096790D01*
X59476474Y-25572980D02*
X59476474Y-24572980D01*
X59857426Y-24572980D01*
X59952664Y-24620600D01*
X60000283Y-24668219D01*
X60047902Y-24763457D01*
X60047902Y-24906314D01*
X60000283Y-25001552D01*
X59952664Y-25049171D01*
X59857426Y-25096790D01*
X59476474Y-25096790D01*
X60428855Y-24668219D02*
X60476474Y-24620600D01*
X60571712Y-24572980D01*
X60809807Y-24572980D01*
X60905045Y-24620600D01*
X60952664Y-24668219D01*
X61000283Y-24763457D01*
X61000283Y-24858695D01*
X60952664Y-25001552D01*
X60381236Y-25572980D01*
X61000283Y-25572980D01*
X61952664Y-25572980D02*
X61381236Y-25572980D01*
X61666950Y-25572980D02*
X61666950Y-24572980D01*
X61571712Y-24715838D01*
X61476474Y-24811076D01*
X61381236Y-24858695D01*
X59763422Y-28560020D02*
X59430089Y-28083830D01*
X59191994Y-28560020D02*
X59191994Y-27560020D01*
X59572946Y-27560020D01*
X59668184Y-27607640D01*
X59715803Y-27655259D01*
X59763422Y-27750497D01*
X59763422Y-27893354D01*
X59715803Y-27988592D01*
X59668184Y-28036211D01*
X59572946Y-28083830D01*
X59191994Y-28083830D01*
X60144375Y-27655259D02*
X60191994Y-27607640D01*
X60287232Y-27560020D01*
X60525327Y-27560020D01*
X60620565Y-27607640D01*
X60668184Y-27655259D01*
X60715803Y-27750497D01*
X60715803Y-27845735D01*
X60668184Y-27988592D01*
X60096756Y-28560020D01*
X60715803Y-28560020D01*
X61049137Y-27560020D02*
X61715803Y-27560020D01*
X61287232Y-28560020D01*
X60026141Y-31110459D02*
X59692808Y-30634269D01*
X59454713Y-31110459D02*
X59454713Y-30110459D01*
X59835665Y-30110459D01*
X59930903Y-30158079D01*
X59978522Y-30205698D01*
X60026141Y-30300936D01*
X60026141Y-30443793D01*
X59978522Y-30539031D01*
X59930903Y-30586650D01*
X59835665Y-30634269D01*
X59454713Y-30634269D01*
X60359475Y-30110459D02*
X60978522Y-30110459D01*
X60645189Y-30491412D01*
X60788046Y-30491412D01*
X60883284Y-30539031D01*
X60930903Y-30586650D01*
X60978522Y-30681888D01*
X60978522Y-30919983D01*
X60930903Y-31015221D01*
X60883284Y-31062840D01*
X60788046Y-31110459D01*
X60502332Y-31110459D01*
X60407094Y-31062840D01*
X60359475Y-31015221D01*
X61311856Y-30110459D02*
X61930903Y-30110459D01*
X61597570Y-30491412D01*
X61740427Y-30491412D01*
X61835665Y-30539031D01*
X61883284Y-30586650D01*
X61930903Y-30681888D01*
X61930903Y-30919983D01*
X61883284Y-31015221D01*
X61835665Y-31062840D01*
X61740427Y-31110459D01*
X61454713Y-31110459D01*
X61359475Y-31062840D01*
X61311856Y-31015221D01*
X21756761Y-57145180D02*
X21423428Y-56668990D01*
X21185333Y-57145180D02*
X21185333Y-56145180D01*
X21566285Y-56145180D01*
X21661523Y-56192800D01*
X21709142Y-56240419D01*
X21756761Y-56335657D01*
X21756761Y-56478514D01*
X21709142Y-56573752D01*
X21661523Y-56621371D01*
X21566285Y-56668990D01*
X21185333Y-56668990D01*
X22042476Y-56145180D02*
X22375809Y-57145180D01*
X22709142Y-56145180D01*
X23566285Y-57145180D02*
X22994857Y-57145180D01*
X23280571Y-57145180D02*
X23280571Y-56145180D01*
X23185333Y-56288038D01*
X23090095Y-56383276D01*
X22994857Y-56430895D01*
X26010620Y-42392504D02*
X26820144Y-42392504D01*
X26915382Y-42344885D01*
X26963001Y-42297266D01*
X27010620Y-42202028D01*
X27010620Y-42011552D01*
X26963001Y-41916314D01*
X26915382Y-41868695D01*
X26820144Y-41821076D01*
X26010620Y-41821076D01*
X27010620Y-40821076D02*
X27010620Y-41392504D01*
X27010620Y-41106790D02*
X26010620Y-41106790D01*
X26153478Y-41202028D01*
X26248716Y-41297266D01*
X26296335Y-41392504D01*
X23099780Y-32598264D02*
X23909304Y-32598264D01*
X24004542Y-32550645D01*
X24052161Y-32503026D01*
X24099780Y-32407788D01*
X24099780Y-32217312D01*
X24052161Y-32122074D01*
X24004542Y-32074455D01*
X23909304Y-32026836D01*
X23099780Y-32026836D01*
X23195019Y-31598264D02*
X23147400Y-31550645D01*
X23099780Y-31455407D01*
X23099780Y-31217312D01*
X23147400Y-31122074D01*
X23195019Y-31074455D01*
X23290257Y-31026836D01*
X23385495Y-31026836D01*
X23528352Y-31074455D01*
X24099780Y-31645883D01*
X24099780Y-31026836D01*
X72488466Y-69886580D02*
X72488466Y-70600866D01*
X72440847Y-70743723D01*
X72345609Y-70838961D01*
X72202752Y-70886580D01*
X72107514Y-70886580D01*
X73012276Y-70886580D02*
X73202752Y-70886580D01*
X73297990Y-70838961D01*
X73345609Y-70791342D01*
X73440847Y-70648485D01*
X73488466Y-70458009D01*
X73488466Y-70077057D01*
X73440847Y-69981819D01*
X73393228Y-69934200D01*
X73297990Y-69886580D01*
X73107514Y-69886580D01*
X73012276Y-69934200D01*
X72964657Y-69981819D01*
X72917038Y-70077057D01*
X72917038Y-70315152D01*
X72964657Y-70410390D01*
X73012276Y-70458009D01*
X73107514Y-70505628D01*
X73297990Y-70505628D01*
X73393228Y-70458009D01*
X73440847Y-70410390D01*
X73488466Y-70315152D01*
X83038700Y-61165003D02*
X83752986Y-61165003D01*
X83895843Y-61212622D01*
X83991081Y-61307860D01*
X84038700Y-61450718D01*
X84038700Y-61545956D01*
X84038700Y-60165003D02*
X84038700Y-60736432D01*
X84038700Y-60450718D02*
X83038700Y-60450718D01*
X83181558Y-60545956D01*
X83276796Y-60641194D01*
X83324415Y-60736432D01*
X83038700Y-59545956D02*
X83038700Y-59450718D01*
X83086320Y-59355480D01*
X83133939Y-59307860D01*
X83229177Y-59260241D01*
X83419653Y-59212622D01*
X83657748Y-59212622D01*
X83848224Y-59260241D01*
X83943462Y-59307860D01*
X83991081Y-59355480D01*
X84038700Y-59450718D01*
X84038700Y-59545956D01*
X83991081Y-59641194D01*
X83943462Y-59688813D01*
X83848224Y-59736432D01*
X83657748Y-59784051D01*
X83419653Y-59784051D01*
X83229177Y-59736432D01*
X83133939Y-59688813D01*
X83086320Y-59641194D01*
X83038700Y-59545956D01*
X37117756Y-44908220D02*
X37117756Y-45622506D01*
X37070137Y-45765363D01*
X36974899Y-45860601D01*
X36832041Y-45908220D01*
X36736803Y-45908220D01*
X38117756Y-45908220D02*
X37546327Y-45908220D01*
X37832041Y-45908220D02*
X37832041Y-44908220D01*
X37736803Y-45051078D01*
X37641565Y-45146316D01*
X37546327Y-45193935D01*
X39022518Y-44908220D02*
X38546327Y-44908220D01*
X38498708Y-45384411D01*
X38546327Y-45336792D01*
X38641565Y-45289173D01*
X38879660Y-45289173D01*
X38974899Y-45336792D01*
X39022518Y-45384411D01*
X39070137Y-45479649D01*
X39070137Y-45717744D01*
X39022518Y-45812982D01*
X38974899Y-45860601D01*
X38879660Y-45908220D01*
X38641565Y-45908220D01*
X38546327Y-45860601D01*
X38498708Y-45812982D01*
M02*
